Flaticon.ufo3
<glyph name="001-back" format="2">
  <advance width="512"/>
  <unicode hex="F100"/>
  <outline>
    <contour>
      <point x="256" y="448" type="curve" smooth="yes"/>
      <point x="397.152" y="448"/>
      <point x="512" y="333.168"/>
      <point x="512" y="192" type="curve" smooth="yes"/>
      <point x="512" y="50.848"/>
      <point x="397.152" y="-64"/>
      <point x="256" y="-64" type="curve" smooth="yes"/>
      <point x="114.848" y="-64"/>
      <point x="0" y="50.848"/>
      <point x="0" y="192" type="curve" smooth="yes"/>
      <point x="0" y="333.168"/>
      <point x="114.848" y="448"/>
    </contour>
    <contour>
      <point x="273.056" y="351.936" type="line"/>
      <point x="139.073" y="217.92" type="line" smooth="yes"/>
      <point x="132.198" y="211.046"/>
      <point x="128.336" y="201.722"/>
      <point x="128.336" y="192" type="curve" smooth="yes"/>
      <point x="128.336" y="182.278"/>
      <point x="132.198" y="172.954"/>
      <point x="139.073" y="166.08" type="curve" smooth="yes"/>
      <point x="273.073" y="32.0802" type="line" smooth="yes"/>
      <point x="282.333" y="22.8165"/>
      <point x="295.832" y="19.1974"/>
      <point x="308.484" y="22.5861" type="curve" smooth="yes"/>
      <point x="321.136" y="25.9738"/>
      <point x="331.02" y="35.8547"/>
      <point x="334.412" y="48.506" type="curve" smooth="yes"/>
      <point x="337.804" y="61.1574"/>
      <point x="334.189" y="74.6574"/>
      <point x="324.928" y="83.9201" type="curve" smooth="yes"/>
      <point x="216.848" y="192" type="line"/>
      <point x="324.897" y="300.08" type="line" smooth="yes"/>
      <point x="339.217" y="314.395"/>
      <point x="339.22" y="337.608"/>
      <point x="324.905" y="351.928" type="curve" smooth="yes"/>
      <point x="310.59" y="366.248"/>
      <point x="287.377" y="366.251"/>
      <point x="273.057" y="351.936" type="curve"/>
    </contour>
  </outline>
</glyph>
<glyph name="002-acces" format="2">
  <advance width="512"/>
  <unicode hex="F101"/>
  <outline>
    <contour>
      <point x="256" y="448" type="curve" smooth="yes"/>
      <point x="397.385" y="448"/>
      <point x="512" y="333.385"/>
      <point x="512" y="192" type="curve" smooth="yes"/>
      <point x="512" y="50.615"/>
      <point x="397.385" y="-64"/>
      <point x="256" y="-64" type="curve" smooth="yes"/>
      <point x="114.615" y="-64"/>
      <point x="0" y="50.615"/>
      <point x="0" y="192" type="curve" smooth="yes"/>
      <point x="0" y="333.385"/>
      <point x="114.615" y="448"/>
    </contour>
    <contour>
      <point x="256" y="400" type="line"/>
      <point x="193.905" y="400"/>
      <point x="144" y="346.768"/>
      <point x="144" y="281.6" type="curve" smooth="yes"/>
      <point x="144" y="176" type="line"/>
      <point x="127.13" y="176"/>
      <point x="113.31" y="162.946"/>
      <point x="112.088" y="146.389" type="curve" smooth="yes"/>
      <point x="112" y="144" type="line"/>
      <point x="112" y="48" type="line" smooth="yes"/>
      <point x="112" y="31.1299"/>
      <point x="125.054" y="17.3096"/>
      <point x="141.611" y="16.0879" type="curve" smooth="yes"/>
      <point x="144" y="16" type="line"/>
      <point x="368" y="16" type="line" smooth="yes"/>
      <point x="384.87" y="16"/>
      <point x="398.69" y="29.0537"/>
      <point x="399.912" y="45.6113" type="curve" smooth="yes"/>
      <point x="400" y="48" type="line"/>
      <point x="400" y="144" type="line" smooth="yes"/>
      <point x="400" y="161.673"/>
      <point x="385.673" y="176"/>
      <point x="368" y="176" type="curve" smooth="yes"/>
      <point x="176" y="176" type="line"/>
      <point x="176" y="281.6" type="line" smooth="yes"/>
      <point x="176" y="329.54"/>
      <point x="212.057" y="368"/>
      <point x="256" y="368" type="curve" smooth="yes"/>
      <point x="299.943" y="368"/>
      <point x="336" y="329.54"/>
      <point x="336" y="281.6" type="curve" smooth="yes"/>
      <point x="336" y="248.371" type="line" smooth="yes"/>
      <point x="336" y="239.535"/>
      <point x="343.163" y="232.371"/>
      <point x="352" y="232.371" type="curve" smooth="yes"/>
      <point x="360.837" y="232.371"/>
      <point x="368" y="239.535"/>
      <point x="368" y="248.371" type="curve" smooth="yes"/>
      <point x="368" y="281.6" type="line" smooth="yes"/>
      <point x="368" y="346.768"/>
      <point x="318.095" y="400"/>
      <point x="256" y="400" type="curve"/>
    </contour>
    <contour>
      <point x="256" y="128" type="curve" smooth="yes"/>
      <point x="273.673" y="128"/>
      <point x="288" y="113.673"/>
      <point x="288" y="96" type="curve" smooth="yes"/>
      <point x="288" y="78.3271"/>
      <point x="273.673" y="64"/>
      <point x="256" y="64" type="curve" smooth="yes"/>
      <point x="238.327" y="64"/>
      <point x="224" y="78.3271"/>
      <point x="224" y="96" type="curve" smooth="yes"/>
      <point x="224" y="113.673"/>
      <point x="238.327" y="128"/>
    </contour>
  </outline>
</glyph>
<glyph name="003-arrow-2-left" format="2">
  <advance width="512"/>
  <unicode hex="F102"/>
  <outline>
    <contour>
      <point x="10.6543" y="166.749" type="line" smooth="yes"/>
      <point x="3.65821" y="173.746"/>
      <point x="0.1572" y="182.918"/>
      <point x="0.1572" y="192.092" type="curve" smooth="yes"/>
      <point x="0.1572" y="201.262"/>
      <point x="3.65134" y="210.427"/>
      <point x="10.6484" y="217.427" type="curve" smooth="yes"/>
      <point x="230.725" y="437.501" type="line" smooth="yes"/>
      <point x="244.725" y="451.5"/>
      <point x="267.422" y="451.5"/>
      <point x="281.416" y="437.501" type="curve" smooth="yes"/>
      <point x="295.41" y="423.507"/>
      <point x="295.41" y="400.812"/>
      <point x="281.416" y="386.812" type="curve" smooth="yes"/>
      <point x="86.6868" y="192.09" type="line"/>
      <point x="281.421" y="-2.6387" type="line" smooth="yes"/>
      <point x="295.414" y="-16.6319"/>
      <point x="295.414" y="-39.3291"/>
      <point x="281.421" y="-53.3223" type="curve" smooth="yes"/>
      <point x="267.428" y="-67.3291"/>
      <point x="244.729" y="-67.3291"/>
      <point x="230.73" y="-53.3223" type="curve" smooth="yes"/>
    </contour>
  </outline>
</glyph>
<glyph name="004-arrow-up" format="2">
  <advance width="512"/>
  <unicode hex="F103"/>
  <outline>
    <contour>
      <point x="204.312" y="398.792" type="line" smooth="yes"/>
      <point x="261.639" y="451.386"/>
      <point x="261.088" y="450.722"/>
      <point x="319.15" y="398.792" type="curve" smooth="yes"/>
      <point x="492.05" y="242.671" type="line" smooth="yes"/>
      <point x="523.654" y="213.471"/>
      <point x="516.487" y="208.328"/>
      <point x="479.189" y="208.328" type="curve" smooth="yes"/>
      <point x="43.5387" y="208.328" type="line" smooth="yes"/>
      <point x="9.7301" y="208.328"/>
      <point x="-0.9261" y="213.471"/>
      <point x="31.4117" y="242.671" type="curve" smooth="yes"/>
    </contour>
  </outline>
</glyph>
<glyph name="005-cake-2-group" format="2">
  <advance width="512"/>
  <unicode hex="F104"/>
  <outline>
    <contour>
      <point x="498.817" y="140.962" type="line" smooth="yes"/>
      <point x="498.892" y="140.429"/>
      <point x="498.928" y="139.893"/>
      <point x="498.924" y="139.356" type="curve" smooth="yes"/>
      <point x="498.924" y="138.606" type="line"/>
      <point x="498.924" y="-53.2904" type="line" smooth="yes"/>
      <point x="498.924" y="-59.2045"/>
      <point x="494.13" y="-63.9994"/>
      <point x="488.215" y="-63.9994" type="curve" smooth="yes"/>
      <point x="486.289" y="-63.9994" type="line"/>
      <point x="21.8577" y="21.6686" type="line" smooth="yes"/>
      <point x="16.7063" y="22.6109"/>
      <point x="12.9915" y="27.1412"/>
      <point x="13.0774" y="32.3776" type="curve" smooth="yes"/>
      <point x="13.0774" y="223.633" type="line" smooth="yes"/>
      <point x="13.1077" y="224.995"/>
      <point x="13.3987" y="226.341"/>
      <point x="13.9338" y="227.594" type="curve" smooth="yes"/>
      <point x="13.9338" y="228.237" type="line"/>
      <point x="13.9338" y="228.772" type="line"/>
      <point x="45.3098" y="283.386"/>
      <point x="103.136" y="318.296"/>
      <point x="181.415" y="330.076" type="curve"/>
      <point x="188.376" y="336.961"/>
      <point x="197.134" y="341.749"/>
      <point x="206.687" y="343.89" type="curve"/>
      <point x="205.616" y="367.021"/>
      <point x="208.722" y="420.777"/>
      <point x="256.375" y="446.585" type="curve" smooth="yes"/>
      <point x="261.579" y="449.542"/>
      <point x="268.196" y="447.719"/>
      <point x="271.153" y="442.515" type="curve" smooth="yes"/>
      <point x="274.109" y="437.311"/>
      <point x="272.288" y="430.694"/>
      <point x="267.084" y="427.737" type="curve" smooth="yes"/>
      <point x="230.353" y="408.034"/>
      <point x="228.212" y="363.486"/>
      <point x="230.032" y="343.782" type="curve"/>
      <point x="237.835" y="342.191"/>
      <point x="245.163" y="338.819"/>
      <point x="251.449" y="333.93" type="curve"/>
      <point x="267.93" y="333.785"/>
      <point x="284.384" y="332.568"/>
      <point x="300.709" y="330.29" type="curve" smooth="yes"/>
      <point x="302.85" y="329.925"/>
      <point x="304.83" y="328.915"/>
      <point x="306.384" y="327.398" type="curve" smooth="yes"/>
      <point x="496.89" y="145.353" type="line"/>
      <point x="497.852" y="144.068" type="line" smooth="yes"/>
      <point x="498.227" y="143.527"/>
      <point x="498.549" y="142.954"/>
      <point x="498.816" y="142.354" type="curve" smooth="yes"/>
      <point x="498.848" y="141.891"/>
      <point x="498.848" y="141.425"/>
      <point x="498.816" y="140.963" type="curve" smooth="yes"/>
    </contour>
    <contour>
      <point x="219.11" y="324.185" type="line"/>
      <point x="202.118" y="324.126"/>
      <point x="188.377" y="310.335"/>
      <point x="188.377" y="293.345" type="curve" smooth="yes"/>
      <point x="188.377" y="293.238" type="line" smooth="yes"/>
      <point x="188.435" y="276.205"/>
      <point x="202.291" y="262.446"/>
      <point x="219.324" y="262.504" type="curve" smooth="yes"/>
      <point x="236.357" y="262.563"/>
      <point x="250.117" y="276.418"/>
      <point x="250.057" y="293.452" type="curve" smooth="yes"/>
      <point x="249.999" y="310.485"/>
      <point x="236.143" y="324.245"/>
      <point x="219.11" y="324.185" type="curve"/>
    </contour>
    <contour>
      <point x="168.673" y="306.194" type="line"/>
      <point x="111.275" y="294.522"/>
      <point x="68.655" y="269.571"/>
      <point x="42.205" y="231.449" type="curve"/>
      <point x="455.341" y="155.204" type="line"/>
      <point x="292.785" y="310.585" type="line" smooth="yes"/>
      <point x="288.502" y="311.12"/>
      <point x="279.185" y="312.191"/>
      <point x="267.085" y="312.834" type="curve"/>
      <point x="270.172" y="305.764"/>
      <point x="271.656" y="298.098"/>
      <point x="271.43" y="290.386" type="curve" smooth="yes"/>
      <point x="270.584" y="261.537"/>
      <point x="246.511" y="238.838"/>
      <point x="217.662" y="239.684" type="curve" smooth="yes"/>
      <point x="188.813" y="240.53"/>
      <point x="166.113" y="264.602"/>
      <point x="166.96" y="293.451" type="curve" smooth="yes"/>
      <point x="166.996" y="297.754"/>
      <point x="167.571" y="302.036"/>
      <point x="168.673" y="306.194" type="curve"/>
      <point x="168.673" y="306.194" type="line"/>
    </contour>
    <contour>
      <point x="34.8164" y="41.3721" type="line"/>
      <point x="477.936" y="-40.4414" type="line"/>
      <point x="477.829" y="12.9941" type="line"/>
      <point x="34.816" y="92.7734" type="line"/>
      <point x="34.816" y="41.372" type="line"/>
    </contour>
    <contour>
      <point x="34.8164" y="114.512" type="line"/>
      <point x="477.936" y="34.5188" type="line"/>
      <point x="477.829" y="66.8586" type="line"/>
      <point x="34.816" y="146.638" type="line"/>
      <point x="34.816" y="114.512" type="line"/>
    </contour>
    <contour>
      <point x="34.8164" y="168.161" type="line"/>
      <point x="477.936" y="88.0614" type="line"/>
      <point x="477.722" y="128.861" type="line"/>
      <point x="363.462" y="150.278" type="line"/>
      <point x="34.8156" y="210.996" type="line"/>
      <point x="34.8156" y="168.161" type="line"/>
    </contour>
  </outline>
</glyph>
<glyph name="006-arrow-2-right" format="2">
  <advance width="512"/>
  <unicode hex="F105"/>
  <outline>
    <contour>
      <point x="391.429" y="166.653" type="line"/>
      <point x="171.277" y="-53.492" type="line" smooth="yes"/>
      <point x="157.273" y="-67.5037"/>
      <point x="134.567" y="-67.5037"/>
      <point x="120.57" y="-53.492" type="curve" smooth="yes"/>
      <point x="106.571" y="-39.494"/>
      <point x="106.571" y="-16.7889"/>
      <point x="120.57" y="-2.7918" type="curve" smooth="yes"/>
      <point x="315.37" y="192.003" type="line"/>
      <point x="120.576" y="386.791" type="line" smooth="yes"/>
      <point x="106.577" y="400.795"/>
      <point x="106.577" y="423.497"/>
      <point x="120.576" y="437.496" type="curve" smooth="yes"/>
      <point x="134.574" y="451.5"/>
      <point x="157.279" y="451.5"/>
      <point x="171.283" y="437.496" type="curve" smooth="yes"/>
      <point x="391.435" y="217.348" type="line" smooth="yes"/>
      <point x="398.434" y="210.345"/>
      <point x="401.929" y="201.177"/>
      <point x="401.929" y="192.005" type="curve" smooth="yes"/>
      <point x="401.929" y="182.828"/>
      <point x="398.427" y="173.653"/>
      <point x="391.429" y="166.653" type="curve"/>
    </contour>
  </outline>
</glyph>
<glyph name="007-candy-group" format="2">
  <advance width="512"/>
  <unicode hex="F106"/>
  <outline>
    <contour>
      <point x="505.008" y="313.875" type="line" smooth="yes"/>
      <point x="513.727" y="307.664"/>
      <point x="514.481" y="294.91"/>
      <point x="506.207" y="288.519" type="curve" smooth="yes"/>
      <point x="475.656" y="264.934"/>
      <point x="431.192" y="259.988"/>
      <point x="392.578" y="263.199" type="curve"/>
      <point x="422.301" y="206.344"/>
      <point x="414.469" y="132.761"/>
      <point x="364.856" y="83.1482" type="curve" smooth="yes"/>
      <point x="315.305" y="33.5935"/>
      <point x="241.754" y="25.6716"/>
      <point x="184.836" y="55.4099" type="curve"/>
      <point x="187.011" y="29.8357"/>
      <point x="187.261" y="-22.2268"/>
      <point x="159.484" y="-58.2031" type="curve" smooth="yes"/>
      <point x="153.082" y="-66.4922"/>
      <point x="140.332" y="-65.7109"/>
      <point x="134.128" y="-57.0039" type="curve" smooth="yes"/>
      <point x="125.839" y="-45.3672"/>
      <point x="120.859" y="-26.1367"/>
      <point x="93.0815" y="-11.4258" type="curve" smooth="yes"/>
      <point x="75.1284" y="-1.91797"/>
      <point x="62.0151" y="11.2422"/>
      <point x="52.562" y="29.0898" type="curve" smooth="yes"/>
      <point x="37.855" y="56.8632"/>
      <point x="18.6323" y="61.8398"/>
      <point x="6.99562" y="70.1289" type="curve" smooth="yes"/>
      <point x="-1.72704" y="76.3438"/>
      <point x="-2.48094" y="89.0977"/>
      <point x="5.7925" y="95.4883" type="curve" smooth="yes"/>
      <point x="26.2183" y="111.254"/>
      <point x="54.1714" y="119.988"/>
      <point x="88.8784" y="121.449" type="curve" smooth="yes"/>
      <point x="100.812" y="121.945"/>
      <point x="111.425" y="121.469"/>
      <point x="119.425" y="120.801" type="curve"/>
      <point x="89.6948" y="177.664"/>
      <point x="97.5347" y="251.25"/>
      <point x="147.144" y="300.86" type="curve" smooth="yes"/>
      <point x="196.695" y="350.411"/>
      <point x="270.246" y="358.336"/>
      <point x="327.164" y="328.598" type="curve"/>
      <point x="324.988" y="354.172"/>
      <point x="324.738" y="406.231"/>
      <point x="352.516" y="442.207" type="curve" smooth="yes"/>
      <point x="358.867" y="450.434"/>
      <point x="371.625" y="449.777"/>
      <point x="377.871" y="441.008" type="curve" smooth="yes"/>
      <point x="386.195" y="429.32"/>
      <point x="385.563" y="423.508"/>
      <point x="399.133" y="409.938" type="curve" smooth="yes"/>
      <point x="416.524" y="392.547"/>
      <point x="422.871" y="397.699"/>
      <point x="442.277" y="378.293" type="curve" smooth="yes"/>
      <point x="461.754" y="358.816"/>
      <point x="456.516" y="352.551"/>
      <point x="473.93" y="335.137" type="curve" smooth="yes"/>
      <point x="487.434" y="321.637"/>
      <point x="493.508" y="322.067"/>
      <point x="505.008" y="313.875" type="curve" smooth="yes"/>
    </contour>
    <contour>
      <point x="157.75" y="290.25" type="line" smooth="yes"/>
      <point x="103.375" y="235.875"/>
      <point x="103.367" y="147.656"/>
      <point x="158.207" y="93.297" type="curve"/>
      <point x="158.207" y="117.457" type="line" smooth="yes"/>
      <point x="158.207" y="127.387"/>
      <point x="173.207" y="127.371"/>
      <point x="173.207" y="117.457" type="curve" smooth="yes"/>
      <point x="173.207" y="80.383" type="line"/>
      <point x="186.875" y="70.1994"/>
      <point x="202.176" y="62.7033"/>
      <point x="218.445" y="58.1642" type="curve"/>
      <point x="218.445" y="325.84" type="line"/>
      <point x="202.176" y="321.301"/>
      <point x="186.875" y="313.805"/>
      <point x="173.207" y="303.621" type="curve"/>
      <point x="173.207" y="147.726" type="line" smooth="yes"/>
      <point x="173.207" y="139.336"/>
      <point x="158.207" y="139.504"/>
      <point x="158.207" y="147.726" type="curve" smooth="yes"/>
      <point x="158.207" y="290.706" type="line"/>
    </contour>
    <contour>
      <point x="147.688" y="-48.9805" type="line"/>
      <point x="177.172" y="-10.75"/>
      <point x="170.571" y="51.2775"/>
      <point x="168.633" y="65.1995" type="curve" smooth="yes"/>
      <point x="167.836" y="65.7503"/>
      <point x="167.043" y="66.3128"/>
      <point x="166.258" y="66.8792" type="curve"/>
      <point x="162.668" y="54.7581"/>
      <point x="156.793" y="38.7698"/>
      <point x="146.254" y="24.098" type="curve" smooth="yes"/>
      <point x="140.508" y="16.098"/>
      <point x="128.235" y="24.723"/>
      <point x="134.071" y="32.848" type="curve" smooth="yes"/>
      <point x="145.047" y="48.1332"/>
      <point x="150.465" y="65.6332"/>
      <point x="153.547" y="77.0902" type="curve" smooth="yes"/>
      <point x="150.418" y="79.8871"/>
      <point x="147.415" y="82.7972"/>
      <point x="144.528" y="85.8246" type="curve" smooth="yes"/>
      <point x="132.583" y="82.4925"/>
      <point x="115.383" y="77.0628"/>
      <point x="100.387" y="66.4574" type="curve" smooth="yes"/>
      <point x="92.3599" y="60.7816"/>
      <point x="83.5475" y="72.9222"/>
      <point x="91.7271" y="78.7074" type="curve" smooth="yes"/>
      <point x="105.868" y="88.7035"/>
      <point x="121.696" y="94.6097"/>
      <point x="133.809" y="98.3207" type="curve"/>
      <point x="132.215" y="100.391"/>
      <point x="130.676" y="102.496"/>
      <point x="129.196" y="104.637" type="curve" smooth="yes"/>
      <point x="123.083" y="105.493"/>
      <point x="107.676" y="107.254"/>
      <point x="89.1841" y="106.446" type="curve" smooth="yes"/>
      <point x="67.5982" y="105.508"/>
      <point x="37.1997" y="100.782"/>
      <point x="14.9614" y="83.6137" type="curve"/>
      <point x="15.0356" y="78.5316"/>
      <point x="45.6723" y="74.1605"/>
      <point x="65.8208" y="36.1098" type="curve" smooth="yes"/>
      <point x="73.8989" y="20.852"/>
      <point x="84.8638" y="9.89887"/>
      <point x="100.102" y="1.82857" type="curve" smooth="yes"/>
      <point x="139.067" y="-18.8081"/>
      <point x="143.016" y="-50.7339"/>
      <point x="147.688" y="-48.98" type="curve"/>
    </contour>
    <contour>
      <point x="233.445" y="54.8672" type="line"/>
      <point x="248.375" y="52.4453"/>
      <point x="263.777" y="52.4531"/>
      <point x="278.683" y="54.8906" type="curve"/>
      <point x="278.683" y="329.118" type="line"/>
      <point x="263.757" y="331.555"/>
      <point x="248.355" y="331.555"/>
      <point x="233.445" y="329.137" type="curve"/>
      <point x="233.445" y="54.8672" type="line"/>
    </contour>
    <contour>
      <point x="354.25" y="93.7539" type="line"/>
      <point x="408.555" y="148.062"/>
      <point x="408.551" y="235.953"/>
      <point x="354.25" y="290.25" type="curve" smooth="yes"/>
      <point x="354.141" y="290.359"/>
      <point x="354.031" y="290.469"/>
      <point x="353.922" y="290.574" type="curve"/>
      <point x="353.922" y="257.039" type="line" smooth="yes"/>
      <point x="353.922" y="247.109"/>
      <point x="338.922" y="247.129"/>
      <point x="338.922" y="257.039" type="curve" smooth="yes"/>
      <point x="338.922" y="303.523" type="line"/>
      <point x="325.258" y="313.73"/>
      <point x="309.957" y="321.246"/>
      <point x="293.684" y="325.805" type="curve"/>
      <point x="293.684" y="58.1995" type="line"/>
      <point x="309.957" y="62.7581"/>
      <point x="325.258" y="70.2737"/>
      <point x="338.922" y="80.4807" type="curve"/>
      <point x="338.922" y="227.024" type="line" smooth="yes"/>
      <point x="338.922" y="236.953"/>
      <point x="353.922" y="236.938"/>
      <point x="353.922" y="227.024" type="curve" smooth="yes"/>
      <point x="353.922" y="93.4297" type="line"/>
      <point x="354.031" y="93.5352"/>
      <point x="354.141" y="93.6446"/>
      <point x="354.25" y="93.7539" type="curve"/>
    </contour>
    <contour>
      <point x="382.805" y="279.367" type="line"/>
      <point x="419.368" y="274.265"/>
      <point x="467.516" y="277.597"/>
      <point x="497.039" y="300.39" type="curve" smooth="yes"/>
      <point x="497.016" y="302.011"/>
      <point x="489.266" y="306.011"/>
      <point x="486.695" y="307.375" type="curve" smooth="yes"/>
      <point x="480.496" y="310.66"/>
      <point x="473.473" y="314.383"/>
      <point x="463.324" y="324.531" type="curve" smooth="yes"/>
      <point x="443.851" y="344.008"/>
      <point x="449.086" y="350.269"/>
      <point x="431.672" y="367.683" type="curve" smooth="yes"/>
      <point x="414.258" y="385.097"/>
      <point x="407.953" y="379.902"/>
      <point x="388.523" y="399.332" type="curve" smooth="yes"/>
      <point x="371.476" y="416.379"/>
      <point x="367.312" y="434.105"/>
      <point x="364.312" y="432.984" type="curve" smooth="yes"/>
      <point x="341.617" y="403.531"/>
      <point x="338.258" y="355.386"/>
      <point x="343.367" y="318.804" type="curve" smooth="yes"/>
      <point x="345.504" y="317.324"/>
      <point x="347.609" y="315.788"/>
      <point x="349.68" y="314.195" type="curve"/>
      <point x="353.555" y="326.847"/>
      <point x="359.797" y="343.484"/>
      <point x="370.629" y="358.116" type="curve" smooth="yes"/>
      <point x="376.539" y="366.097"/>
      <point x="388.582" y="357.163"/>
      <point x="382.688" y="349.195" type="curve" smooth="yes"/>
      <point x="371.316" y="333.831"/>
      <point x="365.641" y="315.894"/>
      <point x="362.176" y="303.476" type="curve" smooth="yes"/>
      <point x="365.211" y="300.577"/>
      <point x="368.117" y="297.577"/>
      <point x="370.91" y="294.452" type="curve" smooth="yes"/>
      <point x="382.883" y="297.675"/>
      <point x="401.258" y="303.382"/>
      <point x="417" y="315.296" type="curve" smooth="yes"/>
      <point x="424.926" y="321.284"/>
      <point x="433.961" y="309.316"/>
      <point x="426.055" y="303.331" type="curve" smooth="yes"/>
      <point x="410.777" y="291.773"/>
      <point x="393.859" y="285.511"/>
      <point x="381.125" y="281.745" type="curve"/>
      <point x="381.691" y="280.956"/>
      <point x="382.254" y="280.163"/>
      <point x="382.805" y="279.367" type="curve"/>
    </contour>
    <contour>
      <point x="382.805" y="279.367" type="move" smooth="yes"/>
    </contour>
  </outline>
</glyph>
<glyph name="008-arrow-up-down" format="2">
  <advance width="512"/>
  <unicode hex="F107"/>
  <outline>
    <contour>
      <point x="263.733" y="-26.1123" type="line" smooth="yes"/>
      <point x="214.595" y="-71.1924"/>
      <point x="215.068" y="-70.624"/>
      <point x="165.3" y="-26.1123" type="curve" smooth="yes"/>
      <point x="17.1004" y="107.706" type="line" smooth="yes"/>
      <point x="-9.9885" y="132.734"/>
      <point x="-3.8469" y="137.142"/>
      <point x="28.1248" y="137.142" type="curve" smooth="yes"/>
      <point x="401.539" y="137.142" type="line" smooth="yes"/>
      <point x="430.517" y="137.142"/>
      <point x="439.651" y="132.734"/>
      <point x="411.933" y="107.706" type="curve" smooth="yes"/>
    </contour>
    <contour>
      <point x="164.885" y="414.403" type="line" smooth="yes"/>
      <point x="214.023" y="459.483"/>
      <point x="213.55" y="458.914"/>
      <point x="263.318" y="414.403" type="curve" smooth="yes"/>
      <point x="411.518" y="280.585" type="line" smooth="yes"/>
      <point x="438.606" y="255.557"/>
      <point x="432.464" y="251.148"/>
      <point x="400.493" y="251.148" type="curve" smooth="yes"/>
      <point x="27.0792" y="251.148" type="line" smooth="yes"/>
      <point x="-1.8993" y="251.148"/>
      <point x="-11.0341" y="255.557"/>
      <point x="16.6847" y="280.585" type="curve" smooth="yes"/>
    </contour>
  </outline>
</glyph>
<glyph name="009-copy" format="2">
  <advance width="512"/>
  <unicode hex="F108"/>
  <outline>
    <contour>
      <point x="256" y="448" type="curve" smooth="yes"/>
      <point x="397.385" y="448"/>
      <point x="512" y="333.385"/>
      <point x="512" y="192" type="curve" smooth="yes"/>
      <point x="512" y="50.615"/>
      <point x="397.385" y="-64"/>
      <point x="256" y="-64" type="curve" smooth="yes"/>
      <point x="114.615" y="-64"/>
      <point x="0" y="50.615"/>
      <point x="0" y="192" type="curve" smooth="yes"/>
      <point x="0" y="333.385"/>
      <point x="114.615" y="448"/>
    </contour>
    <contour>
      <point x="320" y="272" type="line"/>
      <point x="144" y="272" type="line" smooth="yes"/>
      <point x="126.327" y="272"/>
      <point x="112" y="257.673"/>
      <point x="112" y="240" type="curve"/>
      <point x="112" y="240" type="line"/>
      <point x="112" y="64" type="line" smooth="yes"/>
      <point x="112" y="46.3271"/>
      <point x="126.327" y="32"/>
      <point x="144" y="32" type="curve"/>
      <point x="144" y="32" type="line"/>
      <point x="320" y="32" type="line" smooth="yes"/>
      <point x="337.673" y="32"/>
      <point x="352" y="46.3271"/>
      <point x="352" y="64" type="curve"/>
      <point x="352" y="64" type="line"/>
      <point x="352" y="240" type="line" smooth="yes"/>
      <point x="352" y="257.673"/>
      <point x="337.673" y="272"/>
      <point x="320" y="272" type="curve"/>
    </contour>
    <contour>
      <point x="204.235" y="336" type="line"/>
      <point x="204.235" y="336" type="line"/>
      <point x="201.92" y="335.906" type="line" smooth="yes"/>
      <point x="187.409" y="334.729"/>
      <point x="176" y="322.579"/>
      <point x="176" y="307.765" type="curve"/>
      <point x="176" y="307.765" type="line"/>
      <point x="176" y="293.647" type="line"/>
      <point x="204.235" y="293.647" type="line"/>
      <point x="204.235" y="307.765" type="line"/>
      <point x="387.764" y="307.765" type="line"/>
      <point x="387.764" y="124.236" type="line"/>
      <point x="373.647" y="124.236" type="line"/>
      <point x="373.647" y="96.0003" type="line"/>
      <point x="387.764" y="96.0003" type="line"/>
      <point x="390.08" y="96.094" type="line" smooth="yes"/>
      <point x="404.59" y="97.2717"/>
      <point x="415.999" y="109.421"/>
      <point x="415.999" y="124.236" type="curve"/>
      <point x="415.999" y="124.236" type="line"/>
      <point x="415.999" y="307.765" type="line"/>
      <point x="415.906" y="310.08" type="line" smooth="yes"/>
      <point x="414.728" y="324.591"/>
      <point x="402.579" y="336"/>
      <point x="387.764" y="336" type="curve"/>
      <point x="387.764" y="336" type="line"/>
      <point x="204.235" y="336" type="line"/>
    </contour>
  </outline>
</glyph>
<glyph name="010-cash-register" format="2">
  <advance width="512"/>
  <unicode hex="F109"/>
  <outline>
    <contour>
      <point x="467" y="266" type="line" smooth="yes"/>
      <point x="491.813" y="266"/>
      <point x="512" y="245.814"/>
      <point x="512" y="221" type="curve" smooth="yes"/>
      <point x="512" y="41" type="line" smooth="yes"/>
      <point x="512" y="16.1865"/>
      <point x="491.813" y="-4"/>
      <point x="467" y="-4" type="curve" smooth="yes"/>
      <point x="331" y="-4" type="line"/>
      <point x="331" y="-19" type="line" smooth="yes"/>
      <point x="331" y="-43.8135"/>
      <point x="310.813" y="-64"/>
      <point x="286" y="-64" type="curve" smooth="yes"/>
      <point x="45" y="-64" type="line" smooth="yes"/>
      <point x="20.1865" y="-64"/>
      <point x="0" y="-43.8135"/>
      <point x="0" y="-19" type="curve" smooth="yes"/>
      <point x="0" y="343" type="line" smooth="yes"/>
      <point x="0" y="367.813"/>
      <point x="20.1865" y="388"/>
      <point x="45" y="388" type="curve" smooth="yes"/>
      <point x="90" y="388" type="line"/>
      <point x="90" y="433" type="line" smooth="yes"/>
      <point x="90" y="441.284"/>
      <point x="96.7158" y="448"/>
      <point x="105" y="448" type="curve" smooth="yes"/>
      <point x="226" y="448" type="line" smooth="yes"/>
      <point x="234.284" y="448"/>
      <point x="241" y="441.284"/>
      <point x="241" y="433" type="curve" smooth="yes"/>
      <point x="241" y="388" type="line"/>
      <point x="286" y="388" type="line" smooth="yes"/>
      <point x="310.813" y="388"/>
      <point x="331" y="367.813"/>
      <point x="331" y="343" type="curve" smooth="yes"/>
      <point x="331" y="266" type="line"/>
    </contour>
    <contour>
      <point x="120" y="418" type="line"/>
      <point x="120" y="328" type="line"/>
      <point x="211" y="328" type="line"/>
      <point x="211" y="418" type="line"/>
      <point x="180" y="418" type="line"/>
      <point x="180" y="403" type="line" smooth="yes"/>
      <point x="180" y="394.716"/>
      <point x="173.284" y="388"/>
      <point x="165" y="388" type="curve" smooth="yes"/>
      <point x="156.716" y="388"/>
      <point x="150" y="394.716"/>
      <point x="150" y="403" type="curve" smooth="yes"/>
      <point x="150" y="418" type="line"/>
    </contour>
    <contour>
      <point x="301" y="11" type="line"/>
      <point x="301" y="116" type="line"/>
      <point x="30" y="116" type="line"/>
      <point x="30" y="-19" type="line" smooth="yes"/>
      <point x="30" y="-27.2715"/>
      <point x="36.7285" y="-34"/>
      <point x="45" y="-34" type="curve" smooth="yes"/>
      <point x="286" y="-34" type="line" smooth="yes"/>
      <point x="294.271" y="-34"/>
      <point x="301" y="-27.2715"/>
      <point x="301" y="-19" type="curve" smooth="yes"/>
    </contour>
    <contour>
      <point x="301" y="251" type="line"/>
      <point x="301" y="343" type="line" smooth="yes"/>
      <point x="301" y="351.271"/>
      <point x="294.271" y="358"/>
      <point x="286" y="358" type="curve" smooth="yes"/>
      <point x="241" y="358" type="line"/>
      <point x="241" y="328" type="line"/>
      <point x="256" y="328" type="line" smooth="yes"/>
      <point x="264.284" y="328"/>
      <point x="271" y="321.284"/>
      <point x="271" y="313" type="curve" smooth="yes"/>
      <point x="271" y="304.716"/>
      <point x="264.284" y="298"/>
      <point x="256" y="298" type="curve" smooth="yes"/>
      <point x="75" y="298" type="line" smooth="yes"/>
      <point x="66.7158" y="298"/>
      <point x="60" y="304.716"/>
      <point x="60" y="313" type="curve" smooth="yes"/>
      <point x="60" y="321.284"/>
      <point x="66.7158" y="328"/>
      <point x="75" y="328" type="curve" smooth="yes"/>
      <point x="90" y="328" type="line"/>
      <point x="90" y="358" type="line"/>
      <point x="45" y="358" type="line" smooth="yes"/>
      <point x="36.7285" y="358"/>
      <point x="30" y="351.271"/>
      <point x="30" y="343" type="curve" smooth="yes"/>
      <point x="30" y="146" type="line"/>
      <point x="301" y="146" type="line"/>
    </contour>
    <contour>
      <point x="482" y="41" type="curve" smooth="yes"/>
      <point x="482" y="116" type="line"/>
      <point x="331" y="116" type="line"/>
      <point x="331" y="86" type="line"/>
      <point x="346" y="86" type="line" smooth="yes"/>
      <point x="354.284" y="86"/>
      <point x="361" y="79.2842"/>
      <point x="361" y="71" type="curve" smooth="yes"/>
      <point x="361" y="62.7158"/>
      <point x="354.284" y="56"/>
      <point x="346" y="56" type="curve" smooth="yes"/>
      <point x="331" y="56" type="line"/>
      <point x="331" y="26" type="line"/>
      <point x="467" y="26" type="line" smooth="yes"/>
      <point x="475.271" y="26"/>
      <point x="482" y="32.7285"/>
    </contour>
    <contour>
      <point x="482" y="146" type="line"/>
      <point x="482" y="176" type="line"/>
      <point x="331" y="176" type="line"/>
      <point x="331" y="146" type="line"/>
    </contour>
    <contour>
      <point x="482" y="206" type="line"/>
      <point x="482" y="221" type="line" smooth="yes"/>
      <point x="482" y="229.271"/>
      <point x="475.271" y="236"/>
      <point x="467" y="236" type="curve" smooth="yes"/>
      <point x="331" y="236" type="line"/>
      <point x="331" y="206" type="line"/>
    </contour>
    <contour>
      <point x="256" y="266" type="line" smooth="yes"/>
      <point x="264.284" y="266"/>
      <point x="271" y="259.284"/>
      <point x="271" y="251" type="curve" smooth="yes"/>
      <point x="271" y="191" type="line" smooth="yes"/>
      <point x="271" y="182.716"/>
      <point x="264.284" y="176"/>
      <point x="256" y="176" type="curve" smooth="yes"/>
      <point x="75" y="176" type="line" smooth="yes"/>
      <point x="66.7158" y="176"/>
      <point x="60" y="182.716"/>
      <point x="60" y="191" type="curve" smooth="yes"/>
      <point x="60" y="251" type="line" smooth="yes"/>
      <point x="60" y="259.284"/>
      <point x="66.7158" y="266"/>
      <point x="75" y="266" type="curve" smooth="yes"/>
    </contour>
    <contour>
      <point x="241" y="206" type="line"/>
      <point x="241" y="236" type="line"/>
      <point x="90" y="236" type="line"/>
      <point x="90" y="206" type="line"/>
    </contour>
    <contour>
      <point x="256" y="86" type="curve" smooth="yes"/>
      <point x="264.284" y="86"/>
      <point x="271" y="79.2842"/>
      <point x="271" y="71" type="curve" smooth="yes"/>
      <point x="271" y="11" type="line" smooth="yes"/>
      <point x="271" y="2.71582"/>
      <point x="264.284" y="-4"/>
      <point x="256" y="-4" type="curve" smooth="yes"/>
      <point x="247.716" y="-4"/>
      <point x="241" y="2.71582"/>
      <point x="241" y="11" type="curve" smooth="yes"/>
      <point x="241" y="71" type="line" smooth="yes"/>
      <point x="241" y="79.2842"/>
      <point x="247.716" y="86"/>
    </contour>
    <contour>
      <point x="105" y="86" type="line" smooth="yes"/>
      <point x="113.284" y="86"/>
      <point x="120" y="79.2842"/>
      <point x="120" y="71" type="curve" smooth="yes"/>
      <point x="120" y="62.7158"/>
      <point x="113.284" y="56"/>
      <point x="105" y="56" type="curve" smooth="yes"/>
      <point x="75" y="56" type="line" smooth="yes"/>
      <point x="66.7158" y="56"/>
      <point x="60" y="62.7158"/>
      <point x="60" y="71" type="curve" smooth="yes"/>
      <point x="60" y="79.2842"/>
      <point x="66.7158" y="86"/>
      <point x="75" y="86" type="curve" smooth="yes"/>
    </contour>
    <contour>
      <point x="105" y="26" type="line" smooth="yes"/>
      <point x="113.284" y="26"/>
      <point x="120" y="19.2842"/>
      <point x="120" y="11" type="curve" smooth="yes"/>
      <point x="120" y="2.71582"/>
      <point x="113.284" y="-4"/>
      <point x="105" y="-4" type="curve" smooth="yes"/>
      <point x="75" y="-4" type="line" smooth="yes"/>
      <point x="66.7158" y="-4"/>
      <point x="60" y="2.71582"/>
      <point x="60" y="11" type="curve" smooth="yes"/>
      <point x="60" y="19.2842"/>
      <point x="66.7158" y="26"/>
      <point x="75" y="26" type="curve" smooth="yes"/>
    </contour>
    <contour>
      <point x="195" y="86" type="line" smooth="yes"/>
      <point x="203.284" y="86"/>
      <point x="210" y="79.2842"/>
      <point x="210" y="71" type="curve" smooth="yes"/>
      <point x="210" y="62.7158"/>
      <point x="203.284" y="56"/>
      <point x="195" y="56" type="curve" smooth="yes"/>
      <point x="165" y="56" type="line" smooth="yes"/>
      <point x="156.716" y="56"/>
      <point x="150" y="62.7158"/>
      <point x="150" y="71" type="curve" smooth="yes"/>
      <point x="150" y="79.2842"/>
      <point x="156.716" y="86"/>
      <point x="165" y="86" type="curve" smooth="yes"/>
    </contour>
    <contour>
      <point x="195" y="26" type="line" smooth="yes"/>
      <point x="203.284" y="26"/>
      <point x="210" y="19.2842"/>
      <point x="210" y="11" type="curve" smooth="yes"/>
      <point x="210" y="2.71582"/>
      <point x="203.284" y="-4"/>
      <point x="195" y="-4" type="curve" smooth="yes"/>
      <point x="165" y="-4" type="line" smooth="yes"/>
      <point x="156.716" y="-4"/>
      <point x="150" y="2.71582"/>
      <point x="150" y="11" type="curve" smooth="yes"/>
      <point x="150" y="19.2842"/>
      <point x="156.716" y="26"/>
      <point x="165" y="26" type="curve" smooth="yes"/>
    </contour>
    <contour>
      <point x="437" y="86" type="line" smooth="yes"/>
      <point x="445.284" y="86"/>
      <point x="452" y="79.2842"/>
      <point x="452" y="71" type="curve" smooth="yes"/>
      <point x="452" y="62.7158"/>
      <point x="445.284" y="56"/>
      <point x="437" y="56" type="curve" smooth="yes"/>
      <point x="407" y="56" type="line" smooth="yes"/>
      <point x="398.716" y="56"/>
      <point x="392" y="62.7158"/>
      <point x="392" y="71" type="curve" smooth="yes"/>
      <point x="392" y="79.2842"/>
      <point x="398.716" y="86"/>
      <point x="407" y="86" type="curve" smooth="yes"/>
    </contour>
  </outline>
</glyph>
<glyph name="011-bread-group" format="2">
  <advance width="512"/>
  <unicode hex="F10A"/>
  <outline>
    <contour>
      <point x="476.916" y="135.516" type="line"/>
      <point x="499.36" y="115.1"/>
      <point x="512" y="93.0883"/>
      <point x="512" y="72.7367" type="curve" smooth="yes"/>
      <point x="512" y="18.2484"/>
      <point x="428.26" y="-8.2438"/>
      <point x="256" y="-8.2438" type="curve" smooth="yes"/>
      <point x="83.7402" y="-8.2438"/>
      <point x="0" y="18.2484"/>
      <point x="0" y="72.7367" type="curve" smooth="yes"/>
      <point x="0" y="103.42"/>
      <point x="28.5918" y="137.905"/>
      <point x="76.4883" y="164.964" type="curve" smooth="yes"/>
      <point x="95.6992" y="175.698"/>
      <point x="128.493" y="189.213"/>
      <point x="149.688" y="195.132" type="curve"/>
      <point x="43.6675" y="238.848"/>
      <point x="-1.1525" y="280.728"/>
      <point x="12.8475" y="322.924" type="curve" smooth="yes"/>
      <point x="22.5116" y="352.056"/>
      <point x="60.5077" y="375.773"/>
      <point x="114.488" y="386.365" type="curve" smooth="yes"/>
      <point x="172.092" y="397.697"/>
      <point x="237.612" y="392.728"/>
      <point x="298.971" y="372.365" type="curve" smooth="yes"/>
      <point x="360.332" y="352"/>
      <point x="415.832" y="316.832"/>
      <point x="455.248" y="273.321" type="curve" smooth="yes"/>
      <point x="492.183" y="232.552"/>
      <point x="508.463" y="190.821"/>
      <point x="498.799" y="161.697" type="curve" smooth="yes"/>
      <point x="495.591" y="152.104"/>
      <point x="485.787" y="140.375"/>
      <point x="476.916" y="135.516" type="curve"/>
    </contour>
    <contour>
      <point x="365.156" y="240.584" type="line"/>
      <point x="371.124" y="244.516"/>
      <point x="385.528" y="265.488"/>
      <point x="398.916" y="305.072" type="curve"/>
      <point x="392.532" y="309.813"/>
      <point x="385.849" y="314.424"/>
      <point x="378.868" y="318.904" type="curve"/>
      <point x="378.351" y="317.436"/>
      <point x="377.807" y="316.02"/>
      <point x="377.303" y="314.504" type="curve" smooth="yes"/>
      <point x="363.723" y="273.572"/>
      <point x="362.683" y="247.416"/>
      <point x="365.156" y="240.584" type="curve"/>
    </contour>
    <contour>
      <point x="305.252" y="355.328" type="line"/>
      <point x="301.728" y="356.616"/>
      <point x="298.156" y="357.88"/>
      <point x="294.556" y="359.076" type="curve" smooth="yes"/>
      <point x="290.956" y="360.272"/>
      <point x="287.356" y="361.384"/>
      <point x="283.756" y="362.46" type="curve" smooth="yes"/>
      <point x="281.832" y="357.468"/>
      <point x="279.976" y="352.424"/>
      <point x="278.296" y="347.351" type="curve" smooth="yes"/>
      <point x="264.716" y="306.42"/>
      <point x="263.676" y="280.267"/>
      <point x="266.148" y="273.428" type="curve"/>
      <point x="272.22" y="277.432"/>
      <point x="287" y="299.019"/>
      <point x="300.6" y="339.948" type="curve" smooth="yes"/>
      <point x="302.284" y="345.016"/>
      <point x="303.812" y="350.168"/>
      <point x="305.252" y="355.328" type="curve"/>
    </contour>
    <contour>
      <point x="202.976" y="377.272" type="line"/>
      <point x="194.705" y="377.856"/>
      <point x="186.577" y="378.16"/>
      <point x="178.636" y="378.171" type="curve"/>
      <point x="165.701" y="338.427"/>
      <point x="164.709" y="313"/>
      <point x="167.14" y="306.28" type="curve"/>
      <point x="173.201" y="310.28"/>
      <point x="188" y="331.868"/>
      <point x="201.592" y="372.799" type="curve" smooth="yes"/>
      <point x="202.096" y="374.316"/>
      <point x="202.508" y="375.776"/>
      <point x="202.976" y="377.272" type="curve" smooth="yes"/>
    </contour>
    <contour>
      <point x="171.52" y="201.436" type="line"/>
      <point x="171.842" y="201.307"/>
      <point x="172.342" y="201.052"/>
      <point x="172.636" y="200.869" type="curve" smooth="yes"/>
      <point x="195.364" y="205.775"/>
      <point x="232.679" y="209.756"/>
      <point x="255.93" y="209.756" type="curve" smooth="yes"/>
      <point x="256" y="209.756" type="line" smooth="yes"/>
      <point x="320.649" y="209.756"/>
      <point x="384.4" y="193.852"/>
      <point x="435.516" y="164.976" type="curve" smooth="yes"/>
      <point x="444.134" y="160.135"/>
      <point x="457.478" y="151.308"/>
      <point x="465.305" y="145.273" type="curve"/>
      <point x="473.554" y="148.436"/>
      <point x="482.606" y="157.774"/>
      <point x="485.513" y="166.117" type="curve" smooth="yes"/>
      <point x="495.389" y="195.888"/>
      <point x="467.265" y="249.861"/>
      <point x="410.589" y="296.001" type="curve"/>
      <point x="405.89" y="282.192"/>
      <point x="396.139" y="260.746"/>
      <point x="388.821" y="248.129" type="curve" smooth="yes"/>
      <point x="379.801" y="233.264"/>
      <point x="371.697" y="225.961"/>
      <point x="364.201" y="225.961" type="curve" smooth="yes"/>
      <point x="363.154" y="225.963"/>
      <point x="361.501" y="226.235"/>
      <point x="360.509" y="226.569" type="curve" smooth="yes"/>
      <point x="336.753" y="234.449"/>
      <point x="361.157" y="310.289"/>
      <point x="364.016" y="318.913" type="curve" smooth="yes"/>
      <point x="364.869" y="321.485"/>
      <point x="365.777" y="323.921"/>
      <point x="366.669" y="326.401" type="curve" smooth="yes"/>
      <point x="353.82" y="333.954"/>
      <point x="332.193" y="344.654"/>
      <point x="318.392" y="350.285" type="curve"/>
      <point x="316.989" y="345.337"/>
      <point x="315.505" y="340.401"/>
      <point x="313.905" y="335.545" type="curve" smooth="yes"/>
      <point x="311.184" y="327.348"/>
      <point x="287.761" y="258.841"/>
      <point x="265.053" y="258.841" type="curve" smooth="yes"/>
      <point x="265.045" y="258.841" type="line" smooth="yes"/>
      <point x="264.044" y="258.841"/>
      <point x="262.462" y="259.098"/>
      <point x="261.513" y="259.417" type="curve" smooth="yes"/>
      <point x="237.761" y="267.297"/>
      <point x="262.161" y="343.136"/>
      <point x="265.02" y="351.757" type="curve" smooth="yes"/>
      <point x="266.621" y="356.621"/>
      <point x="268.389" y="361.465"/>
      <point x="270.221" y="366.264" type="curve"/>
      <point x="255.789" y="370.003"/>
      <point x="232.049" y="374.355"/>
      <point x="217.228" y="375.981" type="curve" smooth="yes"/>
      <point x="216.461" y="373.461"/>
      <point x="215.733" y="370.972"/>
      <point x="214.885" y="368.401" type="curve" smooth="yes"/>
      <point x="209.862" y="352.621"/>
      <point x="199.074" y="328.169"/>
      <point x="190.805" y="313.821" type="curve" smooth="yes"/>
      <point x="181.785" y="298.957"/>
      <point x="173.681" y="291.653"/>
      <point x="166.184" y="291.653" type="curve" smooth="yes"/>
      <point x="165.139" y="291.655"/>
      <point x="163.485" y="291.925"/>
      <point x="162.493" y="292.257" type="curve" smooth="yes"/>
      <point x="141.909" y="299.096"/>
      <point x="157.461" y="356.921"/>
      <point x="163.861" y="377.857" type="curve"/>
      <point x="90.8368" y="374.749"/>
      <point x="36.0012" y="348.293"/>
      <point x="26.1362" y="318.52" type="curve" smooth="yes"/>
      <point x="14.5649" y="283.636"/>
      <point x="64.8364" y="243.153"/>
      <point x="171.52" y="201.436" type="curve"/>
    </contour>
    <contour>
      <point x="360.32" y="105.524" type="line"/>
      <point x="360.316" y="105.524" type="line"/>
      <point x="364.74" y="111.135"/>
      <point x="371.803" y="135.58"/>
      <point x="372.047" y="177.404" type="curve"/>
      <point x="364.493" y="179.886"/>
      <point x="356.697" y="182.153"/>
      <point x="348.66" y="184.204" type="curve"/>
      <point x="348.635" y="182.635"/>
      <point x="348.572" y="181.124"/>
      <point x="348.572" y="179.524" type="curve" smooth="yes"/>
      <point x="348.572" y="136.383"/>
      <point x="355.82" y="111.236"/>
      <point x="360.32" y="105.524" type="curve"/>
    </contour>
    <contour>
      <point x="267.752" y="179.524" type="line"/>
      <point x="267.748" y="179.507" type="line"/>
      <point x="267.748" y="184.847"/>
      <point x="267.6" y="190.219"/>
      <point x="267.328" y="195.584" type="curve"/>
      <point x="259.779" y="195.808"/>
      <point x="252.228" y="195.808"/>
      <point x="244.676" y="195.584" type="curve"/>
      <point x="244.42" y="190.227"/>
      <point x="244.252" y="184.851"/>
      <point x="244.252" y="179.524" type="curve" smooth="yes"/>
      <point x="244.252" y="136.383"/>
      <point x="251.504" y="111.236"/>
      <point x="256.004" y="105.524" type="curve"/>
      <point x="260.504" y="111.252"/>
      <point x="267.752" y="136.4"/>
      <point x="267.752" y="179.524" type="curve"/>
    </contour>
    <contour>
      <point x="163.436" y="179.524" type="line"/>
      <point x="163.432" y="179.507" type="line"/>
      <point x="163.432" y="181.103"/>
      <point x="163.365" y="182.62"/>
      <point x="163.344" y="184.175" type="curve"/>
      <point x="155.308" y="182.135"/>
      <point x="147.497" y="179.864"/>
      <point x="139.96" y="177.376" type="curve"/>
      <point x="140.201" y="135.58"/>
      <point x="147.264" y="111.124"/>
      <point x="151.689" y="105.524" type="curve"/>
      <point x="156.189" y="111.252"/>
      <point x="163.436" y="136.4"/>
      <point x="163.436" y="179.524" type="curve"/>
    </contour>
    <contour>
      <point x="256" y="5.75586" type="line"/>
      <point x="414.316" y="5.75586"/>
      <point x="498" y="28.9161"/>
      <point x="498" y="72.7364" type="curve" smooth="yes"/>
      <point x="498" y="104.104"/>
      <point x="454.3" y="146.476"/>
      <point x="385.968" y="172.42" type="curve"/>
      <point x="385.436" y="150.54"/>
      <point x="382" y="90.7559"/>
      <point x="360.317" y="90.7559" type="curve" smooth="yes"/>
      <point x="335.288" y="90.7559"/>
      <point x="334.569" y="170.424"/>
      <point x="334.569" y="179.508" type="curve" smooth="yes"/>
      <point x="334.569" y="182.216"/>
      <point x="334.656" y="184.816"/>
      <point x="334.716" y="187.452" type="curve" smooth="yes"/>
      <point x="320.141" y="190.573"/>
      <point x="296.24" y="193.915"/>
      <point x="281.368" y="194.912" type="curve"/>
      <point x="281.596" y="189.78"/>
      <point x="281.748" y="184.632"/>
      <point x="281.748" y="179.508" type="curve" smooth="yes"/>
      <point x="281.748" y="170.424"/>
      <point x="281.029" y="90.7559"/>
      <point x="256" y="90.7559" type="curve" smooth="yes"/>
      <point x="230.972" y="90.7559"/>
      <point x="230.248" y="170.424"/>
      <point x="230.248" y="179.508" type="curve" smooth="yes"/>
      <point x="230.248" y="184.62"/>
      <point x="230.404" y="189.772"/>
      <point x="230.628" y="194.912" type="curve"/>
      <point x="215.754" y="193.915"/>
      <point x="191.853" y="190.571"/>
      <point x="177.277" y="187.448" type="curve" smooth="yes"/>
      <point x="177.34" y="184.816"/>
      <point x="177.432" y="182.216"/>
      <point x="177.432" y="179.508" type="curve" smooth="yes"/>
      <point x="177.432" y="170.424"/>
      <point x="176.712" y="90.7559"/>
      <point x="151.684" y="90.7559" type="curve" smooth="yes"/>
      <point x="130" y="90.7559"/>
      <point x="126.565" y="150.54"/>
      <point x="126.032" y="172.42" type="curve"/>
      <point x="57.7004" y="146.476"/>
      <point x="14.0004" y="104.104"/>
      <point x="14.0004" y="72.7364" type="curve" smooth="yes"/>
      <point x="14.0004" y="28.9161"/>
      <point x="97.684" y="5.75586"/>
      <point x="256" y="5.75586" type="curve"/>
    </contour>
  </outline>
</glyph>
<glyph name="012-acces-icon" format="2">
  <advance width="512"/>
  <unicode hex="F10B"/>
  <outline>
    <contour>
      <point x="192" y="445.866" type="curve" smooth="yes"/>
      <point x="274.475" y="445.866"/>
      <point x="341.333" y="379.008"/>
      <point x="341.333" y="296.533" type="curve"/>
      <point x="341.333" y="296.533" type="line"/>
      <point x="341.333" y="246.97" type="line" smooth="yes"/>
      <point x="341.333" y="235.187"/>
      <point x="331.782" y="225.636"/>
      <point x="320" y="225.636" type="curve" smooth="yes"/>
      <point x="308.218" y="225.636"/>
      <point x="298.667" y="235.187"/>
      <point x="298.667" y="246.97" type="curve"/>
      <point x="298.667" y="246.97" type="line"/>
      <point x="298.667" y="296.533" type="line" smooth="yes"/>
      <point x="298.667" y="355.443"/>
      <point x="250.91" y="403.2"/>
      <point x="192" y="403.2" type="curve" smooth="yes"/>
      <point x="133.09" y="403.2"/>
      <point x="85.333" y="355.443"/>
      <point x="85.333" y="296.533" type="curve"/>
      <point x="85.333" y="296.533" type="line"/>
      <point x="85.333" y="149.333" type="line"/>
      <point x="341.333" y="149.333" type="line" smooth="yes"/>
      <point x="364.898" y="149.333"/>
      <point x="384" y="130.231"/>
      <point x="384" y="106.667" type="curve" smooth="yes"/>
      <point x="384" y="-21.333" type="line" smooth="yes"/>
      <point x="384" y="-44.8975"/>
      <point x="364.897" y="-64"/>
      <point x="341.333" y="-64" type="curve" smooth="yes"/>
      <point x="42.667" y="-64" type="line" smooth="yes"/>
      <point x="19.1025" y="-64"/>
      <point x="-2.84217e-14" y="-44.8975"/>
      <point x="-2.84217e-14" y="-21.333" type="curve" smooth="yes"/>
      <point x="-2.84217e-14" y="106.667" type="line" smooth="yes"/>
      <point x="-2.84217e-14" y="130.231"/>
      <point x="19.1025" y="149.333"/>
      <point x="42.667" y="149.333" type="curve"/>
      <point x="42.667" y="296.533" type="line" smooth="yes"/>
      <point x="42.667" y="379.008"/>
      <point x="109.525" y="445.866"/>
    </contour>
    <contour>
      <point x="192" y="85.333" type="curve" smooth="yes"/>
      <point x="168.435" y="85.333"/>
      <point x="149.333" y="66.2305"/>
      <point x="149.333" y="42.667" type="curve" smooth="yes"/>
      <point x="149.333" y="19.1025"/>
      <point x="168.435" y="0"/>
      <point x="192" y="0" type="curve" smooth="yes"/>
      <point x="215.565" y="0"/>
      <point x="234.667" y="19.1025"/>
      <point x="234.667" y="42.667" type="curve" smooth="yes"/>
      <point x="234.667" y="66.2305"/>
      <point x="215.565" y="85.333"/>
    </contour>
  </outline>
</glyph>
<glyph name="013-authorization-pin" format="2">
  <advance width="512"/>
  <unicode hex="F10C"/>
  <outline>
    <contour>
      <point x="256" y="448" type="curve" smooth="yes"/>
      <point x="397.385" y="448"/>
      <point x="512" y="333.385"/>
      <point x="512" y="192" type="curve" smooth="yes"/>
      <point x="512" y="50.615"/>
      <point x="397.385" y="-64"/>
      <point x="256" y="-64" type="curve" smooth="yes"/>
      <point x="114.615" y="-64"/>
      <point x="0" y="50.615"/>
      <point x="0" y="192" type="curve" smooth="yes"/>
      <point x="0" y="333.385"/>
      <point x="114.615" y="448"/>
    </contour>
    <contour>
      <point x="256.048" y="278.4" type="line"/>
      <point x="241.099" y="278.4"/>
      <point x="228.981" y="266.311"/>
      <point x="228.981" y="251.4" type="curve" smooth="yes"/>
      <point x="228.981" y="250.538"/>
      <point x="229.021" y="249.684"/>
      <point x="228.981" y="248.841" type="curve" smooth="yes"/>
      <point x="232.528" y="211.326"/>
      <point x="236.622" y="147.722"/>
      <point x="228.981" y="100.423" type="curve"/>
      <point x="228.981" y="100.423" type="line"/>
      <point x="205.098" y="137.563" type="line" smooth="yes"/>
      <point x="204.075" y="139.822"/>
      <point x="202.728" y="141.904"/>
      <point x="201.115" y="143.749" type="curve"/>
      <point x="201.115" y="143.749" type="line"/>
      <point x="200.771" y="144.251" type="line" smooth="yes"/>
      <point x="196.09" y="149.24"/>
      <point x="189.446" y="152.4"/>
      <point x="182.064" y="152.4" type="curve" smooth="yes"/>
      <point x="168.111" y="152.4"/>
      <point x="156.8" y="141.117"/>
      <point x="156.8" y="127.2" type="curve" smooth="yes"/>
      <point x="156.8" y="120.038"/>
      <point x="159.795" y="113.574"/>
      <point x="164.605" y="108.986" type="curve"/>
      <point x="164.605" y="108.986" type="line"/>
      <point x="240.445" y="-2.59218" type="line" smooth="yes"/>
      <point x="243.424" y="-6.97597"/>
      <point x="248.38" y="-9.59999"/>
      <point x="253.68" y="-9.59999" type="curve"/>
      <point x="253.68" y="-9.59999" type="line"/>
      <point x="351.075" y="-9.59999" type="line" smooth="yes"/>
      <point x="357.943" y="-9.59999"/>
      <point x="364.043" y="-5.21815"/>
      <point x="366.236" y="1.28871" type="curve"/>
      <point x="366.236" y="1.28871" type="line"/>
      <point x="394.759" y="85.901" type="line"/>
      <point x="394.678" y="86.1022" type="line" smooth="yes"/>
      <point x="396.045" y="89.3287"/>
      <point x="396.8" y="92.8766"/>
      <point x="396.8" y="96.5993" type="curve" smooth="yes"/>
      <point x="396.8" y="108.641"/>
      <point x="388.898" y="118.842"/>
      <point x="377.983" y="122.323" type="curve"/>
      <point x="377.983" y="122.323" type="line"/>
      <point x="377.898" y="122.477" type="line"/>
      <point x="283.116" y="165.473" type="line"/>
      <point x="283.116" y="248.841" type="line" smooth="yes"/>
      <point x="283.075" y="249.684"/>
      <point x="283.116" y="250.538"/>
      <point x="283.116" y="251.4" type="curve" smooth="yes"/>
      <point x="283.116" y="266.311"/>
      <point x="270.997" y="278.4"/>
      <point x="256.048" y="278.4" type="curve"/>
    </contour>
    <contour>
      <point x="168" y="280.853" type="curve" smooth="yes"/>
      <point x="149.856" y="280.853"/>
      <point x="135.148" y="266.144"/>
      <point x="135.148" y="248.001" type="curve" smooth="yes"/>
      <point x="135.148" y="229.857"/>
      <point x="149.857" y="215.148"/>
      <point x="168" y="215.148" type="curve" smooth="yes"/>
      <point x="186.143" y="215.148"/>
      <point x="200.852" y="229.857"/>
      <point x="200.852" y="248.001" type="curve" smooth="yes"/>
      <point x="200.852" y="266.144"/>
      <point x="186.143" y="280.853"/>
    </contour>
    <contour>
      <point x="344" y="280.853" type="curve" smooth="yes"/>
      <point x="325.856" y="280.853"/>
      <point x="311.147" y="266.144"/>
      <point x="311.147" y="248.001" type="curve" smooth="yes"/>
      <point x="311.147" y="229.857"/>
      <point x="325.856" y="215.148"/>
      <point x="344" y="215.148" type="curve" smooth="yes"/>
      <point x="362.144" y="215.148"/>
      <point x="376.853" y="229.857"/>
      <point x="376.853" y="248.001" type="curve" smooth="yes"/>
      <point x="376.853" y="266.144"/>
      <point x="362.144" y="280.853"/>
    </contour>
    <contour>
      <point x="168" y="263.147" type="curve" smooth="yes"/>
      <point x="176.365" y="263.147"/>
      <point x="183.148" y="256.365"/>
      <point x="183.148" y="247.999" type="curve" smooth="yes"/>
      <point x="183.148" y="239.634"/>
      <point x="176.365" y="232.852"/>
      <point x="168" y="232.852" type="curve" smooth="yes"/>
      <point x="159.635" y="232.852"/>
      <point x="152.852" y="239.634"/>
      <point x="152.852" y="247.999" type="curve" smooth="yes"/>
      <point x="152.852" y="256.365"/>
      <point x="159.635" y="263.147"/>
    </contour>
    <contour>
      <point x="344" y="263.147" type="curve" smooth="yes"/>
      <point x="352.365" y="263.147"/>
      <point x="359.147" y="256.365"/>
      <point x="359.147" y="247.999" type="curve" smooth="yes"/>
      <point x="359.147" y="239.634"/>
      <point x="352.365" y="232.852"/>
      <point x="344" y="232.852" type="curve" smooth="yes"/>
      <point x="335.635" y="232.852"/>
      <point x="328.853" y="239.634"/>
      <point x="328.853" y="247.999" type="curve" smooth="yes"/>
      <point x="328.853" y="256.365"/>
      <point x="335.635" y="263.147"/>
    </contour>
    <contour>
      <point x="168" y="376.853" type="curve" smooth="yes"/>
      <point x="149.856" y="376.853"/>
      <point x="135.148" y="362.144"/>
      <point x="135.148" y="344" type="curve" smooth="yes"/>
      <point x="135.148" y="325.857"/>
      <point x="149.857" y="311.148"/>
      <point x="168" y="311.148" type="curve" smooth="yes"/>
      <point x="186.143" y="311.148"/>
      <point x="200.852" y="325.857"/>
      <point x="200.852" y="344" type="curve" smooth="yes"/>
      <point x="200.852" y="362.144"/>
      <point x="186.143" y="376.853"/>
    </contour>
    <contour>
      <point x="256" y="376.853" type="curve" smooth="yes"/>
      <point x="237.856" y="376.853"/>
      <point x="223.148" y="362.144"/>
      <point x="223.148" y="344" type="curve" smooth="yes"/>
      <point x="223.148" y="325.857"/>
      <point x="237.857" y="311.148"/>
      <point x="256" y="311.148" type="curve" smooth="yes"/>
      <point x="274.144" y="311.148"/>
      <point x="288.853" y="325.857"/>
      <point x="288.853" y="344" type="curve" smooth="yes"/>
      <point x="288.853" y="362.144"/>
      <point x="274.144" y="376.853"/>
    </contour>
    <contour>
      <point x="344" y="376.853" type="curve" smooth="yes"/>
      <point x="325.856" y="376.853"/>
      <point x="311.147" y="362.144"/>
      <point x="311.147" y="344" type="curve" smooth="yes"/>
      <point x="311.147" y="325.857"/>
      <point x="325.856" y="311.148"/>
      <point x="344" y="311.148" type="curve" smooth="yes"/>
      <point x="362.144" y="311.148"/>
      <point x="376.853" y="325.857"/>
      <point x="376.853" y="344" type="curve" smooth="yes"/>
      <point x="376.853" y="362.144"/>
      <point x="362.144" y="376.853"/>
    </contour>
    <contour>
      <point x="168" y="359.147" type="curve" smooth="yes"/>
      <point x="176.365" y="359.147"/>
      <point x="183.148" y="352.365"/>
      <point x="183.148" y="344" type="curve" smooth="yes"/>
      <point x="183.148" y="335.634"/>
      <point x="176.365" y="328.852"/>
      <point x="168" y="328.852" type="curve" smooth="yes"/>
      <point x="159.635" y="328.852"/>
      <point x="152.852" y="335.634"/>
      <point x="152.852" y="344" type="curve" smooth="yes"/>
      <point x="152.852" y="352.365"/>
      <point x="159.635" y="359.147"/>
    </contour>
    <contour>
      <point x="256" y="359.147" type="curve" smooth="yes"/>
      <point x="264.365" y="359.147"/>
      <point x="271.147" y="352.365"/>
      <point x="271.147" y="344" type="curve" smooth="yes"/>
      <point x="271.147" y="335.634"/>
      <point x="264.365" y="328.852"/>
      <point x="256" y="328.852" type="curve" smooth="yes"/>
      <point x="247.635" y="328.852"/>
      <point x="240.852" y="335.634"/>
      <point x="240.852" y="344" type="curve" smooth="yes"/>
      <point x="240.852" y="352.365"/>
      <point x="247.635" y="359.147"/>
    </contour>
    <contour>
      <point x="344" y="359.147" type="curve" smooth="yes"/>
      <point x="352.365" y="359.147"/>
      <point x="359.147" y="352.365"/>
      <point x="359.147" y="344" type="curve" smooth="yes"/>
      <point x="359.147" y="335.634"/>
      <point x="352.365" y="328.852"/>
      <point x="344" y="328.852" type="curve" smooth="yes"/>
      <point x="335.635" y="328.852"/>
      <point x="328.853" y="335.634"/>
      <point x="328.853" y="344" type="curve" smooth="yes"/>
      <point x="328.853" y="352.365"/>
      <point x="335.635" y="359.147"/>
    </contour>
  </outline>
</glyph>
<glyph name="014-search-icon" format="2">
  <advance width="512"/>
  <unicode hex="F10D"/>
  <outline>
    <contour>
      <point x="199.549" y="66.9668" type="line"/>
      <point x="91.023" y="66.9668"/>
      <point x="2.189" y="151.828"/>
      <point x="2.189" y="256.434" type="curve" smooth="yes"/>
      <point x="2.189" y="360.62"/>
      <point x="91.023" y="445.9"/>
      <point x="199.549" y="445.9" type="curve" smooth="yes"/>
      <point x="308.513" y="445.9"/>
      <point x="396.909" y="361.039"/>
      <point x="396.909" y="256.434" type="curve" smooth="yes"/>
      <point x="396.909" y="210.642"/>
      <point x="379.405" y="168.212"/>
      <point x="350.961" y="135.444" type="curve"/>
      <point x="504.123" y="-11.5912" type="line" smooth="yes"/>
      <point x="511.125" y="-18.3129"/>
      <point x="511.125" y="-29.2357"/>
      <point x="504.123" y="-35.9574" type="curve" smooth="yes"/>
      <point x="500.622" y="-39.3187"/>
      <point x="496.246" y="-40.9984"/>
      <point x="491.432" y="-40.9984" type="curve" smooth="yes"/>
      <point x="486.619" y="-40.9984"/>
      <point x="482.243" y="-39.3187"/>
      <point x="478.742" y="-35.9574" type="curve" smooth="yes"/>
      <point x="325.579" y="111.079" type="line"/>
      <point x="291.446" y="83.3511"/>
      <point x="247.685" y="66.9673"/>
      <point x="199.549" y="66.9673" type="curve"/>
    </contour>
    <contour>
      <point x="199.549" y="411.451" type="curve" smooth="yes"/>
      <point x="110.715" y="411.451"/>
      <point x="38.072" y="341.714"/>
      <point x="38.072" y="256.433" type="curve" smooth="yes"/>
      <point x="38.072" y="171.152"/>
      <point x="110.277" y="101.414"/>
      <point x="199.549" y="101.414" type="curve" smooth="yes"/>
      <point x="288.821" y="101.414"/>
      <point x="361.026" y="170.731"/>
      <point x="361.026" y="256.433" type="curve" smooth="yes"/>
      <point x="361.026" y="341.713"/>
      <point x="288.821" y="411.451"/>
    </contour>
  </outline>
</glyph>
<glyph name="015-breakfast-group" format="2">
  <advance width="512"/>
  <unicode hex="F10E"/>
  <outline>
    <contour>
      <point x="489.5" y="238" type="line"/>
      <point x="501.906" y="238"/>
      <point x="512" y="227.906"/>
      <point x="512" y="215.5" type="curve" smooth="yes"/>
      <point x="512" y="203.094"/>
      <point x="501.906" y="193"/>
      <point x="489.5" y="193" type="curve" smooth="yes"/>
      <point x="458.5" y="193" type="line"/>
      <point x="458.5" y="190.5" type="line" smooth="yes"/>
      <point x="458.5" y="175.336"/>
      <point x="446.164" y="163"/>
      <point x="431" y="163" type="curve" smooth="yes"/>
      <point x="81" y="163" type="line" smooth="yes"/>
      <point x="65.8359" y="163"/>
      <point x="53.5" y="175.336"/>
      <point x="53.5" y="190.5" type="curve" smooth="yes"/>
      <point x="53.5" y="193" type="line"/>
      <point x="22.5" y="193" type="line" smooth="yes"/>
      <point x="10.0938" y="193"/>
      <point x="0" y="203.094"/>
      <point x="0" y="215.5" type="curve" smooth="yes"/>
      <point x="0" y="227.906"/>
      <point x="10.0938" y="238"/>
      <point x="22.5" y="238" type="curve" smooth="yes"/>
      <point x="94.5195" y="238" type="line"/>
      <point x="92.5937" y="241.754"/>
      <point x="91.5" y="246"/>
      <point x="91.5" y="250.5" type="curve" smooth="yes"/>
      <point x="91.5" y="290.5" type="line" smooth="yes"/>
      <point x="91.5" y="301.418"/>
      <point x="97.8945" y="310.867"/>
      <point x="107.137" y="315.305" type="curve"/>
      <point x="97.539" y="324.004"/>
      <point x="91.5039" y="336.559"/>
      <point x="91.5039" y="350.5" type="curve" smooth="yes"/>
      <point x="91.5039" y="374.141"/>
      <point x="108.863" y="393.797"/>
      <point x="131.504" y="397.402" type="curve"/>
      <point x="131.504" y="440.5" type="line" smooth="yes"/>
      <point x="131.504" y="444.645"/>
      <point x="134.859" y="448"/>
      <point x="139.004" y="448" type="curve" smooth="yes"/>
      <point x="143.144" y="448"/>
      <point x="146.504" y="444.645"/>
      <point x="146.504" y="440.5" type="curve" smooth="yes"/>
      <point x="146.504" y="397.402" type="line"/>
      <point x="169.141" y="393.797"/>
      <point x="186.504" y="374.141"/>
      <point x="186.504" y="350.5" type="curve" smooth="yes"/>
      <point x="186.504" y="336.559"/>
      <point x="180.465" y="324.004"/>
      <point x="170.867" y="315.305" type="curve"/>
      <point x="180.105" y="310.867"/>
      <point x="186.504" y="301.418"/>
      <point x="186.504" y="290.5" type="curve" smooth="yes"/>
      <point x="186.504" y="250.5" type="line" smooth="yes"/>
      <point x="186.504" y="246"/>
      <point x="185.406" y="241.754"/>
      <point x="183.484" y="238" type="curve"/>
      <point x="211.52" y="238" type="line"/>
      <point x="209.594" y="241.754"/>
      <point x="208.5" y="246"/>
      <point x="208.5" y="250.5" type="curve" smooth="yes"/>
      <point x="208.5" y="290.5" type="line" smooth="yes"/>
      <point x="208.5" y="301.414"/>
      <point x="214.895" y="310.867"/>
      <point x="224.137" y="315.305" type="curve"/>
      <point x="214.539" y="324.004"/>
      <point x="208.5" y="336.559"/>
      <point x="208.5" y="350.5" type="curve" smooth="yes"/>
      <point x="208.5" y="353.789"/>
      <point x="208.84" y="357.082"/>
      <point x="209.512" y="360.277" type="curve" smooth="yes"/>
      <point x="210.359" y="364.336"/>
      <point x="214.332" y="366.93"/>
      <point x="218.387" y="366.082" type="curve" smooth="yes"/>
      <point x="222.441" y="365.234"/>
      <point x="225.039" y="361.258"/>
      <point x="224.191" y="357.203" type="curve" smooth="yes"/>
      <point x="223.73" y="355.016"/>
      <point x="223.5" y="352.762"/>
      <point x="223.5" y="350.5" type="curve" smooth="yes"/>
      <point x="223.5" y="332.578"/>
      <point x="238.078" y="318"/>
      <point x="256" y="318" type="curve" smooth="yes"/>
      <point x="273.922" y="318"/>
      <point x="288.5" y="332.578"/>
      <point x="288.5" y="350.5" type="curve" smooth="yes"/>
      <point x="288.5" y="368.422"/>
      <point x="273.922" y="383"/>
      <point x="256" y="383" type="curve" smooth="yes"/>
      <point x="249.871" y="383"/>
      <point x="243.902" y="381.285"/>
      <point x="238.742" y="378.047" type="curve" smooth="yes"/>
      <point x="235.234" y="375.84"/>
      <point x="230.605" y="376.898"/>
      <point x="228.402" y="380.406" type="curve" smooth="yes"/>
      <point x="226.199" y="383.914"/>
      <point x="227.258" y="388.543"/>
      <point x="230.766" y="390.746" type="curve" smooth="yes"/>
      <point x="236.188" y="394.152"/>
      <point x="242.219" y="396.402"/>
      <point x="248.5" y="397.402" type="curve"/>
      <point x="248.5" y="440.5" type="line" smooth="yes"/>
      <point x="248.5" y="444.645"/>
      <point x="251.859" y="448"/>
      <point x="256" y="448" type="curve" smooth="yes"/>
      <point x="260.145" y="448"/>
      <point x="263.5" y="444.645"/>
      <point x="263.5" y="440.5" type="curve" smooth="yes"/>
      <point x="263.5" y="397.402" type="line"/>
      <point x="286.141" y="393.797"/>
      <point x="303.5" y="374.141"/>
      <point x="303.5" y="350.5" type="curve" smooth="yes"/>
      <point x="303.5" y="336.559"/>
      <point x="297.465" y="324.004"/>
      <point x="287.867" y="315.305" type="curve"/>
      <point x="297.106" y="310.867"/>
      <point x="303.5" y="301.418"/>
      <point x="303.5" y="290.5" type="curve" smooth="yes"/>
      <point x="303.5" y="250.5" type="line" smooth="yes"/>
      <point x="303.5" y="246"/>
      <point x="302.406" y="241.754"/>
      <point x="300.484" y="238" type="curve"/>
      <point x="328.52" y="238" type="line"/>
      <point x="326.594" y="241.754"/>
      <point x="325.5" y="246"/>
      <point x="325.5" y="250.5" type="curve" smooth="yes"/>
      <point x="325.5" y="257.418" type="line" smooth="yes"/>
      <point x="325.5" y="261.559"/>
      <point x="328.86" y="264.918"/>
      <point x="333" y="264.918" type="curve" smooth="yes"/>
      <point x="337.141" y="264.918"/>
      <point x="340.5" y="261.559"/>
      <point x="340.5" y="257.418" type="curve" smooth="yes"/>
      <point x="340.5" y="250.5" type="line" smooth="yes"/>
      <point x="340.5" y="243.605"/>
      <point x="346.106" y="238"/>
      <point x="353" y="238" type="curve" smooth="yes"/>
      <point x="393" y="238" type="line" smooth="yes"/>
      <point x="399.895" y="238"/>
      <point x="405.5" y="243.605"/>
      <point x="405.5" y="250.5" type="curve" smooth="yes"/>
      <point x="405.5" y="290.5" type="line" smooth="yes"/>
      <point x="405.5" y="297.395"/>
      <point x="399.895" y="303"/>
      <point x="393" y="303" type="curve" smooth="yes"/>
      <point x="353" y="303" type="line" smooth="yes"/>
      <point x="346.106" y="303"/>
      <point x="340.5" y="297.395"/>
      <point x="340.5" y="290.5" type="curve" smooth="yes"/>
      <point x="340.5" y="289.418" type="line" smooth="yes"/>
      <point x="340.5" y="285.273"/>
      <point x="337.141" y="281.918"/>
      <point x="333" y="281.918" type="curve" smooth="yes"/>
      <point x="328.86" y="281.918"/>
      <point x="325.5" y="285.273"/>
      <point x="325.5" y="289.418" type="curve" smooth="yes"/>
      <point x="325.5" y="290.5" type="line" smooth="yes"/>
      <point x="325.5" y="301.414"/>
      <point x="331.895" y="310.867"/>
      <point x="341.137" y="315.305" type="curve"/>
      <point x="331.539" y="324.004"/>
      <point x="325.5" y="336.559"/>
      <point x="325.5" y="350.5" type="curve" smooth="yes"/>
      <point x="325.5" y="374.141"/>
      <point x="342.86" y="393.797"/>
      <point x="365.5" y="397.402" type="curve"/>
      <point x="365.5" y="440.5" type="line" smooth="yes"/>
      <point x="365.5" y="444.645"/>
      <point x="368.86" y="448"/>
      <point x="373" y="448" type="curve" smooth="yes"/>
      <point x="377.141" y="448"/>
      <point x="380.5" y="444.645"/>
      <point x="380.5" y="440.5" type="curve" smooth="yes"/>
      <point x="380.5" y="397.402" type="line"/>
      <point x="403.141" y="393.797"/>
      <point x="420.5" y="374.141"/>
      <point x="420.5" y="350.5" type="curve" smooth="yes"/>
      <point x="420.5" y="336.559"/>
      <point x="414.461" y="324.004"/>
      <point x="404.863" y="315.305" type="curve"/>
      <point x="414.106" y="310.867"/>
      <point x="420.5" y="301.418"/>
      <point x="420.5" y="290.5" type="curve" smooth="yes"/>
      <point x="420.5" y="250.5" type="line" smooth="yes"/>
      <point x="420.5" y="246"/>
      <point x="419.406" y="241.754"/>
      <point x="417.481" y="238" type="curve"/>
      <point x="489.5" y="238" type="line"/>
    </contour>
    <contour>
      <point x="373" y="383" type="curve" smooth="yes"/>
      <point x="355.078" y="383"/>
      <point x="340.5" y="368.422"/>
      <point x="340.5" y="350.5" type="curve" smooth="yes"/>
      <point x="340.5" y="332.578"/>
      <point x="355.078" y="318"/>
      <point x="373" y="318" type="curve" smooth="yes"/>
      <point x="390.922" y="318"/>
      <point x="405.5" y="332.578"/>
      <point x="405.5" y="350.5" type="curve" smooth="yes"/>
      <point x="405.5" y="368.422"/>
      <point x="390.922" y="383"/>
    </contour>
    <contour>
      <point x="223.5" y="250.5" type="line" smooth="yes"/>
      <point x="223.5" y="243.605"/>
      <point x="229.105" y="238"/>
      <point x="236" y="238" type="curve" smooth="yes"/>
      <point x="276" y="238" type="line" smooth="yes"/>
      <point x="282.895" y="238"/>
      <point x="288.5" y="243.605"/>
      <point x="288.5" y="250.5" type="curve" smooth="yes"/>
      <point x="288.5" y="290.5" type="line" smooth="yes"/>
      <point x="288.5" y="297.395"/>
      <point x="282.895" y="303"/>
      <point x="276" y="303" type="curve" smooth="yes"/>
      <point x="236" y="303" type="line" smooth="yes"/>
      <point x="229.105" y="303"/>
      <point x="223.5" y="297.395"/>
      <point x="223.5" y="290.5" type="curve" smooth="yes"/>
    </contour>
    <contour>
      <point x="139" y="383" type="curve" smooth="yes"/>
      <point x="121.078" y="383"/>
      <point x="106.5" y="368.422"/>
      <point x="106.5" y="350.5" type="curve" smooth="yes"/>
      <point x="106.5" y="332.578"/>
      <point x="121.078" y="318"/>
      <point x="139" y="318" type="curve" smooth="yes"/>
      <point x="156.922" y="318"/>
      <point x="171.5" y="332.578"/>
      <point x="171.5" y="350.5" type="curve" smooth="yes"/>
      <point x="171.5" y="368.422"/>
      <point x="156.922" y="383"/>
    </contour>
    <contour>
      <point x="106.5" y="250.5" type="line" smooth="yes"/>
      <point x="106.5" y="243.605"/>
      <point x="112.105" y="238"/>
      <point x="119" y="238" type="curve" smooth="yes"/>
      <point x="159" y="238" type="line" smooth="yes"/>
      <point x="165.895" y="238"/>
      <point x="171.5" y="243.605"/>
      <point x="171.5" y="250.5" type="curve" smooth="yes"/>
      <point x="171.5" y="290.5" type="line" smooth="yes"/>
      <point x="171.5" y="297.395"/>
      <point x="165.895" y="303"/>
      <point x="159" y="303" type="curve" smooth="yes"/>
      <point x="119" y="303" type="line" smooth="yes"/>
      <point x="112.105" y="303"/>
      <point x="106.5" y="297.395"/>
      <point x="106.5" y="290.5" type="curve" smooth="yes"/>
    </contour>
    <contour>
      <point x="489.5" y="208" type="line" smooth="yes"/>
      <point x="493.637" y="208"/>
      <point x="497" y="211.363"/>
      <point x="497" y="215.5" type="curve" smooth="yes"/>
      <point x="497" y="219.637"/>
      <point x="493.637" y="223"/>
      <point x="489.5" y="223" type="curve" smooth="yes"/>
      <point x="22.5" y="223" type="line" smooth="yes"/>
      <point x="18.3633" y="223"/>
      <point x="15" y="219.637"/>
      <point x="15" y="215.5" type="curve" smooth="yes"/>
      <point x="15" y="211.363"/>
      <point x="18.3633" y="208"/>
      <point x="22.5" y="208" type="curve" smooth="yes"/>
      <point x="96.168" y="208" type="line" smooth="yes"/>
      <point x="100.309" y="208"/>
      <point x="103.668" y="204.645"/>
      <point x="103.668" y="200.5" type="curve" smooth="yes"/>
      <point x="103.668" y="196.355"/>
      <point x="100.309" y="193"/>
      <point x="96.168" y="193" type="curve" smooth="yes"/>
      <point x="68.5" y="193" type="line"/>
      <point x="68.5" y="190.5" type="line" smooth="yes"/>
      <point x="68.5" y="183.605"/>
      <point x="74.1055" y="178"/>
      <point x="81" y="178" type="curve" smooth="yes"/>
      <point x="431" y="178" type="line" smooth="yes"/>
      <point x="437.895" y="178"/>
      <point x="443.5" y="183.605"/>
      <point x="443.5" y="190.5" type="curve" smooth="yes"/>
      <point x="443.5" y="193" type="line"/>
      <point x="128.168" y="193" type="line" smooth="yes"/>
      <point x="124.023" y="193"/>
      <point x="120.668" y="196.355"/>
      <point x="120.668" y="200.5" type="curve" smooth="yes"/>
      <point x="120.668" y="204.645"/>
      <point x="124.023" y="208"/>
      <point x="128.168" y="208" type="curve" smooth="yes"/>
    </contour>
    <contour>
      <point x="489.5" y="208" type="move" smooth="yes"/>
    </contour>
  </outline>
</glyph>
<glyph name="016-coins" format="2">
  <advance width="512"/>
  <unicode hex="F10F"/>
  <outline>
    <contour>
      <point x="511.906" y="268.8" type="line"/>
      <point x="512" y="268.8" type="line"/>
      <point x="512" y="209.101" type="line" smooth="yes"/>
      <point x="511.957" y="193.032"/>
      <point x="491.434" y="180.429"/>
      <point x="460.8" y="171.008" type="curve"/>
      <point x="460.8" y="115.235" type="line" smooth="yes"/>
      <point x="460.8" y="112.58"/>
      <point x="460.211" y="110.021"/>
      <point x="459.135" y="107.554" type="curve"/>
      <point x="476.749" y="100.258"/>
      <point x="485.666" y="91.5285"/>
      <point x="486.263" y="81.0666" type="curve"/>
      <point x="486.4" y="81.0666" type="line"/>
      <point x="486.4" y="21.3674" type="line" smooth="yes"/>
      <point x="486.323" y="-7.02216"/>
      <point x="422.426" y="-24.6521"/>
      <point x="351.42" y="-32.8787" type="curve" smooth="yes"/>
      <point x="350.9" y="-32.9812"/>
      <point x="350.421" y="-33.1941"/>
      <point x="349.866" y="-33.1941" type="curve" smooth="yes"/>
      <point x="349.704" y="-33.1941"/>
      <point x="349.569" y="-33.1091"/>
      <point x="349.406" y="-33.1091" type="curve" smooth="yes"/>
      <point x="335.719" y="-34.6619"/>
      <point x="321.809" y="-35.8572"/>
      <point x="308.045" y="-36.7185" type="curve" smooth="yes"/>
      <point x="307.755" y="-36.7439"/>
      <point x="307.499" y="-36.8894"/>
      <point x="307.2" y="-36.8894" type="curve" smooth="yes"/>
      <point x="307.047" y="-36.8894"/>
      <point x="306.91" y="-36.8044"/>
      <point x="306.756" y="-36.7957" type="curve" smooth="yes"/>
      <point x="289.28" y="-37.8621"/>
      <point x="272.085" y="-38.4001"/>
      <point x="256" y="-38.4001" type="curve" smooth="yes"/>
      <point x="239.915" y="-38.4001"/>
      <point x="222.72" y="-37.8621"/>
      <point x="205.244" y="-36.8044" type="curve" smooth="yes"/>
      <point x="205.09" y="-36.8123"/>
      <point x="204.962" y="-36.8982"/>
      <point x="204.8" y="-36.8982" type="curve" smooth="yes"/>
      <point x="204.501" y="-36.8982"/>
      <point x="204.245" y="-36.7615"/>
      <point x="203.955" y="-36.7273" type="curve" smooth="yes"/>
      <point x="190.192" y="-35.865"/>
      <point x="176.281" y="-34.6619"/>
      <point x="162.594" y="-33.1179" type="curve" smooth="yes"/>
      <point x="162.432" y="-33.1257"/>
      <point x="162.296" y="-33.2117"/>
      <point x="162.134" y="-33.2117" type="curve" smooth="yes"/>
      <point x="161.579" y="-33.2117"/>
      <point x="161.101" y="-32.9978"/>
      <point x="160.58" y="-32.8962" type="curve" smooth="yes"/>
      <point x="89.5743" y="-24.6697"/>
      <point x="25.6682" y="-7.04854"/>
      <point x="25.6002" y="21.3333" type="curve" smooth="yes"/>
      <point x="25.6002" y="79.9495" type="line"/>
      <point x="25.6002" y="79.9495" type="line"/>
      <point x="25.6002" y="79.9495" type="line"/>
      <point x="25.6002" y="81.0588" type="line"/>
      <point x="25.7282" y="81.0588" type="line" smooth="yes"/>
      <point x="25.8395" y="82.8674"/>
      <point x="26.2321" y="84.634"/>
      <point x="26.8639" y="86.3665" type="curve" smooth="yes"/>
      <point x="10.2067" y="94.345"/>
      <point x="0.026011" y="103.919"/>
      <point x="0.000611" y="115.209" type="curve" smooth="yes"/>
      <point x="0.000611" y="173.824" type="line"/>
      <point x="0.000611" y="173.824" type="line"/>
      <point x="0.000611" y="173.824" type="line"/>
      <point x="0.000611" y="174.934" type="line"/>
      <point x="0.0855719" y="174.934" type="line"/>
      <point x="0.913697" y="189.295"/>
      <point x="17.6647" y="200.542"/>
      <point x="51.2008" y="209.178" type="curve"/>
      <point x="51.2008" y="267.691" type="line"/>
      <point x="51.2008" y="267.691" type="line"/>
      <point x="51.2008" y="267.691" type="line"/>
      <point x="51.2008" y="268.8" type="line"/>
      <point x="51.3287" y="268.8" type="line" smooth="yes"/>
      <point x="51.4137" y="270.268"/>
      <point x="51.6695" y="271.71"/>
      <point x="52.0963" y="273.126" type="curve" smooth="yes"/>
      <point x="20.9674" y="282.573"/>
      <point x="0.0435799" y="295.262"/>
      <point x="0.0005799" y="311.476" type="curve" smooth="yes"/>
      <point x="0.0005799" y="370.091" type="line"/>
      <point x="0.0005799" y="370.091" type="line"/>
      <point x="0.0005799" y="370.091" type="line"/>
      <point x="0.0005799" y="371.2" type="line"/>
      <point x="0.146088" y="371.2" type="line"/>
      <point x="3.20078" y="420.933"/>
      <point x="206.994" y="422.401"/>
      <point x="230.401" y="422.401" type="curve" smooth="yes"/>
      <point x="253.807" y="422.401"/>
      <point x="457.6" y="420.933"/>
      <point x="460.656" y="371.2" type="curve"/>
      <point x="460.801" y="371.2" type="line"/>
      <point x="460.801" y="311.501" type="line" smooth="yes"/>
      <point x="460.792" y="308.737"/>
      <point x="460.136" y="306.073"/>
      <point x="458.967" y="303.514" type="curve"/>
      <point x="493.697" y="294.81"/>
      <point x="511.062" y="283.401"/>
      <point x="511.907" y="268.8" type="curve"/>
    </contour>
    <contour>
      <point x="442.812" y="112.461" type="line" smooth="yes"/>
      <point x="443.41" y="113.434"/>
      <point x="443.734" y="114.372"/>
      <point x="443.734" y="115.251" type="curve" smooth="yes"/>
      <point x="443.734" y="150.563" type="line"/>
      <point x="436.916" y="146.27"/>
      <point x="428.28" y="142.354"/>
      <point x="418.134" y="138.82" type="curve"/>
      <point x="418.134" y="98.1338" type="line"/>
      <point x="427.956" y="101.974"/>
      <point x="435.422" y="105.958"/>
      <point x="439.903" y="109.909" type="curve" smooth="yes"/>
    </contour>
    <contour>
      <point x="251.955" y="72.8066" type="line"/>
      <point x="257.237" y="72.9345"/>
      <point x="262.426" y="73.1054"/>
      <point x="267.562" y="73.3359" type="curve" smooth="yes"/>
      <point x="269.414" y="73.4121"/>
      <point x="271.249" y="73.498"/>
      <point x="273.075" y="73.5918" type="curve" smooth="yes"/>
      <point x="273.075" y="116.198" type="line"/>
      <point x="264.524" y="115.806"/>
      <point x="255.932" y="115.541"/>
      <point x="247.339" y="115.379" type="curve" smooth="yes"/>
      <point x="246.887" y="115.371"/>
      <point x="246.435" y="115.362"/>
      <point x="245.981" y="115.353" type="curve" smooth="yes"/>
      <point x="243.635" y="115.31"/>
      <point x="241.288" y="115.276"/>
      <point x="238.941" y="115.251" type="curve" smooth="yes"/>
      <point x="238.941" y="72.6269" type="line"/>
      <point x="242.031" y="72.6523"/>
      <point x="245.154" y="72.6699"/>
      <point x="248.2" y="72.7294" type="curve" smooth="yes"/>
      <point x="249.455" y="72.7548"/>
      <point x="250.709" y="72.7724"/>
      <point x="251.955" y="72.8066" type="curve"/>
    </contour>
    <contour>
      <point x="214.69" y="72.6865" type="line" smooth="yes"/>
      <point x="215.432" y="72.6787"/>
      <point x="216.158" y="72.6523"/>
      <point x="216.909" y="72.6357" type="curve" smooth="yes"/>
      <point x="218.555" y="72.6103"/>
      <point x="220.211" y="72.6103"/>
      <point x="221.866" y="72.5927" type="curve"/>
      <point x="221.866" y="115.242" type="line" smooth="yes"/>
      <point x="219.519" y="115.269"/>
      <point x="217.172" y="115.303"/>
      <point x="214.827" y="115.345" type="curve" smooth="yes"/>
      <point x="214.382" y="115.353"/>
      <point x="213.93" y="115.362"/>
      <point x="213.478" y="115.371" type="curve" smooth="yes"/>
      <point x="204.885" y="115.524"/>
      <point x="196.292" y="115.789"/>
      <point x="187.742" y="116.189" type="curve"/>
      <point x="187.742" y="73.5917" type="line"/>
      <point x="192.324" y="73.3691"/>
      <point x="196.94" y="73.1728"/>
      <point x="201.591" y="73.0194" type="curve" smooth="yes"/>
      <point x="202.069" y="73.0028"/>
      <point x="202.546" y="72.9853"/>
      <point x="203.025" y="72.9687" type="curve" smooth="yes"/>
      <point x="206.89" y="72.8486"/>
      <point x="210.782" y="72.7548"/>
      <point x="214.69" y="72.6864" type="curve" smooth="yes"/>
    </contour>
    <contour>
      <point x="60.5615" y="92.1426" type="line" smooth="yes"/>
      <point x="61.5762" y="91.8447"/>
      <point x="62.6513" y="91.5625"/>
      <point x="63.6924" y="91.2637" type="curve" smooth="yes"/>
      <point x="70.2724" y="89.4717"/>
      <point x="77.5" y="87.7227"/>
      <point x="85.333" y="86.0586" type="curve"/>
      <point x="85.333" y="127.71" type="line"/>
      <point x="76.2705" y="129.493"/>
      <point x="67.7031" y="131.456"/>
      <point x="59.7334" y="133.606" type="curve"/>
      <point x="59.7334" y="92.3819" type="line" smooth="yes"/>
      <point x="60.0146" y="92.3047"/>
      <point x="60.2793" y="92.2286"/>
      <point x="60.5615" y="92.1426" type="curve" smooth="yes"/>
    </contour>
    <contour>
      <point x="240.427" y="21.4785" type="line" smooth="yes"/>
      <point x="239.975" y="21.4873"/>
      <point x="239.523" y="21.4951"/>
      <point x="239.071" y="21.4951" type="curve" smooth="yes"/>
      <point x="230.477" y="21.6494"/>
      <point x="221.884" y="21.914"/>
      <point x="213.333" y="22.3144" type="curve"/>
      <point x="213.333" y="-20.292" type="line"/>
      <point x="224.29" y="-20.83"/>
      <point x="235.674" y="-21.1709"/>
      <point x="247.467" y="-21.2822" type="curve"/>
      <point x="247.467" y="21.376" type="line" smooth="yes"/>
      <point x="245.12" y="21.4014"/>
      <point x="242.774" y="21.4356"/>
      <point x="240.427" y="21.4785" type="curve" smooth="yes"/>
    </contour>
    <contour>
      <point x="272.93" y="21.5039" type="line" smooth="yes"/>
      <point x="272.478" y="21.4951"/>
      <point x="272.026" y="21.4873"/>
      <point x="271.574" y="21.4873" type="curve" smooth="yes"/>
      <point x="269.227" y="21.4443"/>
      <point x="266.88" y="21.4102"/>
      <point x="264.534" y="21.3848" type="curve" smooth="yes"/>
      <point x="264.534" y="-21.2734" type="line"/>
      <point x="276.327" y="-21.1631"/>
      <point x="287.71" y="-20.8213"/>
      <point x="298.667" y="-20.2842" type="curve"/>
      <point x="298.667" y="22.3232" type="line"/>
      <point x="290.117" y="21.9306"/>
      <point x="281.524" y="21.666"/>
      <point x="272.93" y="21.5039" type="curve"/>
    </contour>
    <contour>
      <point x="341.333" y="25.3613" type="line" smooth="yes"/>
      <point x="332.937" y="24.5508"/>
      <point x="324.386" y="23.8593"/>
      <point x="315.733" y="23.2959" type="curve"/>
      <point x="315.733" y="-19.2598" type="line"/>
      <point x="324.6" y="-18.6368"/>
      <point x="333.133" y="-17.877"/>
      <point x="341.333" y="-17.0157" type="curve"/>
      <point x="341.333" y="25.3613" type="line"/>
    </contour>
    <contour>
      <point x="358.4" y="27.2041" type="line"/>
      <point x="358.4" y="-15.002" type="line"/>
      <point x="367.42" y="-13.8155"/>
      <point x="375.962" y="-12.5098"/>
      <point x="384" y="-11.0938" type="curve"/>
      <point x="384" y="30.8056" type="line"/>
      <point x="375.739" y="29.4658"/>
      <point x="367.198" y="28.2626"/>
      <point x="358.4" y="27.204" type="curve"/>
    </contour>
    <contour>
      <point x="401.066" y="33.8516" type="line"/>
      <point x="401.066" y="-7.7998" type="line"/>
      <point x="410.504" y="-5.79394"/>
      <point x="419.063" y="-3.66894"/>
      <point x="426.667" y="-1.47656" type="curve"/>
      <point x="426.667" y="39.748" type="line"/>
      <point x="418.696" y="37.5976"/>
      <point x="410.128" y="35.6348"/>
      <point x="401.066" y="33.8516" type="curve"/>
    </contour>
    <contour>
      <point x="110.934" y="33.8516" type="line"/>
      <point x="101.871" y="35.627"/>
      <point x="93.3041" y="37.5977"/>
      <point x="85.3334" y="39.7481" type="curve"/>
      <point x="85.3334" y="-1.47652" type="line"/>
      <point x="92.9369" y="-3.6689"/>
      <point x="101.495" y="-5.7939"/>
      <point x="110.934" y="-7.79976" type="curve"/>
      <point x="110.934" y="33.8516" type="line"/>
    </contour>
    <contour>
      <point x="128" y="30.7969" type="line"/>
      <point x="128" y="-11.1015" type="line"/>
      <point x="136.038" y="-12.5185"/>
      <point x="144.58" y="-13.8242"/>
      <point x="153.6" y="-15.0097" type="curve"/>
      <point x="153.6" y="27.1954" type="line"/>
      <point x="144.802" y="28.254"/>
      <point x="136.261" y="29.4571"/>
      <point x="128" y="30.797" type="curve"/>
    </contour>
    <contour>
      <point x="170.667" y="25.3613" type="line"/>
      <point x="170.667" y="-17.0244" type="line"/>
      <point x="178.867" y="-17.8857"/>
      <point x="187.4" y="-18.6455"/>
      <point x="196.267" y="-19.2685" type="curve"/>
      <point x="196.267" y="23.2872" type="line"/>
      <point x="187.614" y="23.8594"/>
      <point x="179.064" y="24.5508"/>
      <point x="170.667" y="25.3614" type="curve"/>
    </contour>
    <contour>
      <point x="149.495" y="76.3906" type="line"/>
      <point x="156.416" y="75.7158"/>
      <point x="163.499" y="75.1357"/>
      <point x="170.667" y="74.624" type="curve"/>
      <point x="170.667" y="117.146" type="line"/>
      <point x="162.014" y="117.718"/>
      <point x="153.464" y="118.408"/>
      <point x="145.066" y="119.219" type="curve"/>
      <point x="145.066" y="76.8515" type="line" smooth="yes"/>
      <point x="145.681" y="76.791"/>
      <point x="146.287" y="76.7148"/>
      <point x="146.901" y="76.6553" type="curve" smooth="yes"/>
      <point x="147.764" y="76.5693"/>
      <point x="148.625" y="76.4756"/>
      <point x="149.495" y="76.3906" type="curve"/>
    </contour>
    <contour>
      <point x="128" y="121.071" type="line"/>
      <point x="119.202" y="122.12"/>
      <point x="110.66" y="123.332"/>
      <point x="102.4" y="124.672" type="curve"/>
      <point x="102.4" y="82.7732" type="line"/>
      <point x="110.438" y="81.3562"/>
      <point x="118.981" y="80.0505"/>
      <point x="128" y="78.865" type="curve"/>
      <point x="128" y="121.071" type="line"/>
    </contour>
    <contour>
      <point x="295.816" y="75.0254" type="line"/>
      <point x="297.053" y="75.1192"/>
      <point x="298.291" y="75.2129"/>
      <point x="299.528" y="75.3242" type="curve" smooth="yes"/>
      <point x="305.066" y="75.7764"/>
      <point x="310.46" y="76.2969"/>
      <point x="315.733" y="76.8516" type="curve"/>
      <point x="315.733" y="119.228" type="line"/>
      <point x="307.337" y="118.408"/>
      <point x="298.786" y="117.726"/>
      <point x="290.133" y="117.154" type="curve"/>
      <point x="290.133" y="74.5986" type="line"/>
      <point x="292.045" y="74.7353"/>
      <point x="293.939" y="74.8799"/>
      <point x="295.816" y="75.0254" type="curve"/>
    </contour>
    <contour>
      <point x="332.8" y="78.8652" type="line" smooth="yes"/>
      <point x="341.82" y="80.0429"/>
      <point x="350.362" y="81.3564"/>
      <point x="358.401" y="82.7734" type="curve"/>
      <point x="358.401" y="124.672" type="line"/>
      <point x="350.14" y="123.332"/>
      <point x="341.598" y="122.129"/>
      <point x="332.8" y="121.071" type="curve"/>
      <point x="332.8" y="78.8651" type="line"/>
    </contour>
    <contour>
      <point x="375.467" y="127.719" type="line"/>
      <point x="375.467" y="86.0676" type="line"/>
      <point x="384.904" y="88.0725"/>
      <point x="393.464" y="90.1975"/>
      <point x="401.067" y="92.3908" type="curve"/>
      <point x="401.067" y="133.615" type="line"/>
      <point x="393.097" y="131.465"/>
      <point x="384.529" y="129.502"/>
      <point x="375.467" y="127.719" type="curve"/>
    </contour>
    <contour>
      <point x="258.773" y="166.698" type="line"/>
      <point x="259.396" y="166.681"/>
      <point x="260.036" y="166.673"/>
      <point x="260.659" y="166.656" type="curve" smooth="yes"/>
      <point x="264.712" y="166.562"/>
      <point x="268.902" y="166.545"/>
      <point x="273.058" y="166.502" type="curve"/>
      <point x="273.058" y="209.109" type="line" smooth="yes"/>
      <point x="270.711" y="209.135"/>
      <point x="268.365" y="209.169"/>
      <point x="266.018" y="209.212" type="curve" smooth="yes"/>
      <point x="265.574" y="209.22"/>
      <point x="265.122" y="209.228"/>
      <point x="264.669" y="209.237" type="curve" smooth="yes"/>
      <point x="256.077" y="209.39"/>
      <point x="247.483" y="209.655"/>
      <point x="238.933" y="210.056" type="curve"/>
      <point x="238.933" y="167.449" type="line" smooth="yes"/>
      <point x="239.257" y="167.441"/>
      <point x="239.59" y="167.424"/>
      <point x="239.922" y="167.407" type="curve" smooth="yes"/>
      <point x="246.084" y="167.108"/>
      <point x="252.356" y="166.86"/>
      <point x="258.773" y="166.698" type="curve"/>
    </contour>
    <contour>
      <point x="59.7334" y="288.648" type="line"/>
      <point x="62.6856" y="287.803"/>
      <point x="65.749" y="286.959"/>
      <point x="68.9746" y="286.13" type="curve" smooth="yes"/>
      <point x="73.207" y="285.03"/>
      <point x="77.6367" y="283.989"/>
      <point x="82.1758" y="282.991" type="curve" smooth="yes"/>
      <point x="83.2002" y="282.769"/>
      <point x="84.2842" y="282.546"/>
      <point x="85.333" y="282.325" type="curve"/>
      <point x="85.333" y="323.976" type="line"/>
      <point x="76.2705" y="325.759"/>
      <point x="67.7031" y="327.722"/>
      <point x="59.7334" y="329.873" type="curve"/>
      <point x="59.7334" y="288.648" type="line"/>
    </contour>
    <contour>
      <point x="214.827" y="311.611" type="line" smooth="yes"/>
      <point x="214.374" y="311.62"/>
      <point x="213.922" y="311.629"/>
      <point x="213.47" y="311.629" type="curve" smooth="yes"/>
      <point x="204.877" y="311.782"/>
      <point x="196.284" y="312.047"/>
      <point x="187.733" y="312.448" type="curve"/>
      <point x="187.733" y="269.875" type="line"/>
      <point x="198.963" y="269.311"/>
      <point x="210.381" y="269.013"/>
      <point x="221.866" y="268.902" type="curve"/>
      <point x="221.866" y="311.509" type="line" smooth="yes"/>
      <point x="219.519" y="311.535"/>
      <point x="217.173" y="311.569"/>
      <point x="214.827" y="311.611" type="curve" smooth="yes"/>
    </contour>
    <contour>
      <point x="247.33" y="311.638" type="line"/>
      <point x="245.974" y="311.612" type="line" smooth="yes"/>
      <point x="243.627" y="311.57"/>
      <point x="241.28" y="311.535"/>
      <point x="238.934" y="311.51" type="curve" smooth="yes"/>
      <point x="238.934" y="268.886" type="line"/>
      <point x="242.014" y="268.92"/>
      <point x="245.12" y="268.928"/>
      <point x="248.158" y="268.988" type="curve" smooth="yes"/>
      <point x="249.079" y="269.014"/>
      <point x="250.001" y="269.022"/>
      <point x="250.923" y="269.048" type="curve" smooth="yes"/>
      <point x="256.836" y="269.184"/>
      <point x="262.673" y="269.372"/>
      <point x="268.399" y="269.628" type="curve" smooth="yes"/>
      <point x="268.527" y="269.637"/>
      <point x="268.646" y="269.637"/>
      <point x="268.766" y="269.645" type="curve" smooth="yes"/>
      <point x="270.225" y="269.713"/>
      <point x="271.616" y="269.816"/>
      <point x="273.066" y="269.884" type="curve" smooth="yes"/>
      <point x="273.066" y="312.456" type="line"/>
      <point x="264.517" y="312.065"/>
      <point x="255.923" y="311.8"/>
      <point x="247.33" y="311.638" type="curve"/>
    </contour>
    <contour>
      <point x="441.779" y="307.354" type="line" smooth="yes"/>
      <point x="443.05" y="308.831"/>
      <point x="443.733" y="310.23"/>
      <point x="443.733" y="311.527" type="curve" smooth="yes"/>
      <point x="443.733" y="346.837" type="line"/>
      <point x="436.915" y="342.545"/>
      <point x="428.279" y="338.628"/>
      <point x="418.133" y="335.096" type="curve"/>
      <point x="418.133" y="294.502" type="line"/>
      <point x="427.008" y="297.933"/>
      <point x="433.928" y="301.483"/>
      <point x="438.434" y="304.991" type="curve" smooth="yes"/>
      <point x="441.54" y="307.406" type="line"/>
    </contour>
    <contour>
      <point x="332.8" y="275.183" type="line" smooth="yes"/>
      <point x="341.794" y="276.361"/>
      <point x="350.311" y="277.675"/>
      <point x="358.401" y="279.109" type="curve"/>
      <point x="358.401" y="320.939" type="line"/>
      <point x="350.14" y="319.599"/>
      <point x="341.598" y="318.396"/>
      <point x="332.8" y="317.338" type="curve"/>
      <point x="332.8" y="275.183" type="line"/>
    </contour>
    <contour>
      <point x="375.467" y="282.394" type="line"/>
      <point x="384.811" y="284.391"/>
      <point x="393.421" y="286.516"/>
      <point x="401.067" y="288.743" type="curve"/>
      <point x="401.067" y="329.874" type="line"/>
      <point x="393.097" y="327.723"/>
      <point x="384.529" y="325.76"/>
      <point x="375.467" y="323.977" type="curve"/>
      <point x="375.467" y="282.394" type="line"/>
    </contour>
    <contour>
      <point x="315.733" y="315.494" type="line"/>
      <point x="307.337" y="314.683"/>
      <point x="298.786" y="313.992"/>
      <point x="290.133" y="313.421" type="curve"/>
      <point x="290.133" y="270.908" type="line"/>
      <point x="298.957" y="271.539"/>
      <point x="307.49" y="272.299"/>
      <point x="315.733" y="273.169" type="curve"/>
    </contour>
    <contour>
      <point x="145.066" y="273.152" type="line"/>
      <point x="153.412" y="272.273"/>
      <point x="161.979" y="271.564"/>
      <point x="170.667" y="270.941" type="curve"/>
      <point x="170.667" y="313.421" type="line"/>
      <point x="162.013" y="313.992"/>
      <point x="153.464" y="314.683"/>
      <point x="145.066" y="315.494" type="curve"/>
    </contour>
    <contour>
      <point x="128" y="317.338" type="line"/>
      <point x="119.202" y="318.387"/>
      <point x="110.66" y="319.599"/>
      <point x="102.4" y="320.93" type="curve"/>
      <point x="102.4" y="279.031" type="line" smooth="yes"/>
      <point x="103.33" y="278.869"/>
      <point x="104.243" y="278.698"/>
      <point x="105.19" y="278.536" type="curve" smooth="yes"/>
      <point x="109.918" y="277.743"/>
      <point x="114.739" y="276.984"/>
      <point x="119.672" y="276.276" type="curve" smooth="yes"/>
      <point x="120.747" y="276.122"/>
      <point x="121.788" y="275.959"/>
      <point x="122.88" y="275.806" type="curve" smooth="yes"/>
      <point x="124.553" y="275.575"/>
      <point x="126.311" y="275.397"/>
      <point x="128" y="275.175" type="curve"/>
      <point x="128" y="317.338" type="line"/>
    </contour>
    <contour>
      <point x="219.75" y="168.627" type="line"/>
      <point x="220.441" y="168.576"/>
      <point x="221.176" y="168.542"/>
      <point x="221.866" y="168.49" type="curve"/>
      <point x="221.866" y="211.021" type="line"/>
      <point x="213.214" y="211.593"/>
      <point x="204.663" y="212.284"/>
      <point x="196.267" y="213.095" type="curve"/>
      <point x="196.267" y="170.718" type="line" smooth="yes"/>
      <point x="196.497" y="170.701"/>
      <point x="196.719" y="170.667"/>
      <point x="196.949" y="170.641" type="curve" smooth="yes"/>
      <point x="198.059" y="170.53"/>
      <point x="199.177" y="170.411"/>
      <point x="200.294" y="170.3" type="curve" smooth="yes"/>
      <point x="205.5" y="169.779"/>
      <point x="210.833" y="169.31"/>
      <point x="216.294" y="168.883" type="curve" smooth="yes"/>
      <point x="217.438" y="168.798"/>
      <point x="218.599" y="168.713"/>
      <point x="219.75" y="168.627" type="curve"/>
    </contour>
    <contour>
      <point x="163.371" y="175.002" type="line" smooth="yes"/>
      <point x="163.567" y="174.976"/>
      <point x="163.764" y="174.941"/>
      <point x="163.959" y="174.899" type="curve" smooth="yes"/>
      <point x="168.866" y="174.131"/>
      <point x="173.977" y="173.414"/>
      <point x="179.2" y="172.724" type="curve"/>
      <point x="179.2" y="214.929" type="line"/>
      <point x="170.402" y="215.987"/>
      <point x="161.86" y="217.191"/>
      <point x="153.599" y="218.53" type="curve"/>
      <point x="153.599" y="176.683" type="line" smooth="yes"/>
      <point x="156.817" y="176.119"/>
      <point x="159.991" y="175.539"/>
      <point x="163.371" y="175.002" type="curve" smooth="yes"/>
    </contour>
    <contour>
      <point x="136.533" y="221.585" type="line"/>
      <point x="127.47" y="223.36"/>
      <point x="118.903" y="225.331"/>
      <point x="110.933" y="227.481" type="curve"/>
      <point x="110.933" y="186.411" type="line"/>
      <point x="118.554" y="184.175"/>
      <point x="127.103" y="182.024"/>
      <point x="136.533" y="180.002" type="curve"/>
    </contour>
    <contour>
      <point x="93.8662" y="232.695" type="line"/>
      <point x="83.7207" y="236.228"/>
      <point x="75.085" y="240.145"/>
      <point x="68.2666" y="244.437" type="curve"/>
      <point x="68.2666" y="209.1" type="line" smooth="yes"/>
      <point x="68.2754" y="208.836"/>
      <point x="68.3604" y="208.554"/>
      <point x="68.4121" y="208.29" type="curve" smooth="yes"/>
      <point x="68.9834" y="207.334" type="line" smooth="yes"/>
      <point x="71.7998" y="202.624"/>
      <point x="80.4522" y="197.333"/>
      <point x="93.8662" y="192.153" type="curve"/>
      <point x="93.8662" y="232.695" type="line"/>
    </contour>
    <contour>
      <point x="298.53" y="209.237" type="line" smooth="yes"/>
      <point x="298.078" y="209.228"/>
      <point x="297.626" y="209.22"/>
      <point x="297.173" y="209.212" type="curve" smooth="yes"/>
      <point x="294.827" y="209.169"/>
      <point x="292.48" y="209.134"/>
      <point x="290.134" y="209.109" type="curve" smooth="yes"/>
      <point x="290.134" y="166.51" type="line"/>
      <point x="301.653" y="166.631"/>
      <point x="313.053" y="166.937"/>
      <point x="324.266" y="167.492" type="curve"/>
      <point x="324.266" y="210.056" type="line"/>
      <point x="315.716" y="209.664"/>
      <point x="307.123" y="209.399"/>
      <point x="298.53" y="209.237" type="curve"/>
    </contour>
    <contour>
      <point x="408.807" y="176.495" type="line"/>
      <point x="409.072" y="176.538"/>
      <point x="409.336" y="176.589"/>
      <point x="409.609" y="176.64" type="curve" smooth="yes"/>
      <point x="409.609" y="218.539" type="line"/>
      <point x="401.349" y="217.199"/>
      <point x="392.807" y="215.996"/>
      <point x="384.009" y="214.937" type="curve"/>
      <point x="384.009" y="172.774" type="line"/>
      <point x="386.202" y="173.056"/>
      <point x="388.447" y="173.32"/>
      <point x="390.605" y="173.628" type="curve" smooth="yes"/>
      <point x="392.892" y="173.952"/>
      <point x="395.17" y="174.276"/>
      <point x="397.398" y="174.617" type="curve" smooth="yes"/>
      <point x="401.281" y="175.206"/>
      <point x="405.061" y="175.847"/>
      <point x="408.807" y="176.495" type="curve"/>
    </contour>
    <contour>
      <point x="351.027" y="169.207" type="line"/>
      <point x="351.334" y="169.233"/>
      <point x="351.625" y="169.268"/>
      <point x="351.931" y="169.293" type="curve" smooth="yes"/>
      <point x="357.026" y="169.72"/>
      <point x="361.975" y="170.24"/>
      <point x="366.933" y="170.761" type="curve"/>
      <point x="366.933" y="213.095" type="line"/>
      <point x="358.536" y="212.275"/>
      <point x="349.986" y="211.593"/>
      <point x="341.333" y="211.02" type="curve"/>
      <point x="341.333" y="168.542" type="line"/>
      <point x="344.558" y="168.772"/>
      <point x="347.844" y="168.943"/>
      <point x="351.027" y="169.207" type="curve"/>
    </contour>
    <contour>
      <point x="448.546" y="185.207" type="line" smooth="yes"/>
      <point x="449.809" y="185.558"/>
      <point x="451.047" y="185.907"/>
      <point x="452.275" y="186.248" type="curve" smooth="yes"/>
      <point x="452.275" y="227.473" type="line"/>
      <point x="444.305" y="225.322"/>
      <point x="435.737" y="223.36"/>
      <point x="426.675" y="221.576" type="curve"/>
      <point x="426.675" y="179.942" type="line"/>
      <point x="427.341" y="180.088"/>
      <point x="428.041" y="180.216"/>
      <point x="428.697" y="180.36" type="curve" smooth="yes"/>
      <point x="430.916" y="180.839"/>
      <point x="433.084" y="181.333"/>
      <point x="435.209" y="181.828" type="curve" smooth="yes"/>
      <point x="439.8" y="182.912"/>
      <point x="444.297" y="184.021"/>
      <point x="448.546" y="185.207" type="curve" smooth="yes"/>
    </contour>
    <contour>
      <point x="494.84" y="268.245" type="line" smooth="yes"/>
      <point x="493.866" y="271.778"/>
      <point x="483.797" y="280.841"/>
      <point x="445.594" y="289.126" type="curve" smooth="yes"/>
      <point x="445.082" y="288.785"/>
      <point x="444.442" y="288.461"/>
      <point x="443.904" y="288.119" type="curve" smooth="yes"/>
      <point x="442.957" y="287.514"/>
      <point x="441.933" y="286.916"/>
      <point x="440.909" y="286.327" type="curve" smooth="yes"/>
      <point x="440.013" y="285.815"/>
      <point x="439.186" y="285.295"/>
      <point x="438.23" y="284.791" type="curve" smooth="yes"/>
      <point x="436.113" y="283.656"/>
      <point x="433.826" y="282.564"/>
      <point x="431.462" y="281.498" type="curve" smooth="yes"/>
      <point x="430.84" y="281.216"/>
      <point x="430.183" y="280.943"/>
      <point x="429.542" y="280.661" type="curve" smooth="yes"/>
      <point x="427.324" y="279.697"/>
      <point x="425.003" y="278.75"/>
      <point x="422.588" y="277.837" type="curve" smooth="yes"/>
      <point x="422.093" y="277.649"/>
      <point x="421.623" y="277.461"/>
      <point x="421.129" y="277.273" type="curve" smooth="yes"/>
      <point x="418.27" y="276.216"/>
      <point x="415.309" y="275.2"/>
      <point x="412.22" y="274.21" type="curve" smooth="yes"/>
      <point x="411.17" y="273.877"/>
      <point x="410.061" y="273.553"/>
      <point x="408.978" y="273.221" type="curve" smooth="yes"/>
      <point x="407.202" y="272.683"/>
      <point x="405.402" y="272.145"/>
      <point x="403.559" y="271.625" type="curve" smooth="yes"/>
      <point x="363.571" y="260.198"/>
      <point x="306.108" y="252.825"/>
      <point x="244.105" y="251.87" type="curve" smooth="yes"/>
      <point x="239.471" y="251.784"/>
      <point x="234.88" y="251.733"/>
      <point x="230.401" y="251.733" type="curve" smooth="yes"/>
      <point x="224.128" y="251.733"/>
      <point x="217.686" y="251.818"/>
      <point x="211.123" y="251.98" type="curve" smooth="yes"/>
      <point x="200.406" y="252.22"/>
      <point x="189.816" y="252.672"/>
      <point x="179.363" y="253.286" type="curve" smooth="yes"/>
      <point x="179.303" y="253.286"/>
      <point x="179.26" y="253.252"/>
      <point x="179.201" y="253.252" type="curve" smooth="yes"/>
      <point x="179.089" y="253.252"/>
      <point x="178.995" y="253.311"/>
      <point x="178.884" y="253.311" type="curve" smooth="yes"/>
      <point x="164.361" y="254.174"/>
      <point x="150.212" y="255.394"/>
      <point x="136.577" y="256.947" type="curve" smooth="yes"/>
      <point x="136.568" y="256.947"/>
      <point x="136.551" y="256.938"/>
      <point x="136.534" y="256.938" type="curve" smooth="yes"/>
      <point x="136.474" y="256.938"/>
      <point x="136.423" y="256.973"/>
      <point x="136.355" y="256.973" type="curve" smooth="yes"/>
      <point x="116.335" y="259.26"/>
      <point x="97.5452" y="262.255"/>
      <point x="80.5892" y="265.907" type="curve" smooth="yes"/>
      <point x="77.1078" y="266.641"/>
      <point x="73.6859" y="267.409"/>
      <point x="70.349" y="268.203" type="curve" smooth="yes"/>
      <point x="69.7602" y="268.348"/>
      <point x="69.1117" y="268.467"/>
      <point x="68.5317" y="268.612" type="curve" smooth="yes"/>
      <point x="68.4291" y="268.407"/>
      <point x="68.4291" y="268.27"/>
      <point x="68.3862" y="268.108" type="curve" smooth="yes"/>
      <point x="69.3598" y="262.34"/>
      <point x="82.4663" y="254.694"/>
      <point x="105.72" y="247.51" type="curve"/>
      <point x="105.72" y="247.51" type="line"/>
      <point x="135.903" y="238.183"/>
      <point x="183.152" y="229.641"/>
      <point x="243.021" y="226.995" type="curve" smooth="yes"/>
      <point x="246.077" y="226.867"/>
      <point x="249.132" y="226.73"/>
      <point x="252.263" y="226.637" type="curve" smooth="yes"/>
      <point x="254.823" y="226.552"/>
      <point x="257.383" y="226.466"/>
      <point x="259.977" y="226.406" type="curve" smooth="yes"/>
      <point x="267.043" y="226.244"/>
      <point x="274.211" y="226.134"/>
      <point x="281.6" y="226.134" type="curve" smooth="yes"/>
      <point x="288.991" y="226.134"/>
      <point x="296.159" y="226.244"/>
      <point x="303.224" y="226.397" type="curve" smooth="yes"/>
      <point x="305.827" y="226.466"/>
      <point x="308.386" y="226.543"/>
      <point x="310.938" y="226.628" type="curve" smooth="yes"/>
      <point x="314.061" y="226.73"/>
      <point x="317.117" y="226.858"/>
      <point x="320.18" y="226.986" type="curve" smooth="yes"/>
      <point x="380.049" y="229.632"/>
      <point x="427.29" y="238.174"/>
      <point x="457.481" y="247.501" type="curve"/>
      <point x="457.481" y="247.501" type="line"/>
      <point x="480.923" y="254.745"/>
      <point x="494.055" y="262.451"/>
      <point x="494.841" y="268.245" type="curve"/>
    </contour>
    <contour>
      <point x="230.4" y="405.333" type="line" smooth="yes"/>
      <point x="89.694" y="405.333"/>
      <point x="18.525" y="383.181"/>
      <point x="17.194" y="370.466" type="curve" smooth="yes"/>
      <point x="18.2272" y="364.697"/>
      <point x="31.317" y="357.077"/>
      <point x="54.5192" y="349.909" type="curve"/>
      <point x="54.5192" y="349.909" type="line"/>
      <point x="84.7018" y="340.582"/>
      <point x="131.951" y="332.041"/>
      <point x="191.82" y="329.396" type="curve" smooth="yes"/>
      <point x="194.876" y="329.268"/>
      <point x="197.931" y="329.131"/>
      <point x="201.062" y="329.037" type="curve" smooth="yes"/>
      <point x="203.622" y="328.951"/>
      <point x="206.183" y="328.866"/>
      <point x="208.776" y="328.807" type="curve" smooth="yes"/>
      <point x="215.842" y="328.645"/>
      <point x="223.01" y="328.533"/>
      <point x="230.4" y="328.533" type="curve" smooth="yes"/>
      <point x="237.79" y="328.533"/>
      <point x="244.958" y="328.645"/>
      <point x="252.023" y="328.807" type="curve" smooth="yes"/>
      <point x="254.626" y="328.875"/>
      <point x="257.186" y="328.951"/>
      <point x="259.737" y="329.037" type="curve" smooth="yes"/>
      <point x="262.86" y="329.14"/>
      <point x="265.916" y="329.268"/>
      <point x="268.979" y="329.396" type="curve" smooth="yes"/>
      <point x="328.848" y="332.041"/>
      <point x="376.089" y="340.582"/>
      <point x="406.28" y="349.909" type="curve"/>
      <point x="406.28" y="349.909" type="line"/>
      <point x="429.475" y="357.077"/>
      <point x="442.573" y="364.697"/>
      <point x="443.606" y="370.466" type="curve" smooth="yes"/>
      <point x="442.274" y="383.181"/>
      <point x="371.107" y="405.333"/>
      <point x="230.401" y="405.333" type="curve" smooth="yes"/>
    </contour>
    <contour>
      <point x="17.0664" y="311.501" type="line" smooth="yes"/>
      <point x="17.084" y="306.696"/>
      <point x="26.0693" y="300.459"/>
      <point x="42.667" y="294.238" type="curve"/>
      <point x="42.667" y="335.096" type="line"/>
      <point x="32.5205" y="338.628"/>
      <point x="23.8848" y="342.545"/>
      <point x="17.0664" y="346.837" type="curve"/>
    </contour>
    <contour>
      <point x="58.4023" y="193.408" type="line" smooth="yes"/>
      <point x="26.7353" y="185.642"/>
      <point x="18.1074" y="177.613"/>
      <point x="17.1601" y="174.404" type="curve" smooth="yes"/>
      <point x="17.9199" y="168.61"/>
      <point x="31.0527" y="160.896"/>
      <point x="54.5195" y="153.642" type="curve"/>
      <point x="54.5195" y="153.642" type="line"/>
      <point x="84.7021" y="144.315"/>
      <point x="131.951" y="135.773"/>
      <point x="191.82" y="133.129" type="curve" smooth="yes"/>
      <point x="194.876" y="133.001"/>
      <point x="197.931" y="132.864"/>
      <point x="201.063" y="132.77" type="curve" smooth="yes"/>
      <point x="203.622" y="132.684"/>
      <point x="206.183" y="132.599"/>
      <point x="208.777" y="132.54" type="curve" smooth="yes"/>
      <point x="215.842" y="132.378"/>
      <point x="223.01" y="132.266"/>
      <point x="230.401" y="132.266" type="curve" smooth="yes"/>
      <point x="235.946" y="132.266"/>
      <point x="241.349" y="132.344"/>
      <point x="246.716" y="132.429" type="curve" smooth="yes"/>
      <point x="248.841" y="132.471"/>
      <point x="250.966" y="132.506"/>
      <point x="253.056" y="132.556" type="curve" smooth="yes"/>
      <point x="255.002" y="132.608"/>
      <point x="256.897" y="132.676"/>
      <point x="258.817" y="132.736" type="curve" smooth="yes"/>
      <point x="323.507" y="134.818"/>
      <point x="374.409" y="143.787"/>
      <point x="406.281" y="153.634" type="curve"/>
      <point x="406.281" y="153.634" type="line"/>
      <point x="416.845" y="156.902"/>
      <point x="425.327" y="160.256"/>
      <point x="431.523" y="163.499" type="curve"/>
      <point x="402.91" y="157.311"/>
      <point x="369.075" y="153.011"/>
      <point x="333.014" y="150.887" type="curve" smooth="yes"/>
      <point x="332.937" y="150.887"/>
      <point x="332.877" y="150.844"/>
      <point x="332.8" y="150.844" type="curve" smooth="yes"/>
      <point x="332.758" y="150.844"/>
      <point x="332.724" y="150.869"/>
      <point x="332.681" y="150.869" type="curve" smooth="yes"/>
      <point x="321.835" y="150.238"/>
      <point x="310.835" y="149.777"/>
      <point x="299.674" y="149.547" type="curve" smooth="yes"/>
      <point x="293.53" y="149.401"/>
      <point x="287.489" y="149.333"/>
      <point x="281.6" y="149.333" type="curve" smooth="yes"/>
      <point x="276.463" y="149.333"/>
      <point x="271.206" y="149.401"/>
      <point x="265.865" y="149.513" type="curve" smooth="yes"/>
      <point x="253.799" y="149.718"/>
      <point x="241.98" y="150.186"/>
      <point x="230.426" y="150.86" type="curve" smooth="yes"/>
      <point x="230.417" y="150.86"/>
      <point x="230.408" y="150.852"/>
      <point x="230.392" y="150.852" type="curve" smooth="yes"/>
      <point x="230.374" y="150.852"/>
      <point x="230.358" y="150.86"/>
      <point x="230.332" y="150.86" type="curve" smooth="yes"/>
      <point x="194.363" y="152.969"/>
      <point x="161.349" y="157.226"/>
      <point x="133.692" y="163.114" type="curve" smooth="yes"/>
      <point x="131.422" y="163.584"/>
      <point x="129.178" y="164.07"/>
      <point x="126.968" y="164.565" type="curve" smooth="yes"/>
      <point x="126.268" y="164.727"/>
      <point x="125.534" y="164.881"/>
      <point x="124.843" y="165.043" type="curve" smooth="yes"/>
      <point x="94.7288" y="171.955"/>
      <point x="70.5365" y="181.222"/>
      <point x="58.8548" y="193.015" type="curve" smooth="yes"/>
      <point x="58.7268" y="193.152"/>
      <point x="58.5305" y="193.271"/>
      <point x="58.4026" y="193.408" type="curve" smooth="yes"/>
    </contour>
    <contour>
      <point x="17.0664" y="115.234" type="line" smooth="yes"/>
      <point x="17.084" y="110.933"/>
      <point x="24.2939" y="105.48"/>
      <point x="37.6914" y="99.9254" type="curve"/>
      <point x="37.7939" y="100.027" type="line"/>
      <point x="42.667" y="98.1334" type="line"/>
      <point x="42.667" y="138.829" type="line"/>
      <point x="32.5205" y="142.361"/>
      <point x="23.8848" y="146.278"/>
      <point x="17.0664" y="150.57" type="curve"/>
      <point x="17.0664" y="115.234" type="line"/>
    </contour>
    <contour>
      <point x="42.667" y="21.3672" type="line"/>
      <point x="42.6836" y="16.5635"/>
      <point x="51.669" y="10.3252"/>
      <point x="68.2666" y="4.1045" type="curve"/>
      <point x="68.2666" y="44.9619" type="line"/>
      <point x="58.1201" y="48.4951"/>
      <point x="49.4844" y="52.4121"/>
      <point x="42.667" y="56.7041" type="curve"/>
    </contour>
    <contour>
      <point x="443.733" y="4.10449" type="line"/>
      <point x="460.331" y="10.334"/>
      <point x="469.325" y="16.5801"/>
      <point x="469.333" y="21.3848" type="curve" smooth="yes"/>
      <point x="469.333" y="56.6953" type="line"/>
      <point x="462.515" y="52.4033"/>
      <point x="453.88" y="48.4863"/>
      <point x="443.733" y="44.9531" type="curve"/>
    </contour>
    <contour>
      <point x="469.223" y="80.4092" type="line" smooth="yes"/>
      <point x="468.668" y="82.5518"/>
      <point x="464.026" y="87.9278"/>
      <point x="447.181" y="93.9346" type="curve" smooth="yes"/>
      <point x="446.43" y="93.3975"/>
      <point x="445.483" y="92.8858"/>
      <point x="444.663" y="92.3565" type="curve" smooth="yes"/>
      <point x="443.785" y="91.7764"/>
      <point x="442.88" y="91.2041"/>
      <point x="441.933" y="90.6407" type="curve" smooth="yes"/>
      <point x="441.157" y="90.1885"/>
      <point x="440.389" y="89.7276"/>
      <point x="439.57" y="89.2842" type="curve" smooth="yes"/>
      <point x="424.602" y="80.9815"/>
      <point x="402.79" y="74.2822"/>
      <point x="377.592" y="69.1113" type="curve" smooth="yes"/>
      <point x="376.995" y="68.9834"/>
      <point x="376.397" y="68.8642"/>
      <point x="375.8" y="68.7441" type="curve" smooth="yes"/>
      <point x="373.12" y="68.207"/>
      <point x="370.415" y="67.6865"/>
      <point x="367.667" y="67.1826" type="curve" smooth="yes"/>
      <point x="354.33" y="64.6826"/>
      <point x="339.959" y="62.5322"/>
      <point x="324.805" y="60.7832" type="curve" smooth="yes"/>
      <point x="324.617" y="60.7656"/>
      <point x="324.463" y="60.6719"/>
      <point x="324.276" y="60.6719" type="curve" smooth="yes"/>
      <point x="324.224" y="60.6719"/>
      <point x="324.182" y="60.6973"/>
      <point x="324.13" y="60.6973" type="curve" smooth="yes"/>
      <point x="310.52" y="59.1357"/>
      <point x="296.355" y="57.8818"/>
      <point x="281.72" y="57.0029" type="curve" smooth="yes"/>
      <point x="281.677" y="57.0029"/>
      <point x="281.652" y="56.9775"/>
      <point x="281.609" y="56.9775" type="curve" smooth="yes"/>
      <point x="281.583" y="56.9775"/>
      <point x="281.566" y="56.9941"/>
      <point x="281.54" y="56.9941" type="curve" smooth="yes"/>
      <point x="269.526" y="56.2773"/>
      <point x="257.238" y="55.8164"/>
      <point x="244.787" y="55.6113" type="curve" smooth="yes"/>
      <point x="239.915" y="55.5264"/>
      <point x="235.102" y="55.4668"/>
      <point x="230.401" y="55.4668" type="curve" smooth="yes"/>
      <point x="226.859" y="55.4668"/>
      <point x="223.249" y="55.501"/>
      <point x="219.615" y="55.5693" type="curve" smooth="yes"/>
      <point x="205.961" y="55.7314"/>
      <point x="192.453" y="56.2178"/>
      <point x="179.226" y="57.0029" type="curve" smooth="yes"/>
      <point x="179.217" y="57.0029"/>
      <point x="179.209" y="56.9941"/>
      <point x="179.201" y="56.9941" type="curve" smooth="yes"/>
      <point x="179.183" y="56.9941"/>
      <point x="179.175" y="57.0029"/>
      <point x="179.158" y="57.0029" type="curve" smooth="yes"/>
      <point x="136.329" y="59.5371"/>
      <point x="96.6576" y="65.1777"/>
      <point x="65.5796" y="73.1396" type="curve" smooth="yes"/>
      <point x="64.1802" y="73.498"/>
      <point x="62.7798" y="73.8476"/>
      <point x="61.4146" y="74.2148" type="curve" smooth="yes"/>
      <point x="60.4849" y="74.4619"/>
      <point x="59.563" y="74.7177"/>
      <point x="58.6499" y="74.9736" type="curve" smooth="yes"/>
      <point x="56.2349" y="75.6396"/>
      <point x="53.8804" y="76.3222"/>
      <point x="51.5757" y="77.0302" type="curve" smooth="yes"/>
      <point x="51.3032" y="77.1074"/>
      <point x="51.0298" y="77.1924"/>
      <point x="50.7564" y="77.2783" type="curve" smooth="yes"/>
      <point x="48.0513" y="78.123"/>
      <point x="45.4146" y="78.9843"/>
      <point x="42.8716" y="79.872" type="curve"/>
      <point x="44.5103" y="74.1543"/>
      <point x="57.5493" y="66.748"/>
      <point x="80.1196" y="59.7763" type="curve"/>
      <point x="80.1196" y="59.7763" type="line"/>
      <point x="110.311" y="50.4492"/>
      <point x="157.551" y="41.9072"/>
      <point x="217.422" y="39.2617" type="curve" smooth="yes"/>
      <point x="220.502" y="39.1338"/>
      <point x="223.574" y="39.0059"/>
      <point x="226.722" y="38.9033" type="curve" smooth="yes"/>
      <point x="229.258" y="38.8184"/>
      <point x="231.792" y="38.7324"/>
      <point x="234.36" y="38.6729" type="curve" smooth="yes"/>
      <point x="241.434" y="38.5108"/>
      <point x="248.611" y="38.4004"/>
      <point x="256.001" y="38.4004" type="curve" smooth="yes"/>
      <point x="263.39" y="38.4004"/>
      <point x="270.558" y="38.5108"/>
      <point x="277.624" y="38.6641" type="curve" smooth="yes"/>
      <point x="280.227" y="38.7324"/>
      <point x="282.787" y="38.8096"/>
      <point x="285.339" y="38.8946" type="curve" smooth="yes"/>
      <point x="288.462" y="38.9971"/>
      <point x="291.516" y="39.125"/>
      <point x="294.58" y="39.253" type="curve" smooth="yes"/>
      <point x="354.45" y="41.8985"/>
      <point x="401.69" y="50.4405"/>
      <point x="431.882" y="59.7676" type="curve"/>
      <point x="431.882" y="59.7676" type="line"/>
      <point x="455.186" y="66.9697"/>
      <point x="468.293" y="74.6328"/>
      <point x="469.224" y="80.4092" type="curve"/>
    </contour>
    <contour>
      <point x="469.333" y="191.838" type="line"/>
      <point x="485.931" y="198.067"/>
      <point x="494.925" y="204.314"/>
      <point x="494.934" y="209.118" type="curve" smooth="yes"/>
      <point x="494.934" y="244.429" type="line"/>
      <point x="488.115" y="240.137"/>
      <point x="479.48" y="236.22"/>
      <point x="469.333" y="232.687" type="curve"/>
    </contour>
  </outline>
</glyph>
<glyph name="017-discount-pos" format="2">
  <advance width="512"/>
  <unicode hex="F110"/>
  <outline>
    <contour>
      <point x="269.099" y="437.676" type="line"/>
      <point x="271.378" y="435.616" type="line"/>
      <point x="302.032" y="405.963" type="line" smooth="yes"/>
      <point x="304.866" y="403.221"/>
      <point x="308.581" y="401.753"/>
      <point x="312.456" y="401.794" type="curve" smooth="yes"/>
      <point x="314.403" y="401.943" type="line"/>
      <point x="356.632" y="407.915" type="line" smooth="yes"/>
      <point x="379.236" y="411.114"/>
      <point x="400.109" y="396.705"/>
      <point x="405.328" y="374.799" type="curve" smooth="yes"/>
      <point x="405.879" y="372.135" type="line"/>
      <point x="413.247" y="330.125" type="line" smooth="yes"/>
      <point x="413.929" y="326.242"/>
      <point x="416.074" y="322.868"/>
      <point x="419.232" y="320.626" type="curve" smooth="yes"/>
      <point x="420.894" y="319.602" type="line"/>
      <point x="458.569" y="299.612" type="line" smooth="yes"/>
      <point x="478.706" y="288.927"/>
      <point x="487.126" y="265.065"/>
      <point x="478.541" y="244.297" type="curve" smooth="yes"/>
      <point x="477.379" y="241.719" type="line"/>
      <point x="458.649" y="203.402" type="line" smooth="yes"/>
      <point x="456.917" y="199.859"/>
      <point x="456.669" y="195.869"/>
      <point x="457.907" y="192.197" type="curve" smooth="yes"/>
      <point x="458.649" y="190.393" type="line"/>
      <point x="477.379" y="152.075" type="line" smooth="yes"/>
      <point x="487.391" y="131.594"/>
      <point x="480.176" y="107.338"/>
      <point x="461.025" y="95.5842" type="curve" smooth="yes"/>
      <point x="458.569" y="94.1809" type="line"/>
      <point x="420.894" y="74.1907" type="line" smooth="yes"/>
      <point x="417.411" y="72.342"/>
      <point x="414.866" y="69.26"/>
      <point x="413.708" y="65.5627" type="curve" smooth="yes"/>
      <point x="413.248" y="63.6662" type="line"/>
      <point x="405.879" y="21.6594" type="line" smooth="yes"/>
      <point x="401.934" y="-0.830752"/>
      <point x="381.789" y="-16.2283"/>
      <point x="359.336" y="-14.4217" type="curve" smooth="yes"/>
      <point x="356.632" y="-14.1218" type="line"/>
      <point x="314.403" y="-8.14822" type="line" smooth="yes"/>
      <point x="310.497" y="-7.60036"/>
      <point x="306.628" y="-8.59548"/>
      <point x="303.519" y="-10.9051" type="curve" smooth="yes"/>
      <point x="302.032" y="-12.1687" type="line"/>
      <point x="271.377" y="-41.822" type="line" smooth="yes"/>
      <point x="262.846" y="-50.0769"/>
      <point x="251.891" y="-54.2058"/>
      <point x="240.942" y="-54.2058" type="curve" smooth="yes"/>
      <point x="231.084" y="-54.2058"/>
      <point x="221.231" y="-50.8631"/>
      <point x="213.136" y="-44.1755" type="curve" smooth="yes"/>
      <point x="210.505" y="-41.822" type="line"/>
      <point x="179.853" y="-12.1687" type="line" smooth="yes"/>
      <point x="177.018" y="-9.4275"/>
      <point x="173.299" y="-7.9568"/>
      <point x="169.427" y="-7.99976" type="curve" smooth="yes"/>
      <point x="167.481" y="-8.14819" type="line"/>
      <point x="125.252" y="-14.1218" type="line" smooth="yes"/>
      <point x="123.144" y="-14.4197"/>
      <point x="121.047" y="-14.5652"/>
      <point x="118.981" y="-14.5652" type="curve" smooth="yes"/>
      <point x="98.9096" y="-14.5671"/>
      <point x="81.3325" y="-0.904984"/>
      <point x="76.5727" y="18.9172" type="curve" smooth="yes"/>
      <point x="76.0043" y="21.6584" type="line"/>
      <point x="68.6362" y="63.6672" type="line" smooth="yes"/>
      <point x="67.9545" y="67.551"/>
      <point x="65.809" y="70.925"/>
      <point x="62.6508" y="73.1672" type="curve" smooth="yes"/>
      <point x="60.9897" y="74.1907" type="line"/>
      <point x="23.3149" y="94.1809" type="line" smooth="yes"/>
      <point x="3.17718" y="104.865"/>
      <point x="-5.24372" y="128.728"/>
      <point x="3.34128" y="149.495" type="curve" smooth="yes"/>
      <point x="4.50339" y="152.074" type="line"/>
      <point x="23.2339" y="190.391" type="line" smooth="yes"/>
      <point x="24.9663" y="193.933"/>
      <point x="25.2134" y="197.923"/>
      <point x="23.9761" y="201.594" type="curve" smooth="yes"/>
      <point x="23.2339" y="203.4" type="line"/>
      <point x="4.50439" y="241.716" type="line" smooth="yes"/>
      <point x="-5.50631" y="262.197"/>
      <point x="1.70751" y="286.453"/>
      <point x="20.8599" y="298.207" type="curve" smooth="yes"/>
      <point x="23.3159" y="299.611" type="line"/>
      <point x="60.9907" y="319.6" type="line" smooth="yes"/>
      <point x="64.4732" y="321.448"/>
      <point x="67.0181" y="324.531"/>
      <point x="68.1753" y="328.228" type="curve" smooth="yes"/>
      <point x="68.6362" y="330.124" type="line"/>
      <point x="76.0044" y="372.132" type="line" smooth="yes"/>
      <point x="79.9497" y="394.622"/>
      <point x="100.097" y="410.02"/>
      <point x="122.547" y="408.213" type="curve" smooth="yes"/>
      <point x="125.252" y="407.912" type="line"/>
      <point x="167.48" y="401.94" type="line" smooth="yes"/>
      <point x="171.386" y="401.389"/>
      <point x="175.255" y="402.385"/>
      <point x="178.364" y="404.696" type="curve" smooth="yes"/>
      <point x="179.852" y="405.96" type="line"/>
      <point x="210.505" y="435.616" type="line" smooth="yes"/>
      <point x="226.831" y="451.41"/>
      <point x="252.004" y="452.097"/>
      <point x="269.099" y="437.676" type="curve"/>
    </contour>
    <contour>
      <point x="312" y="176" type="curve" smooth="yes"/>
      <point x="281.072" y="176"/>
      <point x="256" y="150.928"/>
      <point x="256" y="120" type="curve" smooth="yes"/>
      <point x="256" y="89.0723"/>
      <point x="281.072" y="64"/>
      <point x="312" y="64" type="curve" smooth="yes"/>
      <point x="342.928" y="64"/>
      <point x="368" y="89.0723"/>
      <point x="368" y="120" type="curve" smooth="yes"/>
      <point x="368" y="150.928"/>
      <point x="342.928" y="176"/>
    </contour>
    <contour>
      <point x="330.305" y="308.749" type="line"/>
      <point x="330.135" y="308.596"/>
      <point x="329.969" y="308.438"/>
      <point x="329.806" y="308.278" type="curve" smooth="yes"/>
      <point x="143.719" y="124.918" type="line" smooth="yes"/>
      <point x="137.614" y="118.904"/>
      <point x="137.333" y="109.147"/>
      <point x="143.081" y="102.79" type="curve" smooth="yes"/>
      <point x="151.739" y="93.2142" type="line" smooth="yes"/>
      <point x="157.666" y="86.6605"/>
      <point x="167.784" y="86.1517"/>
      <point x="174.338" y="92.0785" type="curve" smooth="yes"/>
      <point x="174.508" y="92.2318"/>
      <point x="174.674" y="92.3881"/>
      <point x="174.837" y="92.5492" type="curve" smooth="yes"/>
      <point x="360.924" y="275.908" type="line" smooth="yes"/>
      <point x="367.029" y="281.923"/>
      <point x="367.31" y="291.68"/>
      <point x="361.563" y="298.036" type="curve" smooth="yes"/>
      <point x="352.904" y="307.612" type="line" smooth="yes"/>
      <point x="346.977" y="314.167"/>
      <point x="336.86" y="314.676"/>
      <point x="330.305" y="308.749" type="curve"/>
    </contour>
    <contour>
      <point x="312" y="144" type="curve" smooth="yes"/>
      <point x="325.255" y="144"/>
      <point x="336" y="133.255"/>
      <point x="336" y="120" type="curve" smooth="yes"/>
      <point x="336" y="106.745"/>
      <point x="325.255" y="96"/>
      <point x="312" y="96" type="curve" smooth="yes"/>
      <point x="298.745" y="96"/>
      <point x="288" y="106.745"/>
      <point x="288" y="120" type="curve" smooth="yes"/>
      <point x="288" y="133.255"/>
      <point x="298.745" y="144"/>
    </contour>
    <contour>
      <point x="171.2" y="320" type="curve" smooth="yes"/>
      <point x="140.272" y="320"/>
      <point x="115.2" y="294.928"/>
      <point x="115.2" y="264" type="curve" smooth="yes"/>
      <point x="115.2" y="233.072"/>
      <point x="140.272" y="208"/>
      <point x="171.2" y="208" type="curve" smooth="yes"/>
      <point x="202.128" y="208"/>
      <point x="227.2" y="233.072"/>
      <point x="227.2" y="264" type="curve" smooth="yes"/>
      <point x="227.2" y="294.928"/>
      <point x="202.128" y="320"/>
    </contour>
    <contour>
      <point x="171.2" y="288" type="curve" smooth="yes"/>
      <point x="184.455" y="288"/>
      <point x="195.2" y="277.255"/>
      <point x="195.2" y="264" type="curve" smooth="yes"/>
      <point x="195.2" y="250.745"/>
      <point x="184.455" y="240"/>
      <point x="171.2" y="240" type="curve" smooth="yes"/>
      <point x="157.945" y="240"/>
      <point x="147.2" y="250.745"/>
      <point x="147.2" y="264" type="curve" smooth="yes"/>
      <point x="147.2" y="277.255"/>
      <point x="157.945" y="288"/>
    </contour>
  </outline>
</glyph>
<glyph name="018-cash" format="2">
  <advance width="512"/>
  <unicode hex="F111"/>
  <outline>
    <contour>
      <point x="391.407" y="228.518" type="line" smooth="yes"/>
      <point x="391.452" y="228.132"/>
      <point x="391.478" y="227.748"/>
      <point x="391.485" y="227.364" type="curve" smooth="yes"/>
      <point x="391.487" y="227.295"/>
      <point x="391.499" y="227.23"/>
      <point x="391.499" y="227.162" type="curve" smooth="yes"/>
      <point x="391.499" y="88.1586" type="line" smooth="yes"/>
      <point x="391.499" y="84.1781"/>
      <point x="389.456" y="80.4769"/>
      <point x="386.087" y="78.3558" type="curve" smooth="yes"/>
      <point x="325.836" y="40.4163" type="line" smooth="yes"/>
      <point x="323.955" y="39.2318"/>
      <point x="321.811" y="38.6351"/>
      <point x="319.664" y="38.6351" type="curve" smooth="yes"/>
      <point x="317.739" y="38.6351"/>
      <point x="315.811" y="39.1136"/>
      <point x="314.065" y="40.0765" type="curve" smooth="yes"/>
      <point x="310.373" y="42.1155"/>
      <point x="308.081" y="45.9993"/>
      <point x="308.081" y="50.2181" type="curve" smooth="yes"/>
      <point x="308.081" y="182.483" type="line"/>
      <point x="132.392" y="282.347" type="line"/>
      <point x="34.133" y="220.474" type="line"/>
      <point x="198.86" y="126.839" type="line"/>
      <point x="278.742" y="177.139" type="line" smooth="yes"/>
      <point x="284.155" y="180.55"/>
      <point x="291.309" y="178.924"/>
      <point x="294.716" y="173.51" type="curve" smooth="yes"/>
      <point x="298.125" y="168.097"/>
      <point x="296.5" y="160.943"/>
      <point x="291.086" y="157.535" type="curve" smooth="yes"/>
      <point x="205.337" y="103.54" type="line" smooth="yes"/>
      <point x="203.455" y="102.354"/>
      <point x="201.311" y="101.758"/>
      <point x="199.165" y="101.758" type="curve" smooth="yes"/>
      <point x="197.192" y="101.758"/>
      <point x="195.218" y="102.261"/>
      <point x="193.441" y="103.272" type="curve" smooth="yes"/>
      <point x="5.86303" y="209.894" type="line" smooth="yes"/>
      <point x="2.32104" y="211.908"/>
      <point x="0.0983769" y="215.631"/>
      <point x="0.0065769" y="219.704" type="curve" smooth="yes"/>
      <point x="-0.0861965" y="223.776"/>
      <point x="1.96752" y="227.597"/>
      <point x="5.41478" y="229.767" type="curve" smooth="yes"/>
      <point x="125.916" y="305.647" type="line" smooth="yes"/>
      <point x="125.942" y="305.665"/>
      <point x="125.97" y="305.682"/>
      <point x="125.998" y="305.699" type="curve" smooth="yes"/>
      <point x="186.172" y="343.591" type="line" smooth="yes"/>
      <point x="186.196" y="343.605"/>
      <point x="186.221" y="343.622"/>
      <point x="186.246" y="343.637" type="curve" smooth="yes"/>
      <point x="306.665" y="419.465" type="line" smooth="yes"/>
      <point x="310.279" y="421.738"/>
      <point x="314.85" y="421.843"/>
      <point x="318.561" y="419.732" type="curve" smooth="yes"/>
      <point x="506.138" y="313.109" type="line" smooth="yes"/>
      <point x="509.68" y="311.097"/>
      <point x="511.903" y="307.373"/>
      <point x="511.995" y="303.301" type="curve" smooth="yes"/>
      <point x="512.088" y="299.227"/>
      <point x="510.034" y="295.406"/>
      <point x="506.587" y="293.236" type="curve" smooth="yes"/>
      <point x="420.838" y="239.242" type="line" smooth="yes"/>
      <point x="415.424" y="235.833"/>
      <point x="408.271" y="237.458"/>
      <point x="404.864" y="242.872" type="curve" smooth="yes"/>
      <point x="401.455" y="248.285"/>
      <point x="403.08" y="255.438"/>
      <point x="408.494" y="258.846" type="curve" smooth="yes"/>
      <point x="477.87" y="302.531" type="line"/>
      <point x="313.142" y="396.164" type="line"/>
      <point x="214.884" y="334.291" type="line"/>
      <point x="385.539" y="237.286" type="line" smooth="yes"/>
      <point x="385.982" y="237.04"/>
      <point x="386.408" y="236.755"/>
      <point x="386.82" y="236.449" type="curve" smooth="yes"/>
      <point x="386.901" y="236.389"/>
      <point x="386.978" y="236.329"/>
      <point x="387.057" y="236.267" type="curve" smooth="yes"/>
      <point x="387.365" y="236.025"/>
      <point x="387.66" y="235.767"/>
      <point x="387.945" y="235.493" type="curve" smooth="yes"/>
      <point x="388.009" y="235.433"/>
      <point x="388.076" y="235.375"/>
      <point x="388.138" y="235.312" type="curve" smooth="yes"/>
      <point x="388.465" y="234.982"/>
      <point x="388.778" y="234.634"/>
      <point x="389.067" y="234.259" type="curve" smooth="yes"/>
      <point x="389.104" y="234.212"/>
      <point x="389.133" y="234.162"/>
      <point x="389.168" y="234.115" type="curve" smooth="yes"/>
      <point x="389.358" y="233.861"/>
      <point x="389.546" y="233.605"/>
      <point x="389.718" y="233.333" type="curve" smooth="yes"/>
      <point x="389.76" y="233.264"/>
      <point x="389.793" y="233.194"/>
      <point x="389.833" y="233.126" type="curve" smooth="yes"/>
      <point x="389.91" y="232.999"/>
      <point x="389.978" y="232.871"/>
      <point x="390.049" y="232.742" type="curve" smooth="yes"/>
      <point x="390.211" y="232.448"/>
      <point x="390.36" y="232.149"/>
      <point x="390.495" y="231.845" type="curve" smooth="yes"/>
      <point x="390.547" y="231.727"/>
      <point x="390.6" y="231.611"/>
      <point x="390.648" y="231.491" type="curve" smooth="yes"/>
      <point x="390.819" y="231.071"/>
      <point x="390.97" y="230.645"/>
      <point x="391.088" y="230.215" type="curve" smooth="yes"/>
      <point x="391.089" y="230.209"/>
      <point x="391.091" y="230.204"/>
      <point x="391.093" y="230.2" type="curve" smooth="yes"/>
      <point x="391.219" y="229.738"/>
      <point x="391.308" y="229.271"/>
      <point x="391.375" y="228.803" type="curve" smooth="yes"/>
      <point x="391.389" y="228.71"/>
      <point x="391.396" y="228.614"/>
      <point x="391.407" y="228.518" type="curve" smooth="yes"/>
    </contour>
    <contour>
      <point x="331.248" y="71.1992" type="line"/>
      <point x="368.33" y="94.5508" type="line"/>
      <point x="368.33" y="206.178" type="line"/>
      <point x="355.288" y="197.966" type="line" smooth="yes"/>
      <point x="353.373" y="196.759"/>
      <point x="351.236" y="196.184"/>
      <point x="349.128" y="196.184" type="curve" smooth="yes"/>
      <point x="345.279" y="196.184"/>
      <point x="341.516" y="198.099"/>
      <point x="339.314" y="201.597" type="curve" smooth="yes"/>
      <point x="335.905" y="207.01"/>
      <point x="337.531" y="214.162"/>
      <point x="342.945" y="217.57" type="curve" smooth="yes"/>
      <point x="357.368" y="226.651" type="line"/>
      <point x="192.641" y="320.286" type="line"/>
      <point x="154.631" y="296.351" type="line"/>
      <point x="325.387" y="199.29" type="line" smooth="yes"/>
      <point x="329.009" y="197.232"/>
      <point x="331.248" y="193.387"/>
      <point x="331.248" y="189.221" type="curve" smooth="yes"/>
      <point x="331.248" y="71.1999" type="line"/>
    </contour>
    <contour>
      <point x="494.243" y="266.507" type="line" smooth="yes"/>
      <point x="499.656" y="269.917"/>
      <point x="506.809" y="268.29"/>
      <point x="510.217" y="262.876" type="curve" smooth="yes"/>
      <point x="513.626" y="257.463"/>
      <point x="512.001" y="250.311"/>
      <point x="506.587" y="246.903" type="curve" smooth="yes"/>
      <point x="420.838" y="192.907" type="line" smooth="yes"/>
      <point x="418.922" y="191.7"/>
      <point x="416.786" y="191.125"/>
      <point x="414.678" y="191.125" type="curve" smooth="yes"/>
      <point x="410.828" y="191.125"/>
      <point x="407.065" y="193.04"/>
      <point x="404.864" y="196.538" type="curve" smooth="yes"/>
      <point x="401.455" y="201.951"/>
      <point x="403.08" y="209.104"/>
      <point x="408.494" y="212.512" type="curve" smooth="yes"/>
    </contour>
    <contour>
      <point x="278.74" y="130.806" type="line" smooth="yes"/>
      <point x="284.153" y="134.216"/>
      <point x="291.307" y="132.589"/>
      <point x="294.714" y="127.174" type="curve" smooth="yes"/>
      <point x="298.123" y="121.761"/>
      <point x="296.498" y="114.609"/>
      <point x="291.084" y="111.201" type="curve" smooth="yes"/>
      <point x="205.335" y="57.2045" type="line" smooth="yes"/>
      <point x="203.452" y="56.0199"/>
      <point x="201.309" y="55.4232"/>
      <point x="199.163" y="55.4232" type="curve" smooth="yes"/>
      <point x="197.19" y="55.4232"/>
      <point x="195.217" y="55.9261"/>
      <point x="193.439" y="56.9369" type="curve" smooth="yes"/>
      <point x="5.86121" y="163.56" type="line" smooth="yes"/>
      <point x="0.29871" y="166.721"/>
      <point x="-1.6466" y="173.792"/>
      <point x="1.51551" y="179.354" type="curve" smooth="yes"/>
      <point x="4.67664" y="184.918"/>
      <point x="11.7518" y="186.86"/>
      <point x="17.3094" y="183.7" type="curve" smooth="yes"/>
      <point x="198.858" y="80.5055" type="line"/>
    </contour>
    <contour>
      <point x="494.243" y="220.172" type="line" smooth="yes"/>
      <point x="499.656" y="223.582"/>
      <point x="506.809" y="221.957"/>
      <point x="510.217" y="216.542" type="curve" smooth="yes"/>
      <point x="513.626" y="211.129"/>
      <point x="512.001" y="203.976"/>
      <point x="506.587" y="200.568" type="curve" smooth="yes"/>
      <point x="420.838" y="146.573" type="line" smooth="yes"/>
      <point x="418.922" y="145.366"/>
      <point x="416.786" y="144.79"/>
      <point x="414.678" y="144.79" type="curve" smooth="yes"/>
      <point x="410.828" y="144.79"/>
      <point x="407.065" y="146.705"/>
      <point x="404.864" y="150.203" type="curve" smooth="yes"/>
      <point x="401.455" y="155.616"/>
      <point x="403.08" y="162.77"/>
      <point x="408.494" y="166.177" type="curve" smooth="yes"/>
    </contour>
    <contour>
      <point x="278.74" y="84.4707" type="line" smooth="yes"/>
      <point x="284.153" y="87.8809"/>
      <point x="291.307" y="86.2559"/>
      <point x="294.714" y="80.8398" type="curve" smooth="yes"/>
      <point x="298.123" y="75.4267"/>
      <point x="296.498" y="68.2734"/>
      <point x="291.084" y="64.8652" type="curve" smooth="yes"/>
      <point x="205.335" y="10.8701" type="line" smooth="yes"/>
      <point x="203.452" y="9.68459"/>
      <point x="201.309" y="9.08791"/>
      <point x="199.163" y="9.08791" type="curve" smooth="yes"/>
      <point x="197.19" y="9.08791"/>
      <point x="195.217" y="9.59084"/>
      <point x="193.439" y="10.6026" type="curve" smooth="yes"/>
      <point x="5.86121" y="117.225" type="line" smooth="yes"/>
      <point x="0.29871" y="120.386"/>
      <point x="-1.6466" y="127.458"/>
      <point x="1.51551" y="133.018" type="curve" smooth="yes"/>
      <point x="4.67664" y="138.584"/>
      <point x="11.7518" y="140.525"/>
      <point x="17.3094" y="137.365" type="curve" smooth="yes"/>
      <point x="198.858" y="34.1701" type="line"/>
    </contour>
    <contour>
      <point x="494.243" y="173.838" type="line" smooth="yes"/>
      <point x="499.656" y="177.246"/>
      <point x="506.809" y="175.621"/>
      <point x="510.217" y="170.207" type="curve" smooth="yes"/>
      <point x="513.626" y="164.794"/>
      <point x="512.001" y="157.642"/>
      <point x="506.587" y="154.234" type="curve" smooth="yes"/>
      <point x="420.838" y="100.238" type="line" smooth="yes"/>
      <point x="418.922" y="99.0314"/>
      <point x="416.786" y="98.4562"/>
      <point x="414.678" y="98.4562" type="curve" smooth="yes"/>
      <point x="410.828" y="98.4562"/>
      <point x="407.065" y="100.37"/>
      <point x="404.864" y="103.869" type="curve" smooth="yes"/>
      <point x="401.455" y="109.282"/>
      <point x="403.08" y="116.435"/>
      <point x="408.494" y="119.843" type="curve" smooth="yes"/>
    </contour>
    <contour>
      <point x="278.74" y="38.1367" type="line" smooth="yes"/>
      <point x="284.153" y="41.5469"/>
      <point x="291.307" y="39.9199"/>
      <point x="294.714" y="34.5049" type="curve" smooth="yes"/>
      <point x="298.123" y="29.0918"/>
      <point x="296.498" y="21.9385"/>
      <point x="291.084" y="18.5313" type="curve" smooth="yes"/>
      <point x="205.335" y="-35.4648" type="line" smooth="yes"/>
      <point x="203.452" y="-36.6494"/>
      <point x="201.309" y="-37.2461"/>
      <point x="199.163" y="-37.2461" type="curve" smooth="yes"/>
      <point x="197.19" y="-37.2461"/>
      <point x="195.217" y="-36.7441"/>
      <point x="193.439" y="-35.7324" type="curve" smooth="yes"/>
      <point x="5.86121" y="70.8906" type="line" smooth="yes"/>
      <point x="0.29871" y="74.0517"/>
      <point x="-1.6466" y="81.123"/>
      <point x="1.51551" y="86.6845" type="curve" smooth="yes"/>
      <point x="4.67664" y="92.2489"/>
      <point x="11.7518" y="94.1903"/>
      <point x="17.3094" y="91.0302" type="curve" smooth="yes"/>
      <point x="198.858" y="-12.1638" type="line"/>
    </contour>
  </outline>
</glyph>
<glyph name="019-cash-mainmenu" format="2">
  <advance width="512"/>
  <unicode hex="F112"/>
  <outline>
    <contour>
      <point x="480.212" y="175.262" type="line"/>
      <point x="106.707" y="175.262" type="line"/>
      <point x="106.707" y="-19.437" type="line"/>
      <point x="480.212" y="-19.437" type="line"/>
    </contour>
    <contour>
      <point x="512" y="207.05" type="line"/>
      <point x="512" y="207.05" type="line"/>
      <point x="512" y="-51.225" type="line"/>
      <point x="74.92" y="-51.225" type="line"/>
      <point x="74.92" y="207.05" type="line"/>
    </contour>
    <contour>
      <point x="392.796" y="207.05" type="line"/>
      <point x="512" y="207.05" type="line"/>
      <point x="512" y="87.846" type="line"/>
      <point x="467.239" y="132.587" type="line" smooth="yes"/>
      <point x="465.59" y="132.269"/>
      <point x="464.08" y="131.614"/>
      <point x="462.332" y="131.614" type="curve" smooth="yes"/>
      <point x="448.087" y="131.614"/>
      <point x="436.544" y="143.137"/>
      <point x="436.544" y="157.381" type="curve" smooth="yes"/>
      <point x="436.544" y="159.13"/>
      <point x="437.199" y="160.659"/>
      <point x="437.537" y="162.309" type="curve" smooth="yes"/>
    </contour>
    <contour>
      <point x="396.81" y="77.9121" type="curve" smooth="yes"/>
      <point x="396.81" y="92.1543"/>
      <point x="408.356" y="103.7"/>
      <point x="422.598" y="103.7" type="curve" smooth="yes"/>
      <point x="436.84" y="103.7"/>
      <point x="448.385" y="92.1543"/>
      <point x="448.385" y="77.9121" type="curve" smooth="yes"/>
      <point x="448.385" y="63.6699"/>
      <point x="436.84" y="52.124"/>
      <point x="422.598" y="52.124" type="curve" smooth="yes"/>
      <point x="408.356" y="52.124"/>
      <point x="396.81" y="63.6699"/>
    </contour>
    <contour>
      <point x="215.461" y="77.9121" type="curve" smooth="yes"/>
      <point x="215.461" y="115.372"/>
      <point x="250.382" y="145.739"/>
      <point x="293.46" y="145.739" type="curve" smooth="yes"/>
      <point x="336.537" y="145.739"/>
      <point x="371.459" y="115.372"/>
      <point x="371.459" y="77.9121" type="curve" smooth="yes"/>
      <point x="371.459" y="40.4522"/>
      <point x="336.537" y="10.085"/>
      <point x="293.46" y="10.085" type="curve" smooth="yes"/>
      <point x="250.382" y="10.085"/>
      <point x="215.461" y="40.4522"/>
    </contour>
    <contour>
      <point x="138.555" y="77.9121" type="curve" smooth="yes"/>
      <point x="138.555" y="92.1435"/>
      <point x="150.091" y="103.68"/>
      <point x="164.323" y="103.68" type="curve" smooth="yes"/>
      <point x="178.554" y="103.68"/>
      <point x="190.09" y="92.1436"/>
      <point x="190.09" y="77.9121" type="curve" smooth="yes"/>
      <point x="190.09" y="63.6806"/>
      <point x="178.554" y="52.1445"/>
      <point x="164.323" y="52.1445" type="curve" smooth="yes"/>
      <point x="150.091" y="52.1445"/>
      <point x="138.555" y="63.6806"/>
    </contour>
    <contour>
      <point x="74.9199" y="87.8457" type="line"/>
      <point x="74.9199" y="207.05" type="line"/>
      <point x="194.123" y="207.05" type="line"/>
      <point x="149.362" y="162.288" type="line" smooth="yes"/>
      <point x="149.7" y="160.64"/>
      <point x="150.355" y="159.13"/>
      <point x="150.355" y="157.381" type="curve" smooth="yes"/>
      <point x="150.355" y="143.137"/>
      <point x="138.833" y="131.594"/>
      <point x="124.588" y="131.594" type="curve" smooth="yes"/>
      <point x="122.84" y="131.594"/>
      <point x="121.309" y="132.249"/>
      <point x="119.661" y="132.587" type="curve" smooth="yes"/>
    </contour>
    <contour>
      <point x="150.376" y="-1.55664" type="line"/>
      <point x="150.376" y="-3.28516"/>
      <point x="149.72" y="-4.83496"/>
      <point x="149.382" y="-6.48437" type="curve" smooth="yes"/>
      <point x="194.123" y="-51.2256" type="line"/>
      <point x="74.9201" y="-51.2256" type="line"/>
      <point x="74.9201" y="67.9784" type="line"/>
      <point x="119.681" y="23.2372" type="line" smooth="yes"/>
      <point x="121.329" y="23.5546"/>
      <point x="122.84" y="24.2109"/>
      <point x="124.588" y="24.2109" type="curve" smooth="yes"/>
      <point x="138.833" y="24.2109"/>
      <point x="150.376" y="12.6875"/>
      <point x="150.376" y="-1.55674" type="curve"/>
    </contour>
    <contour>
      <point x="462.332" y="24.2305" type="line"/>
      <point x="464.08" y="24.2305"/>
      <point x="465.61" y="23.5752"/>
      <point x="467.259" y="23.2373" type="curve" smooth="yes"/>
      <point x="512" y="67.9785" type="line"/>
      <point x="512" y="-51.2255" type="line"/>
      <point x="392.796" y="-51.2255" type="line"/>
      <point x="437.558" y="-6.46376" type="line" smooth="yes"/>
      <point x="437.22" y="-4.81532"/>
      <point x="436.564" y="-3.30556"/>
      <point x="436.564" y="-1.55653" type="curve" smooth="yes"/>
      <point x="436.564" y="12.6876"/>
      <point x="448.087" y="24.2306"/>
      <point x="462.332" y="24.2306" type="curve"/>
    </contour>
    <contour>
      <point x="341.24" y="279.028" type="curve" smooth="yes"/>
      <point x="341.24" y="293.259"/>
      <point x="352.777" y="304.797"/>
      <point x="367.009" y="304.797" type="curve" smooth="yes"/>
      <point x="381.239" y="304.797"/>
      <point x="392.776" y="293.26"/>
      <point x="392.776" y="279.028" type="curve" smooth="yes"/>
      <point x="392.776" y="264.798"/>
      <point x="381.239" y="253.26"/>
      <point x="367.009" y="253.26" type="curve" smooth="yes"/>
      <point x="352.777" y="253.26"/>
      <point x="341.24" y="264.798"/>
    </contour>
    <contour>
      <point x="45.1182" y="207.05" type="line"/>
      <point x="45.1182" y="142.899" type="line"/>
      <point x="0" y="225.288" type="line"/>
      <point x="104.562" y="282.545" type="line"/>
      <point x="278.818" y="377.968" type="line"/>
      <point x="278.798" y="377.968" type="line"/>
      <point x="383.379" y="435.226" type="line"/>
      <point x="440.657" y="330.684" type="line"/>
      <point x="440.637" y="330.684" type="line"/>
      <point x="492.014" y="236.851" type="line"/>
      <point x="415.903" y="236.851" type="line"/>
      <point x="417.949" y="242.632"/>
      <point x="421.823" y="247.837"/>
      <point x="427.644" y="251.016" type="curve" smooth="yes"/>
      <point x="429.173" y="251.851"/>
      <point x="430.842" y="252.029"/>
      <point x="432.413" y="252.506" type="curve" smooth="yes"/>
      <point x="437.558" y="270.108" type="line"/>
      <point x="397.486" y="343.26" type="line"/>
      <point x="379.863" y="348.425" type="line" smooth="yes"/>
      <point x="378.612" y="347.332"/>
      <point x="377.579" y="346.041"/>
      <point x="376.069" y="345.207" type="curve" smooth="yes"/>
      <point x="363.552" y="338.372"/>
      <point x="347.897" y="342.922"/>
      <point x="341.062" y="355.438" type="curve" smooth="yes"/>
      <point x="340.209" y="356.968"/>
      <point x="340.029" y="358.637"/>
      <point x="339.533" y="360.227" type="curve" smooth="yes"/>
      <point x="321.95" y="365.353" type="line"/>
      <point x="91.9468" y="239.394" type="line"/>
      <point x="91.2115" y="236.851" type="line"/>
      <point x="74.9205" y="236.851" type="line" smooth="yes"/>
      <point x="58.4703" y="236.851"/>
      <point x="45.1187" y="223.5"/>
      <point x="45.1187" y="207.05" type="curve"/>
    </contour>
    <contour>
      <point x="221.143" y="276.466" type="line"/>
      <point x="258.931" y="297.148"/>
      <point x="304.129" y="287.294"/>
      <point x="322.149" y="254.433" type="curve" smooth="yes"/>
      <point x="325.209" y="248.851"/>
      <point x="326.937" y="242.91"/>
      <point x="328.089" y="236.851" type="curve"/>
      <point x="184.389" y="236.851" type="line"/>
      <point x="191.383" y="252.665"/>
      <point x="203.84" y="267.009"/>
      <point x="221.143" y="276.466" type="curve"/>
    </contour>
  </outline>
</glyph>
<glyph name="020-edit" format="2">
  <advance width="512"/>
  <unicode hex="F113"/>
  <outline>
    <contour>
      <point x="256" y="448" type="curve" smooth="yes"/>
      <point x="397.385" y="448"/>
      <point x="512" y="333.385"/>
      <point x="512" y="192" type="curve" smooth="yes"/>
      <point x="512" y="50.615"/>
      <point x="397.385" y="-64"/>
      <point x="256" y="-64" type="curve" smooth="yes"/>
      <point x="114.615" y="-64"/>
      <point x="0" y="50.615"/>
      <point x="0" y="192" type="curve" smooth="yes"/>
      <point x="0" y="333.385"/>
      <point x="114.615" y="448"/>
    </contour>
    <contour>
      <point x="386.107" y="336.735" type="line" smooth="yes"/>
      <point x="373.611" y="349.231"/>
      <point x="353.349" y="349.231"/>
      <point x="340.852" y="336.735" type="curve"/>
      <point x="340.852" y="336.735" type="line"/>
      <point x="139.204" y="135.087" type="line"/>
      <point x="116.976" y="53.7472" type="line" smooth="yes"/>
      <point x="116.681" y="52.6701"/>
      <point x="116.674" y="51.5343"/>
      <point x="116.954" y="50.4542" type="curve" smooth="yes"/>
      <point x="117.841" y="47.0324"/>
      <point x="121.333" y="44.9777"/>
      <point x="124.755" y="45.8644" type="curve"/>
      <point x="124.755" y="45.8644" type="line"/>
      <point x="207.087" y="67.2042" type="line"/>
      <point x="408.735" y="268.852" type="line" smooth="yes"/>
      <point x="421.231" y="281.349"/>
      <point x="421.231" y="301.611"/>
      <point x="408.735" y="314.107" type="curve"/>
      <point x="408.735" y="314.107" type="line"/>
    </contour>
  </outline>
</glyph>
<glyph name="021-ellipsis-menu" format="2">
  <advance width="512"/>
  <unicode hex="F114"/>
  <outline>
    <contour>
      <point x="192" y="192" type="curve" smooth="yes"/>
      <point x="192" y="227.347"/>
      <point x="220.653" y="256"/>
      <point x="256" y="256" type="curve" smooth="yes"/>
      <point x="291.347" y="256"/>
      <point x="320" y="227.347"/>
      <point x="320" y="192" type="curve" smooth="yes"/>
      <point x="320" y="156.653"/>
      <point x="291.347" y="128"/>
      <point x="256" y="128" type="curve" smooth="yes"/>
      <point x="220.653" y="128"/>
      <point x="192" y="156.653"/>
    </contour>
    <contour>
      <point x="192" y="0" type="curve" smooth="yes"/>
      <point x="192" y="35.3467"/>
      <point x="220.653" y="64"/>
      <point x="256" y="64" type="curve" smooth="yes"/>
      <point x="291.347" y="64"/>
      <point x="320" y="35.3467"/>
      <point x="320" y="0" type="curve" smooth="yes"/>
      <point x="320" y="-35.3467"/>
      <point x="291.347" y="-64"/>
      <point x="256" y="-64" type="curve" smooth="yes"/>
      <point x="220.653" y="-64"/>
      <point x="192" y="-35.3467"/>
    </contour>
    <contour>
      <point x="192" y="384" type="curve" smooth="yes"/>
      <point x="192" y="419.347"/>
      <point x="220.653" y="448"/>
      <point x="256" y="448" type="curve" smooth="yes"/>
      <point x="291.347" y="448"/>
      <point x="320" y="419.347"/>
      <point x="320" y="384" type="curve" smooth="yes"/>
      <point x="320" y="348.653"/>
      <point x="291.347" y="320"/>
      <point x="256" y="320" type="curve" smooth="yes"/>
      <point x="220.653" y="320"/>
      <point x="192" y="348.653"/>
    </contour>
  </outline>
</glyph>
<glyph name="022-image" format="2">
  <advance width="512"/>
  <unicode hex="F115"/>
  <outline>
    <contour>
      <point x="479.696" y="448" type="line" smooth="yes"/>
      <point x="491.913" y="448"/>
      <point x="501.852" y="437.367"/>
      <point x="501.852" y="424.298" type="curve" smooth="yes"/>
      <point x="501.852" y="28.8919" type="line" smooth="yes"/>
      <point x="501.852" y="15.8226"/>
      <point x="491.913" y="5.1898"/>
      <point x="479.696" y="5.1898" type="curve" smooth="yes"/>
      <point x="22.156" y="5.1898" type="line" smooth="yes"/>
      <point x="9.9392" y="5.1898"/>
      <point x="-0.0002" y="15.8226"/>
      <point x="-0.0002" y="28.8919" type="curve" smooth="yes"/>
      <point x="-0.0002" y="424.298" type="line" smooth="yes"/>
      <point x="-0.0002" y="437.367"/>
      <point x="9.93925" y="448"/>
      <point x="22.156" y="448" type="curve" smooth="yes"/>
    </contour>
    <contour>
      <point x="479.696" y="28.8916" type="line"/>
      <point x="479.696" y="424.298" type="line"/>
      <point x="22.156" y="424.298" type="line"/>
      <point x="22.156" y="28.8916" type="line"/>
      <point x="22.156" y="28.876" type="line"/>
    </contour>
    <contour>
      <point x="431.266" y="388.959" type="line"/>
      <point x="437.642" y="388.959"/>
      <point x="442.811" y="383.748"/>
      <point x="442.811" y="377.323" type="curve" smooth="yes"/>
      <point x="442.811" y="120.147" type="line" smooth="yes"/>
      <point x="442.811" y="113.722"/>
      <point x="437.641" y="108.512"/>
      <point x="431.265" y="108.512" type="curve" smooth="yes"/>
      <point x="41.067" y="108.512" type="line" smooth="yes"/>
      <point x="34.692" y="108.512"/>
      <point x="29.5211" y="113.721"/>
      <point x="29.5211" y="120.146" type="curve" smooth="yes"/>
      <point x="29.5211" y="377.323" type="line" smooth="yes"/>
      <point x="29.5211" y="383.748"/>
      <point x="34.692" y="388.959"/>
      <point x="41.067" y="388.959" type="curve" smooth="yes"/>
      <point x="431.266" y="388.959" type="line"/>
    </contour>
    <contour>
      <point x="52.6133" y="365.688" type="line"/>
      <point x="52.6133" y="365.688" type="line"/>
      <point x="52.6133" y="183.322" type="line"/>
      <point x="168.227" y="299.824" type="line" smooth="yes"/>
      <point x="172.737" y="304.366"/>
      <point x="180.048" y="304.364"/>
      <point x="184.555" y="299.824" type="curve" smooth="yes"/>
      <point x="286.265" y="197.324" type="line"/>
      <point x="330.624" y="242.027" type="line" smooth="yes"/>
      <point x="335.135" y="246.569"/>
      <point x="342.445" y="246.569"/>
      <point x="346.952" y="242.027" type="curve" smooth="yes"/>
      <point x="419.719" y="168.704" type="line"/>
      <point x="419.719" y="365.688" type="line"/>
      <point x="52.6135" y="365.688" type="line"/>
    </contour>
    <contour>
      <point x="52.6133" y="131.784" type="line"/>
      <point x="52.6133" y="131.784" type="line"/>
      <point x="318.642" y="131.784" type="line"/>
      <point x="176.391" y="275.14" type="line"/>
      <point x="52.6133" y="150.412" type="line"/>
      <point x="52.6133" y="131.783" type="line"/>
    </contour>
    <contour>
      <point x="419.721" y="131.783" type="line"/>
      <point x="419.721" y="131.783" type="line"/>
      <point x="419.721" y="136.476" type="line" smooth="yes"/>
      <point x="418.769" y="136.998"/>
      <point x="417.872" y="137.659"/>
      <point x="417.067" y="138.47" type="curve" smooth="yes"/>
      <point x="338.79" y="217.345" type="line"/>
      <point x="302.596" y="180.868" type="line"/>
      <point x="351.302" y="131.784" type="line"/>
      <point x="351.302" y="131.783" type="line"/>
      <point x="419.721" y="131.783" type="line"/>
    </contour>
    <contour>
      <point x="287.827" y="344.678" type="curve" smooth="yes"/>
      <point x="308.174" y="344.678"/>
      <point x="324.727" y="324.814"/>
      <point x="324.727" y="300.397" type="curve" smooth="yes"/>
      <point x="324.727" y="275.98"/>
      <point x="308.175" y="256.116"/>
      <point x="287.827" y="256.116" type="curve" smooth="yes"/>
      <point x="267.479" y="256.116"/>
      <point x="250.926" y="275.98"/>
      <point x="250.926" y="300.397" type="curve" smooth="yes"/>
      <point x="250.926" y="324.814"/>
      <point x="267.48" y="344.678"/>
    </contour>
    <contour>
      <point x="287.827" y="279.54" type="curve" smooth="yes"/>
      <point x="297.41" y="279.54"/>
      <point x="305.206" y="288.895"/>
      <point x="305.206" y="300.396" type="curve" smooth="yes"/>
      <point x="305.206" y="311.896"/>
      <point x="297.409" y="321.251"/>
      <point x="287.827" y="321.251" type="curve" smooth="yes"/>
      <point x="278.243" y="321.251"/>
      <point x="270.447" y="311.896"/>
      <point x="270.447" y="300.396" type="curve" smooth="yes"/>
      <point x="270.447" y="288.895"/>
      <point x="278.243" y="279.54"/>
    </contour>
    <contour>
      <point x="166.087" y="93.751" type="line" smooth="yes"/>
      <point x="172.183" y="93.751"/>
      <point x="177.124" y="87.1416"/>
      <point x="177.124" y="78.9912" type="curve" smooth="yes"/>
      <point x="177.124" y="70.8398"/>
      <point x="172.183" y="64.2305"/>
      <point x="166.087" y="64.2305" type="curve" smooth="yes"/>
      <point x="70.0792" y="64.2305" type="line" smooth="yes"/>
      <point x="63.9845" y="64.2305"/>
      <point x="59.0411" y="70.8389"/>
      <point x="59.0411" y="78.9912" type="curve" smooth="yes"/>
      <point x="59.0411" y="87.1416"/>
      <point x="63.9845" y="93.751"/>
      <point x="70.0792" y="93.751" type="curve" smooth="yes"/>
    </contour>
    <contour>
      <point x="244.031" y="93.751" type="line" smooth="yes"/>
      <point x="247.839" y="93.751"/>
      <point x="250.926" y="87.1416"/>
      <point x="250.926" y="78.9912" type="curve" smooth="yes"/>
      <point x="250.926" y="70.8398"/>
      <point x="247.839" y="64.2305"/>
      <point x="244.031" y="64.2305" type="curve" smooth="yes"/>
      <point x="228.3" y="64.2305" type="line" smooth="yes"/>
      <point x="224.493" y="64.2305"/>
      <point x="221.405" y="70.8399"/>
      <point x="221.405" y="78.9912" type="curve" smooth="yes"/>
      <point x="221.405" y="87.1416"/>
      <point x="224.493" y="93.751"/>
      <point x="228.3" y="93.751" type="curve" smooth="yes"/>
    </contour>
  </outline>
</glyph>
<glyph name="023-arrow-2-down" format="2">
  <advance width="512"/>
  <unicode hex="F116"/>
  <outline>
    <contour>
      <point x="281.251" y="166.406" type="line" smooth="yes"/>
      <point x="274.254" y="159.41"/>
      <point x="265.082" y="155.909"/>
      <point x="255.908" y="155.909" type="curve" smooth="yes"/>
      <point x="246.738" y="155.909"/>
      <point x="237.573" y="159.403"/>
      <point x="230.573" y="166.4" type="curve" smooth="yes"/>
      <point x="10.4992" y="386.477" type="line" smooth="yes"/>
      <point x="-3.4998" y="400.477"/>
      <point x="-3.4998" y="423.173"/>
      <point x="10.4992" y="437.168" type="curve" smooth="yes"/>
      <point x="24.4933" y="451.162"/>
      <point x="47.1877" y="451.162"/>
      <point x="61.1877" y="437.168" type="curve" smooth="yes"/>
      <point x="255.91" y="242.439" type="line"/>
      <point x="450.639" y="437.173" type="line" smooth="yes"/>
      <point x="464.632" y="451.167"/>
      <point x="487.329" y="451.167"/>
      <point x="501.322" y="437.173" type="curve" smooth="yes"/>
      <point x="515.329" y="423.179"/>
      <point x="515.329" y="400.482"/>
      <point x="501.322" y="386.482" type="curve" smooth="yes"/>
    </contour>
  </outline>
</glyph>
<glyph name="024-edit-icon" format="2">
  <advance width="512"/>
  <unicode hex="F117"/>
  <outline>
    <contour>
      <point x="391.765" y="350.392" type="line"/>
      <point x="414.392" y="327.765" type="line" smooth="yes"/>
      <point x="426.889" y="315.268"/>
      <point x="426.889" y="295.007"/>
      <point x="414.392" y="282.51" type="curve" smooth="yes"/>
      <point x="215.153" y="83.2701" type="line"/>
      <point x="215.153" y="83.2701" type="line"/>
      <point x="123.541" y="51.9469" type="line" smooth="yes"/>
      <point x="119.36" y="50.5172"/>
      <point x="114.812" y="52.7477"/>
      <point x="113.383" y="56.9283" type="curve" smooth="yes"/>
      <point x="112.779" y="58.6949"/>
      <point x="112.812" y="60.6168"/>
      <point x="113.476" y="62.3619" type="curve" smooth="yes"/>
      <point x="147.27" y="151.153" type="line"/>
      <point x="147.27" y="151.153" type="line"/>
      <point x="346.51" y="350.392" type="line" smooth="yes"/>
      <point x="359.007" y="362.889"/>
      <point x="379.268" y="362.889"/>
      <point x="391.765" y="350.392" type="curve"/>
    </contour>
  </outline>
</glyph>
<glyph name="025-cake-1-group" format="2">
  <advance width="512"/>
  <unicode hex="F118"/>
  <outline>
    <contour>
      <point x="240" y="352" type="line"/>
      <point x="356.344" y="352"/>
      <point x="480" y="326.768"/>
      <point x="480" y="280" type="curve" smooth="yes"/>
      <point x="480" y="103.992" type="line" smooth="yes"/>
      <point x="480" y="57.2234"/>
      <point x="356.344" y="31.992"/>
      <point x="240" y="31.992" type="curve" smooth="yes"/>
      <point x="231.832" y="31.992"/>
      <point x="223.76" y="32.0721"/>
      <point x="215.76" y="32.3201" type="curve" smooth="yes"/>
      <point x="211.477" y="32.4481"/>
      <point x="208" y="36.0311"/>
      <point x="208" y="40.3162" type="curve" smooth="yes"/>
      <point x="208" y="40.3201" type="line"/>
      <point x="208" y="111.36" type="line"/>
      <point x="8.61603" y="95.9997" type="line"/>
      <point x="7.99982" y="95.9997" type="line" smooth="yes"/>
      <point x="3.5838" y="95.9997"/>
      <point x="-0.000181" y="99.5837"/>
      <point x="-0.000181" y="104" type="curve" smooth="yes"/>
      <point x="-0.000181" y="280" type="line" smooth="yes"/>
      <point x="-0.000181" y="326.767"/>
      <point x="123.656" y="352"/>
      <point x="240" y="352" type="curve"/>
    </contour>
    <contour>
      <point x="240" y="336" type="line"/>
      <point x="118.216" y="336"/>
      <point x="37.696" y="310.888"/>
      <point x="19.792" y="288.928" type="curve"/>
      <point x="215.384" y="304" type="line" smooth="yes"/>
      <point x="215.554" y="304.013"/>
      <point x="215.83" y="304.023"/>
      <point x="216" y="304.023" type="curve" smooth="yes"/>
      <point x="220.416" y="304.023"/>
      <point x="224" y="300.439"/>
      <point x="224" y="296.023" type="curve" smooth="yes"/>
      <point x="224" y="296" type="line"/>
      <point x="224" y="224.216" type="line"/>
      <point x="229.321" y="224.12"/>
      <point x="234.616" y="224"/>
      <point x="240" y="224" type="curve" smooth="yes"/>
      <point x="378.784" y="224"/>
      <point x="464" y="256.616"/>
      <point x="464" y="280" type="curve" smooth="yes"/>
      <point x="464" y="303.384"/>
      <point x="378.784" y="336"/>
      <point x="240" y="336" type="curve"/>
    </contour>
    <contour>
      <point x="224" y="208.216" type="line"/>
      <point x="224" y="156.992" type="line"/>
      <point x="229.922" y="155.322"/>
      <point x="238.244" y="150.419"/>
      <point x="242.576" y="146.048" type="curve" smooth="yes"/>
      <point x="249.032" y="140.416"/>
      <point x="252.704" y="137.56"/>
      <point x="259.376" y="138.544" type="curve" smooth="yes"/>
      <point x="266.048" y="139.529"/>
      <point x="268.688" y="143.432"/>
      <point x="273.152" y="150.728" type="curve" smooth="yes"/>
      <point x="277.694" y="161.788"/>
      <point x="291.085" y="170.765"/>
      <point x="303.042" y="170.765" type="curve" smooth="yes"/>
      <point x="311.404" y="170.765"/>
      <point x="322.531" y="165.548"/>
      <point x="327.88" y="159.12" type="curve" smooth="yes"/>
      <point x="334.336" y="153.496"/>
      <point x="338.008" y="150.6"/>
      <point x="344.68" y="151.624" type="curve" smooth="yes"/>
      <point x="351.352" y="152.649"/>
      <point x="353.992" y="156.504"/>
      <point x="358.456" y="163.808" type="curve" smooth="yes"/>
      <point x="363.011" y="174.868"/>
      <point x="376.416" y="183.845"/>
      <point x="388.378" y="183.845" type="curve" smooth="yes"/>
      <point x="396.741" y="183.845"/>
      <point x="407.876" y="178.632"/>
      <point x="413.233" y="172.208" type="curve" smooth="yes"/>
      <point x="419.632" y="166.576"/>
      <point x="423.344" y="163.712"/>
      <point x="430.032" y="164.704" type="curve" smooth="yes"/>
      <point x="436.72" y="165.697"/>
      <point x="439.36" y="169.592"/>
      <point x="443.832" y="176.897" type="curve" smooth="yes"/>
      <point x="447.322" y="184.273"/>
      <point x="456.358" y="192.58"/>
      <point x="464" y="195.441" type="curve"/>
      <point x="464" y="252.76" type="line"/>
      <point x="426.92" y="223.52"/>
      <point x="331.2" y="208"/>
      <point x="240" y="208" type="curve" smooth="yes"/>
      <point x="234.609" y="208"/>
      <point x="229.312" y="208.12"/>
      <point x="224" y="208.216" type="curve" smooth="yes"/>
    </contour>
    <contour>
      <point x="16" y="112.64" type="line"/>
      <point x="208" y="127.409" type="line"/>
      <point x="208" y="287.361" type="line"/>
      <point x="16" y="272.592" type="line"/>
    </contour>
    <contour>
      <point x="240" y="48" type="line"/>
      <point x="378.784" y="48"/>
      <point x="464" y="80.6162"/>
      <point x="464" y="104" type="curve" smooth="yes"/>
      <point x="464" y="177.36" type="line"/>
      <point x="461.861" y="175.183"/>
      <point x="458.94" y="171.24"/>
      <point x="457.48" y="168.56" type="curve" smooth="yes"/>
      <point x="452.919" y="157.504"/>
      <point x="439.511" y="148.53"/>
      <point x="427.551" y="148.53" type="curve" smooth="yes"/>
      <point x="419.185" y="148.53"/>
      <point x="408.047" y="153.744"/>
      <point x="402.688" y="160.168" type="curve" smooth="yes"/>
      <point x="396.288" y="165.792"/>
      <point x="392.568" y="168.656"/>
      <point x="385.888" y="167.664" type="curve" smooth="yes"/>
      <point x="379.208" y="166.672"/>
      <point x="376.568" y="162.776"/>
      <point x="372.112" y="155.472" type="curve" smooth="yes"/>
      <point x="367.564" y="144.415"/>
      <point x="354.17" y="135.442"/>
      <point x="342.215" y="135.442" type="curve" smooth="yes"/>
      <point x="333.851" y="135.442"/>
      <point x="322.719" y="140.659"/>
      <point x="317.368" y="147.088" type="curve" smooth="yes"/>
      <point x="310.912" y="152.72"/>
      <point x="307.24" y="155.568"/>
      <point x="300.568" y="154.584" type="curve" smooth="yes"/>
      <point x="293.896" y="153.6"/>
      <point x="291.256" y="149.704"/>
      <point x="286.8" y="142.4" type="curve" smooth="yes"/>
      <point x="282.739" y="133.366"/>
      <point x="271.543" y="124.558"/>
      <point x="261.807" y="122.736" type="curve" smooth="yes"/>
      <point x="260.434" y="122.519"/>
      <point x="258.19" y="122.34"/>
      <point x="256.8" y="122.336" type="curve" smooth="yes"/>
      <point x="248.67" y="122.796"/>
      <point x="237.585" y="128.021"/>
      <point x="232.056" y="134" type="curve" smooth="yes"/>
      <point x="230.021" y="135.928"/>
      <point x="226.412" y="138.652"/>
      <point x="224" y="140.08" type="curve"/>
      <point x="224" y="48.128" type="line"/>
      <point x="229.296" y="48.0001"/>
      <point x="234.632" y="48.0001"/>
      <point x="240" y="48.0001" type="curve" smooth="yes"/>
    </contour>
    <contour>
      <point x="56" y="248" type="line"/>
      <point x="72" y="248" type="line"/>
      <point x="72" y="232" type="line"/>
      <point x="56" y="232" type="line"/>
    </contour>
    <contour>
      <point x="88" y="224" type="line"/>
      <point x="104" y="224" type="line"/>
      <point x="104" y="208" type="line"/>
      <point x="88" y="208" type="line"/>
    </contour>
    <contour>
      <point x="144" y="264" type="line"/>
      <point x="160" y="264" type="line"/>
      <point x="160" y="248" type="line"/>
      <point x="144" y="248" type="line"/>
    </contour>
    <contour>
      <point x="176" y="200" type="line"/>
      <point x="192" y="200" type="line"/>
      <point x="192" y="184" type="line"/>
      <point x="176" y="184" type="line"/>
    </contour>
    <contour>
      <point x="136" y="168" type="line"/>
      <point x="152" y="168" type="line"/>
      <point x="152" y="152" type="line"/>
      <point x="136" y="152" type="line"/>
    </contour>
    <contour>
      <point x="48" y="176" type="line"/>
      <point x="64" y="176" type="line"/>
      <point x="64" y="160" type="line"/>
      <point x="48" y="160" type="line"/>
    </contour>
    <contour>
      <point x="24" y="216" type="line"/>
      <point x="40" y="216" type="line"/>
      <point x="40" y="200" type="line"/>
      <point x="24" y="200" type="line"/>
    </contour>
    <contour>
      <point x="88" y="152" type="line"/>
      <point x="104" y="152" type="line"/>
      <point x="104" y="136" type="line"/>
      <point x="88" y="136" type="line"/>
    </contour>
  </outline>
</glyph>
<glyph name="026-printer" format="2">
  <advance width="512"/>
  <unicode hex="F119"/>
  <outline>
    <contour>
      <point x="423.66" y="343.054" type="line"/>
      <point x="465.363" y="343.054"/>
      <point x="499.319" y="309.097"/>
      <point x="499.319" y="267.394" type="curve" smooth="yes"/>
      <point x="499.319" y="145.364" type="line" smooth="yes"/>
      <point x="499.319" y="103.661"/>
      <point x="465.363" y="69.7046"/>
      <point x="423.66" y="69.7046" type="curve" smooth="yes"/>
      <point x="410.395" y="69.7046" type="line"/>
      <point x="410.395" y="-26.2231" type="line" smooth="yes"/>
      <point x="410.395" y="-47.021"/>
      <point x="393.418" y="-63.9995"/>
      <point x="372.619" y="-63.9995" type="curve" smooth="yes"/>
      <point x="138.001" y="-63.9995" type="line" smooth="yes"/>
      <point x="117.203" y="-63.9995"/>
      <point x="100.225" y="-47.021"/>
      <point x="100.225" y="-26.2231" type="curve" smooth="yes"/>
      <point x="100.225" y="69.7046" type="line"/>
      <point x="88.3398" y="69.7046" type="line" smooth="yes"/>
      <point x="46.6367" y="69.7046"/>
      <point x="12.6806" y="103.661"/>
      <point x="12.6806" y="145.364" type="curve" smooth="yes"/>
      <point x="12.6806" y="267.394" type="line" smooth="yes"/>
      <point x="12.6806" y="309.097"/>
      <point x="46.6367" y="343.054"/>
      <point x="88.3398" y="343.054" type="curve" smooth="yes"/>
      <point x="100.331" y="343.054" type="line"/>
      <point x="100.331" y="372.341" type="line" smooth="yes"/>
      <point x="100.331" y="414.044"/>
      <point x="134.287" y="448"/>
      <point x="175.99" y="448" type="curve" smooth="yes"/>
      <point x="334.843" y="448" type="line" smooth="yes"/>
      <point x="376.546" y="448"/>
      <point x="410.502" y="414.044"/>
      <point x="410.502" y="372.341" type="curve" smooth="yes"/>
      <point x="410.502" y="343.054" type="line"/>
      <point x="423.661" y="343.054" type="line"/>
    </contour>
    <contour>
      <point x="128.875" y="372.341" type="line"/>
      <point x="128.875" y="343.054" type="line"/>
      <point x="381.639" y="343.054" type="line"/>
      <point x="381.639" y="372.341" type="line" smooth="yes"/>
      <point x="381.639" y="398.233"/>
      <point x="360.523" y="419.35"/>
      <point x="334.631" y="419.35" type="curve" smooth="yes"/>
      <point x="175.884" y="419.35" type="line" smooth="yes"/>
      <point x="149.993" y="419.35"/>
      <point x="128.875" y="398.233"/>
      <point x="128.875" y="372.341" type="curve"/>
    </contour>
    <contour>
      <point x="381.745" y="-26.4355" type="line"/>
      <point x="381.745" y="131.781" type="line"/>
      <point x="128.875" y="131.781" type="line"/>
      <point x="128.875" y="-26.4355" type="line" smooth="yes"/>
      <point x="128.875" y="-31.4228"/>
      <point x="133.014" y="-35.5615"/>
      <point x="138.001" y="-35.5615" type="curve" smooth="yes"/>
      <point x="372.619" y="-35.5615" type="line" smooth="yes"/>
      <point x="377.606" y="-35.5615"/>
      <point x="381.745" y="-31.4228"/>
      <point x="381.745" y="-26.4355" type="curve"/>
    </contour>
    <contour>
      <point x="470.669" y="145.257" type="line"/>
      <point x="470.669" y="267.288" type="line" smooth="yes"/>
      <point x="470.669" y="293.18"/>
      <point x="449.552" y="314.296"/>
      <point x="423.66" y="314.296" type="curve" smooth="yes"/>
      <point x="88.3402" y="314.296" type="line" smooth="yes"/>
      <point x="62.4486" y="314.296"/>
      <point x="41.3314" y="293.18"/>
      <point x="41.3314" y="267.288" type="curve" smooth="yes"/>
      <point x="41.3314" y="145.257" type="line" smooth="yes"/>
      <point x="41.3314" y="119.365"/>
      <point x="62.4486" y="98.2482"/>
      <point x="88.3402" y="98.2482" type="curve" smooth="yes"/>
      <point x="100.331" y="98.2482" type="line"/>
      <point x="100.331" y="131.78" type="line"/>
      <point x="79.2142" y="131.78" type="line" smooth="yes"/>
      <point x="71.2562" y="131.78"/>
      <point x="64.889" y="138.148"/>
      <point x="64.889" y="146.106" type="curve" smooth="yes"/>
      <point x="64.889" y="154.065"/>
      <point x="71.2562" y="160.431"/>
      <point x="79.2142" y="160.431" type="curve" smooth="yes"/>
      <point x="429.391" y="160.431" type="line" smooth="yes"/>
      <point x="437.349" y="160.431"/>
      <point x="443.716" y="154.065"/>
      <point x="443.716" y="146.106" type="curve" smooth="yes"/>
      <point x="443.716" y="138.148"/>
      <point x="437.349" y="131.78"/>
      <point x="429.391" y="131.78" type="curve" smooth="yes"/>
      <point x="410.503" y="131.78" type="line"/>
      <point x="410.503" y="98.2482" type="line"/>
      <point x="423.661" y="98.2482" type="line" smooth="yes"/>
      <point x="449.552" y="98.2482"/>
      <point x="470.67" y="119.365"/>
      <point x="470.67" y="145.257" type="curve"/>
    </contour>
    <contour>
      <point x="163.575" y="61.3203" type="line" smooth="yes"/>
      <point x="155.722" y="61.3203"/>
      <point x="149.249" y="67.6875"/>
      <point x="149.249" y="75.6465" type="curve" smooth="yes"/>
      <point x="149.249" y="83.6045"/>
      <point x="155.616" y="89.9717"/>
      <point x="163.575" y="89.9717" type="curve" smooth="yes"/>
      <point x="345.984" y="89.9717" type="line" smooth="yes"/>
      <point x="353.943" y="89.9717"/>
      <point x="360.309" y="83.6045"/>
      <point x="360.309" y="75.6465" type="curve" smooth="yes"/>
      <point x="360.309" y="67.6875"/>
      <point x="353.943" y="61.3203"/>
      <point x="345.984" y="61.3203" type="curve" smooth="yes"/>
    </contour>
    <contour>
      <point x="347.152" y="31.3965" type="line"/>
      <point x="355.004" y="31.3965"/>
      <point x="361.371" y="25.0293"/>
      <point x="361.371" y="17.0713" type="curve" smooth="yes"/>
      <point x="361.371" y="9.11232"/>
      <point x="355.004" y="2.7461"/>
      <point x="347.046" y="2.7461" type="curve" smooth="yes"/>
      <point x="164.636" y="2.7461" type="line" smooth="yes"/>
      <point x="156.678" y="2.7461"/>
      <point x="150.31" y="9.11231"/>
      <point x="150.31" y="17.0713" type="curve" smooth="yes"/>
      <point x="150.31" y="25.0293"/>
      <point x="156.678" y="31.3965"/>
      <point x="164.636" y="31.3965" type="curve" smooth="yes"/>
      <point x="347.153" y="31.3965" type="line"/>
    </contour>
    <contour>
      <point x="423.342" y="286.812" type="line" smooth="yes"/>
      <point x="431.301" y="286.812"/>
      <point x="437.667" y="280.446"/>
      <point x="437.667" y="272.487" type="curve" smooth="yes"/>
      <point x="437.667" y="264.529"/>
      <point x="431.301" y="258.162"/>
      <point x="423.342" y="258.162" type="curve" smooth="yes"/>
      <point x="394.267" y="258.162" type="line" smooth="yes"/>
      <point x="386.308" y="258.162"/>
      <point x="379.942" y="264.529"/>
      <point x="379.942" y="272.487" type="curve" smooth="yes"/>
      <point x="379.942" y="280.446"/>
      <point x="386.308" y="286.812"/>
      <point x="394.267" y="286.812" type="curve" smooth="yes"/>
    </contour>
  </outline>
</glyph>
<glyph name="027-change-price-level" format="2">
  <advance width="512"/>
  <unicode hex="F11A"/>
  <outline>
    <contour>
      <point x="256" y="448" type="curve" smooth="yes"/>
      <point x="397.385" y="448"/>
      <point x="512" y="333.385"/>
      <point x="512" y="192" type="curve" smooth="yes"/>
      <point x="512" y="50.615"/>
      <point x="397.385" y="-64"/>
      <point x="256" y="-64" type="curve" smooth="yes"/>
      <point x="114.615" y="-64"/>
      <point x="0" y="50.615"/>
      <point x="0" y="192" type="curve" smooth="yes"/>
      <point x="0" y="333.385"/>
      <point x="114.615" y="448"/>
    </contour>
    <contour>
      <point x="39.6689" y="215.022" type="line"/>
      <point x="37.9648" y="213.73" type="line"/>
      <point x="13.4511" y="192.443" type="line"/>
      <point x="12.0175" y="191.033" type="line" smooth="yes"/>
      <point x="6.70794" y="185.115"/>
      <point x="6.51263" y="176.03"/>
      <point x="11.8613" y="169.872" type="curve" smooth="yes"/>
      <point x="17.2089" y="163.712"/>
      <point x="26.2314" y="162.632"/>
      <point x="32.8359" y="167.059" type="curve" smooth="yes"/>
      <point x="33.328" y="167.456" type="line"/>
      <point x="33.9433" y="162.362" type="line" smooth="yes"/>
      <point x="48.2216" y="54.3469"/>
      <point x="139.465" y="-29.3891"/>
      <point x="250.768" y="-31.9411" type="curve" smooth="yes"/>
      <point x="256" y="-32.0007" type="line" smooth="yes"/>
      <point x="264.837" y="-32.0007"/>
      <point x="272" y="-24.8376"/>
      <point x="272" y="-16.0007" type="curve" smooth="yes"/>
      <point x="272" y="-7.16378"/>
      <point x="264.837" y="-0.0006863"/>
      <point x="256" y="-0.0006863" type="curve" smooth="yes"/>
      <point x="158.59" y="-0.0006863"/>
      <point x="78.1217" y="72.5403"/>
      <point x="65.6847" y="166.528" type="curve"/>
      <point x="72.2804" y="162.682"/>
      <point x="80.882" y="164.015"/>
      <point x="85.9689" y="170.055" type="curve" smooth="yes"/>
      <point x="91.2228" y="176.293"/>
      <point x="90.8908" y="185.374"/>
      <point x="85.4924" y="191.211" type="curve" smooth="yes"/>
      <point x="84.0383" y="192.6" type="line"/>
      <point x="58.7629" y="213.887" type="line"/>
      <point x="57.2013" y="215.048" type="line" smooth="yes"/>
      <point x="51.8781" y="218.528"/>
      <point x="44.9718" y="218.512"/>
      <point x="39.6691" y="215.021" type="curve"/>
    </contour>
    <contour>
      <point x="265.377" y="333.684" type="line" smooth="yes"/>
      <point x="259.257" y="339.698"/>
      <point x="249.419" y="339.612"/>
      <point x="243.405" y="333.491" type="curve"/>
      <point x="243.405" y="333.491" type="line"/>
      <point x="184.909" y="273.956" type="line" smooth="yes"/>
      <point x="179.199" y="268.145"/>
      <point x="176" y="260.324"/>
      <point x="176" y="252.177" type="curve"/>
      <point x="176" y="252.177" type="line"/>
      <point x="176" y="79.7511" type="line" smooth="yes"/>
      <point x="176" y="71.1711"/>
      <point x="182.956" y="64.214"/>
      <point x="191.537" y="64.214" type="curve"/>
      <point x="191.537" y="64.214" type="line"/>
      <point x="318.863" y="64.214" type="line" smooth="yes"/>
      <point x="327.443" y="64.214"/>
      <point x="334.4" y="71.1711"/>
      <point x="334.4" y="79.7511" type="curve"/>
      <point x="334.4" y="79.7511" type="line"/>
      <point x="334.4" y="251.987" type="line" smooth="yes"/>
      <point x="334.4" y="260.246"/>
      <point x="331.112" y="268.166"/>
      <point x="325.263" y="273.996" type="curve"/>
      <point x="325.263" y="273.996" type="line"/>
      <point x="265.456" y="333.605" type="line"/>
    </contour>
    <contour>
      <point x="253.479" y="251.414" type="line" smooth="yes"/>
      <point x="257.769" y="251.414"/>
      <point x="261.248" y="247.936"/>
      <point x="261.248" y="243.645" type="curve"/>
      <point x="261.248" y="243.645" type="line"/>
      <point x="261.271" y="235.266" type="line"/>
      <point x="264.993" y="234.801" type="line" smooth="yes"/>
      <point x="268.661" y="234.23"/>
      <point x="272.166" y="233.345"/>
      <point x="275.508" y="232.144" type="curve" smooth="yes"/>
      <point x="281.875" y="229.858"/>
      <point x="287.299" y="226.657"/>
      <point x="291.78" y="222.542" type="curve"/>
      <point x="291.78" y="222.542" type="line"/>
      <point x="285.944" y="211.653" type="line"/>
      <point x="285.26" y="210.519" type="line" smooth="yes"/>
      <point x="284.783" y="209.847"/>
      <point x="284.258" y="209.339"/>
      <point x="283.689" y="208.996" type="curve" smooth="yes"/>
      <point x="282.833" y="208.481"/>
      <point x="281.817" y="208.224"/>
      <point x="280.637" y="208.224" type="curve" smooth="yes"/>
      <point x="279.458" y="208.224"/>
      <point x="278.132" y="208.667"/>
      <point x="276.658" y="209.553" type="curve" smooth="yes"/>
      <point x="275.184" y="210.438"/>
      <point x="273.445" y="211.425"/>
      <point x="271.44" y="212.511" type="curve" smooth="yes"/>
      <point x="269.436" y="213.597"/>
      <point x="267.092" y="214.583"/>
      <point x="264.41" y="215.469" type="curve" smooth="yes"/>
      <point x="263.43" y="215.793"/>
      <point x="262.384" y="216.058"/>
      <point x="261.275" y="216.263" type="curve"/>
      <point x="261.275" y="216.263" type="line"/>
      <point x="261.246" y="182.875" type="line"/>
      <point x="262.911" y="182.33" type="line"/>
      <point x="262.911" y="182.33" type="line"/>
      <point x="264.586" y="181.774" type="line" smooth="yes"/>
      <point x="268.272" y="180.545"/>
      <point x="271.882" y="179.116"/>
      <point x="275.42" y="177.487" type="curve" smooth="yes"/>
      <point x="278.958" y="175.858"/>
      <point x="282.112" y="173.801"/>
      <point x="284.882" y="171.314" type="curve" smooth="yes"/>
      <point x="287.654" y="168.828"/>
      <point x="289.878" y="165.784"/>
      <point x="291.559" y="162.183" type="curve" smooth="yes"/>
      <point x="293.24" y="158.582"/>
      <point x="294.08" y="154.209"/>
      <point x="294.08" y="149.065" type="curve" smooth="yes"/>
      <point x="294.08" y="143.464"/>
      <point x="293.092" y="138.22"/>
      <point x="291.117" y="133.332" type="curve" smooth="yes"/>
      <point x="289.142" y="128.445"/>
      <point x="286.253" y="124.187"/>
      <point x="282.451" y="120.558" type="curve" smooth="yes"/>
      <point x="278.648" y="116.928"/>
      <point x="274.005" y="114.07"/>
      <point x="268.522" y="111.983" type="curve" smooth="yes"/>
      <point x="266.241" y="111.115"/>
      <point x="263.821" y="110.428"/>
      <point x="261.263" y="109.921" type="curve"/>
      <point x="261.263" y="109.921" type="line"/>
      <point x="261.248" y="100.783" type="line"/>
      <point x="261.123" y="99.3866" type="line" smooth="yes"/>
      <point x="260.464" y="95.7626"/>
      <point x="257.292" y="93.0146"/>
      <point x="253.479" y="93.0146" type="curve"/>
      <point x="253.479" y="93.0146" type="line"/>
      <point x="251.736" y="93.0146" type="line"/>
      <point x="250.339" y="93.1396" type="line" smooth="yes"/>
      <point x="246.715" y="93.7968"/>
      <point x="243.967" y="96.9687"/>
      <point x="243.967" y="100.783" type="curve"/>
      <point x="243.967" y="100.783" type="line"/>
      <point x="243.971" y="109.111" type="line"/>
      <point x="240.802" y="109.48" type="line"/>
      <point x="240.802" y="109.48" type="line"/>
      <point x="237.659" y="110.012" type="line" smooth="yes"/>
      <point x="233.709" y="110.783"/>
      <point x="229.92" y="111.884"/>
      <point x="226.294" y="113.312" type="curve" smooth="yes"/>
      <point x="222.669" y="114.741"/>
      <point x="219.279" y="116.456"/>
      <point x="216.125" y="118.457" type="curve" smooth="yes"/>
      <point x="212.971" y="120.457"/>
      <point x="210.156" y="122.686"/>
      <point x="207.679" y="125.144" type="curve"/>
      <point x="207.679" y="125.144" type="line"/>
      <point x="214.578" y="136.204" type="line"/>
      <point x="215.27" y="136.962" type="line" smooth="yes"/>
      <point x="215.761" y="137.438"/>
      <point x="216.312" y="137.857"/>
      <point x="216.92" y="138.22" type="curve" smooth="yes"/>
      <point x="217.834" y="138.763"/>
      <point x="218.852" y="139.034"/>
      <point x="219.972" y="139.034" type="curve" smooth="yes"/>
      <point x="221.446" y="139.034"/>
      <point x="223.038" y="138.448"/>
      <point x="224.748" y="137.276" type="curve" smooth="yes"/>
      <point x="226.457" y="136.104"/>
      <point x="228.476" y="134.805"/>
      <point x="230.805" y="133.375" type="curve" smooth="yes"/>
      <point x="233.133" y="131.946"/>
      <point x="235.875" y="130.645"/>
      <point x="239.03" y="129.475" type="curve" smooth="yes"/>
      <point x="240.531" y="128.916"/>
      <point x="242.176" y="128.491"/>
      <point x="243.965" y="128.199" type="curve"/>
      <point x="243.965" y="128.199" type="line"/>
      <point x="243.978" y="165.165" type="line"/>
      <point x="243.119" y="165.43" type="line"/>
      <point x="243.119" y="165.43" type="line"/>
      <point x="242.257" y="165.698" type="line" smooth="yes"/>
      <point x="238.602" y="166.842"/>
      <point x="235.005" y="168.213"/>
      <point x="231.468" y="169.813" type="curve" smooth="yes"/>
      <point x="227.931" y="171.414"/>
      <point x="224.777" y="173.5"/>
      <point x="222.005" y="176.072" type="curve" smooth="yes"/>
      <point x="219.235" y="178.644"/>
      <point x="217.009" y="181.859"/>
      <point x="215.329" y="185.718" type="curve" smooth="yes"/>
      <point x="213.649" y="189.576"/>
      <point x="212.809" y="194.335"/>
      <point x="212.809" y="199.993" type="curve" smooth="yes"/>
      <point x="212.809" y="204.509"/>
      <point x="213.737" y="208.91"/>
      <point x="215.594" y="213.197" type="curve" smooth="yes"/>
      <point x="217.452" y="217.483"/>
      <point x="220.164" y="221.285"/>
      <point x="223.73" y="224.599" type="curve" smooth="yes"/>
      <point x="227.297" y="227.915"/>
      <point x="231.674" y="230.573"/>
      <point x="236.863" y="232.573" type="curve" smooth="yes"/>
      <point x="239.092" y="233.433"/>
      <point x="241.457" y="234.108"/>
      <point x="243.959" y="234.598" type="curve"/>
      <point x="243.959" y="234.598" type="line"/>
      <point x="243.967" y="243.645" type="line"/>
      <point x="244.092" y="245.042" type="line" smooth="yes"/>
      <point x="244.75" y="248.666"/>
      <point x="247.922" y="251.414"/>
      <point x="251.736" y="251.414" type="curve"/>
      <point x="251.736" y="251.414" type="line"/>
      <point x="253.479" y="251.414" type="line"/>
    </contour>
    <contour>
      <point x="261.248" y="159.559" type="line"/>
      <point x="261.277" y="129.53" type="line"/>
      <point x="263.042" y="130.335" type="line" smooth="yes"/>
      <point x="264.17" y="130.921"/>
      <point x="265.201" y="131.606"/>
      <point x="266.135" y="132.39" type="curve" smooth="yes"/>
      <point x="269.849" y="135.505"/>
      <point x="271.706" y="139.977"/>
      <point x="271.706" y="145.808" type="curve" smooth="yes"/>
      <point x="271.706" y="149.066"/>
      <point x="270.866" y="151.723"/>
      <point x="269.185" y="153.781" type="curve" smooth="yes"/>
      <point x="267.506" y="155.839"/>
      <point x="265.28" y="157.568"/>
      <point x="262.509" y="158.968" type="curve"/>
      <point x="262.509" y="158.968" type="line"/>
    </contour>
    <contour>
      <point x="261.266" y="415.939" type="line"/>
      <point x="256" y="416" type="line" smooth="yes"/>
      <point x="247.163" y="416"/>
      <point x="240" y="408.836"/>
      <point x="240" y="400" type="curve" smooth="yes"/>
      <point x="240" y="391.163"/>
      <point x="247.163" y="384"/>
      <point x="256" y="384" type="curve" smooth="yes"/>
      <point x="352.456" y="384"/>
      <point x="432.299" y="312.874"/>
      <point x="445.944" y="220.228" type="curve"/>
      <point x="439.325" y="223.757"/>
      <point x="430.923" y="222.229"/>
      <point x="426.015" y="216.19" type="curve" smooth="yes"/>
      <point x="420.869" y="209.861"/>
      <point x="421.36" y="200.787"/>
      <point x="426.859" y="195.045" type="curve" smooth="yes"/>
      <point x="428.338" y="193.683" type="line"/>
      <point x="453.981" y="172.84" type="line"/>
      <point x="455.563" y="171.706" type="line" smooth="yes"/>
      <point x="460.945" y="168.319"/>
      <point x="467.851" y="168.457"/>
      <point x="473.092" y="172.039" type="curve" smooth="yes"/>
      <point x="474.773" y="173.36" type="line"/>
      <point x="498.911" y="195.071" type="line"/>
      <point x="500.319" y="196.507" type="line" smooth="yes"/>
      <point x="505.525" y="202.517"/>
      <point x="505.562" y="211.602"/>
      <point x="500.108" y="217.667" type="curve" smooth="yes"/>
      <point x="494.652" y="223.732"/>
      <point x="485.612" y="224.654"/>
      <point x="479.087" y="220.113" type="curve" smooth="yes"/>
      <point x="478.32" y="219.52" type="line"/>
      <point x="477.646" y="224.593" type="line" smooth="yes"/>
      <point x="462.11" y="331.166"/>
      <point x="371.537" y="413.396"/>
      <point x="261.266" y="415.94" type="curve" smooth="yes"/>
      <point x="256" y="416" type="line"/>
    </contour>
    <contour>
      <point x="245.792" y="215.472" type="line"/>
      <point x="243.963" y="214.769" type="line" smooth="yes"/>
      <point x="242.502" y="214.121"/>
      <point x="241.211" y="213.34"/>
      <point x="240.091" y="212.425" type="curve" smooth="yes"/>
      <point x="238.411" y="211.054"/>
      <point x="237.158" y="209.41"/>
      <point x="236.333" y="207.495" type="curve" smooth="yes"/>
      <point x="235.507" y="205.58"/>
      <point x="235.095" y="203.48"/>
      <point x="235.095" y="201.194" type="curve" smooth="yes"/>
      <point x="235.095" y="198.279"/>
      <point x="235.935" y="195.85"/>
      <point x="237.615" y="193.907" type="curve" smooth="yes"/>
      <point x="239.228" y="192.041"/>
      <point x="241.342" y="190.44"/>
      <point x="243.959" y="189.101" type="curve"/>
      <point x="243.959" y="189.101" type="line"/>
      <point x="243.968" y="214.775" type="line"/>
    </contour>
    <contour>
      <point x="478.32" y="219.52" type="line"/>
      <point x="478.329" y="219.5" type="line"/>
      <point x="477.792" y="219.088" type="line"/>
      <point x="478.303" y="219.504" type="line"/>
    </contour>
    <contour>
      <point x="255.2" y="311.198" type="curve" smooth="yes"/>
      <point x="267.447" y="311.198"/>
      <point x="277.376" y="301.522"/>
      <point x="277.376" y="289.587" type="curve" smooth="yes"/>
      <point x="277.376" y="277.651"/>
      <point x="267.447" y="267.975"/>
      <point x="255.2" y="267.975" type="curve" smooth="yes"/>
      <point x="242.952" y="267.975"/>
      <point x="233.024" y="277.651"/>
      <point x="233.024" y="289.587" type="curve" smooth="yes"/>
      <point x="233.024" y="301.522"/>
      <point x="242.952" y="311.198"/>
    </contour>
  </outline>
</glyph>
